<svg width="511" height="555" viewBox="0 0 511 555" fill="none" xmlns="http://www.w3.org/2000/svg">
<path fill-rule="evenodd" clip-rule="evenodd" d="M438.179 340.624C443.768 323.989 456.975 326.168 456.975 326.168C461.088 325.878 462.317 328.752 461.645 332.562L442.193 442.883C441.521 446.69 438.119 449.135 435.79 446.315C435.79 446.315 426.805 442.616 426.316 430.936" fill="#7711DD"/>
<path d="M438.179 340.624C443.768 323.989 456.975 326.168 456.975 326.168C461.088 325.878 462.317 328.752 461.645 332.562L442.193 442.883C441.521 446.69 438.119 449.135 435.79 446.315C435.79 446.315 426.805 442.616 426.316 430.936" stroke="#1C1C1D"/>
<path fill-rule="evenodd" clip-rule="evenodd" d="M465.805 189.707C472.966 182.218 480.313 184.439 482.401 185.298C482.78 185.454 482.968 185.451 482.968 185.451C487.269 186.443 490.134 190.766 489.366 195.12L478.323 257.75C477.556 262.099 473.395 265.141 469.01 264.547C468.374 264.625 459.218 264.391 454.358 254.627" fill="#7711DD"/>
<path d="M465.805 189.707C472.966 182.218 480.313 184.439 482.401 185.298C482.78 185.454 482.968 185.451 482.968 185.451C487.269 186.443 490.134 190.766 489.366 195.12L478.323 257.75C477.556 262.099 473.395 265.141 469.01 264.547C468.374 264.625 459.218 264.391 454.358 254.627" stroke="#1C1C1D"/>
<path d="M72.3517 83.9722C79.188 38.4072 122.603 7.71373 167.84 16.4649L322.024 46.2927L410.802 59.8686C456.809 66.9041 487.438 111.173 477.803 156.707L446.834 303.057L422.985 469.049C416.48 514.33 373.794 545.243 328.743 537.299L81.5795 493.718C36.9883 485.855 7.5018 442.965 16.1288 398.515L55.9173 193.51L72.3517 83.9722Z" fill="#7711DD" stroke="#1C1C1D" stroke-width="2"/>
<path d="M327.853 70.8684L327.888 70.8729L408.838 81.6081C442.424 86.0619 465.058 118.231 457.907 151.347L424.365 306.671L424.357 306.709L424.352 306.747L402.547 465.836C398.079 498.435 367.416 520.792 335.012 515.078L83.6259 470.752C51.5445 465.095 30.4128 434.133 36.8363 402.197L82.5574 174.877L82.5643 174.842L82.5688 174.808L93.97 86.625C98.2904 53.2091 130.079 30.4947 163.092 37.234L327.819 70.8614L327.853 70.8684Z" fill="#962EFF" stroke="#1C1C1D" stroke-width="2"/>
<path d="M107.938 176.011L107.944 175.982L107.948 175.953L119.351 91.7024C122.473 68.6312 144.958 53.3441 167.639 58.6643C215.558 69.9044 293.559 87.1539 351.678 94.8668C365.306 96.6753 381.888 98.4965 397.178 100.057C420.891 102.477 437.32 125.104 432.085 148.348C419.187 205.616 397.581 305.808 386.923 379.364C383.419 403.546 379.675 434.675 376.83 459.537C374.258 482.012 353.31 497.774 331.042 493.848L94.3566 452.114C72.8613 448.323 58.661 427.631 62.8559 406.211L107.938 176.011Z" fill="#962EFF" stroke="#1C1C1D" stroke-width="2"/>
<path d="M152.375 76.7968L149.336 94.031L145.347 93.3277L147.822 79.2942L144.375 78.6864L144.939 75.4858L152.375 76.7968ZM166.395 93.688L165.821 96.9378L152.797 94.6413L153.253 92.0562L161.008 86.9502C161.832 86.4017 162.409 85.9112 162.74 85.4786C163.073 85.0296 163.281 84.5671 163.365 84.0911C163.487 83.4017 163.341 82.8345 162.929 82.3895C162.536 81.931 161.888 81.6221 160.985 81.4629C160.23 81.3298 159.523 81.3574 158.864 81.5458C158.207 81.7177 157.623 82.0547 157.111 82.5569L154.536 80.1735C155.386 79.2909 156.45 78.6748 157.731 78.3251C159.014 77.959 160.418 77.9105 161.945 78.1797C163.225 78.4054 164.304 78.8156 165.18 79.4102C166.076 79.9913 166.719 80.7139 167.108 81.5779C167.517 82.4285 167.63 83.3707 167.448 84.4048C167.283 85.3404 166.931 86.1838 166.392 86.935C165.854 87.6862 164.925 88.4872 163.608 89.3379L158.984 92.3813L166.395 93.688ZM171.872 89.0943C171.199 88.9756 170.673 88.646 170.294 88.1053C169.916 87.5647 169.787 86.9497 169.909 86.2604C170.033 85.5546 170.363 85.0289 170.898 84.6831C171.435 84.321 172.041 84.1993 172.714 84.3179C173.387 84.4366 173.914 84.758 174.295 85.2822C174.68 85.79 174.81 86.3968 174.685 87.1026C174.564 87.7919 174.232 88.3259 173.692 88.7044C173.151 89.083 172.544 89.2129 171.872 89.0943ZM170.313 97.9329C169.64 97.8142 169.114 97.4846 168.736 96.944C168.357 96.4034 168.229 95.7884 168.35 95.099C168.475 94.3932 168.804 93.8675 169.339 93.5218C169.877 93.1597 170.482 93.0379 171.155 93.1566C171.828 93.2752 172.355 93.5967 172.737 94.1209C173.121 94.6287 173.251 95.2354 173.127 95.9412C173.005 96.6306 172.674 97.1645 172.133 97.5431C171.593 97.9216 170.986 98.0516 170.313 97.9329ZM182.476 100.179C181.048 99.9273 179.838 99.3501 178.846 98.4475C177.855 97.5449 177.156 96.3725 176.75 94.9301C176.364 93.4742 176.334 91.8189 176.661 89.9642C176.988 88.1095 177.581 86.5723 178.439 85.3528C179.316 84.1198 180.375 83.2488 181.616 82.7398C182.857 82.2308 184.191 82.1022 185.619 82.354C187.047 82.6058 188.257 83.183 189.248 84.0856C190.24 84.9882 190.929 86.1674 191.315 87.6233C191.721 89.0656 191.76 90.7142 191.433 92.5689C191.106 94.4236 190.504 95.9675 189.627 97.2005C188.768 98.4201 187.719 99.2843 186.479 99.7933C185.238 100.302 183.904 100.431 182.476 100.179ZM183.07 96.8061C184.121 96.9913 185.021 96.6847 185.771 95.8861C186.538 95.0904 187.087 93.7488 187.42 91.8613C187.753 89.9737 187.695 88.5251 187.247 87.5152C186.816 86.5083 186.074 85.9122 185.024 85.727C183.99 85.5447 183.09 85.8513 182.323 86.647C181.573 87.4455 181.032 88.7886 180.699 90.6761C180.366 92.5637 180.416 94.0109 180.847 95.0179C181.295 96.0277 182.036 96.6238 183.07 96.8061ZM200.273 91.9191C202.702 92.3474 204.406 93.1471 205.384 94.318C206.379 95.4919 206.733 96.8913 206.446 98.5163C206.261 99.5667 205.829 100.481 205.151 101.258C204.475 102.019 203.549 102.566 202.373 102.901C201.217 103.221 199.85 103.243 198.275 102.965C197.06 102.751 195.889 102.383 194.763 101.863C193.655 101.33 192.743 100.695 192.027 99.9592L194.141 97.1842C194.71 97.7923 195.398 98.3112 196.202 98.7407C197.009 99.1538 197.864 99.44 198.767 99.5991C199.768 99.7757 200.591 99.7176 201.234 99.425C201.878 99.1324 202.263 98.6332 202.387 97.9274C202.517 97.1888 202.312 96.5772 201.771 96.0926C201.247 95.6109 200.246 95.2398 198.769 94.9794L194.362 94.2023L196.959 84.6582L207.472 86.5119L206.907 89.7125L199.718 88.4449L198.87 91.6716L200.273 91.9191Z" fill="white"/>
<path d="M387.251 132.25L384.445 131.755L383.806 135.375L379.916 134.689L380.555 131.069L371.273 129.433L371.746 126.749L381.798 117.25L385.984 117.988L376.622 127.025L381.251 127.841L381.819 124.616L385.586 125.28L385.018 128.505L387.824 129L387.251 132.25ZM403.189 138.995C401.777 138.746 400.556 138.235 399.524 137.461C398.512 136.673 397.778 135.706 397.32 134.559C396.878 133.415 396.773 132.186 397.005 130.873C397.237 129.56 397.755 128.441 398.561 127.517C399.384 126.596 400.404 125.947 401.621 125.569C402.858 125.178 404.182 125.107 405.594 125.356C406.989 125.602 408.151 126.111 409.081 126.884C410.03 127.644 410.647 128.608 410.932 129.775L407.671 130.85C407.196 129.514 406.31 128.731 405.013 128.503C404.012 128.326 403.125 128.508 402.353 129.049C401.581 129.59 401.095 130.426 400.895 131.559C400.695 132.691 400.866 133.644 401.407 134.416C401.947 135.189 402.718 135.663 403.72 135.839C405.033 136.071 406.133 135.639 407.02 134.543L409.712 136.693C409.051 137.66 408.143 138.346 406.989 138.751C405.85 139.16 404.584 139.241 403.189 138.995Z" fill="white"/>
<g filter="url(#filter0_d_6_2656)">
<rect x="185.668" y="395.926" width="41" height="95.9286" rx="5" transform="rotate(100 185.668 395.926)" fill="white"/>
<rect x="184.51" y="396.738" width="39" height="93.9286" rx="4" transform="rotate(100 184.51 396.738)" stroke="black" stroke-width="2"/>
</g>
<g filter="url(#filter1_d_6_2656)">
<rect x="359.064" y="426.501" width="41" height="95.9286" rx="5" transform="rotate(100 359.064 426.501)" fill="white"/>
<rect x="357.906" y="427.312" width="39" height="93.9286" rx="4" transform="rotate(100 357.906 427.312)" stroke="black" stroke-width="2"/>
</g>
<g filter="url(#filter2_d_6_2656)">
<rect x="256.222" y="408.367" width="41" height="63.1429" rx="5" transform="rotate(100 256.222 408.367)" fill="white"/>
<rect x="255.063" y="409.178" width="39" height="61.1429" rx="4" transform="rotate(100 255.063 409.178)" stroke="black" stroke-width="2"/>
</g>
<path d="M238.398 316.122C227.985 314.365 218.127 311.485 208.824 307.481C199.52 303.477 192.052 299.053 186.42 294.208L205.061 265.956C210.398 270.386 216.496 274.275 223.355 277.623C230.351 280.872 237.281 283.076 244.144 284.234C248.167 284.913 251.343 285.205 253.671 285.111C256.138 284.919 257.983 284.44 259.208 283.673C260.452 282.787 261.195 281.635 261.434 280.215C261.814 277.967 260.871 275.982 258.605 274.261C256.34 272.54 253.207 270.916 249.205 269.389C245.342 267.764 241.064 266.068 236.372 264.303C231.701 262.419 227.02 260.23 222.33 257.735C217.758 255.26 213.631 252.312 209.948 248.891C206.385 245.491 203.73 241.392 201.983 236.595C200.257 231.679 199.953 225.908 201.071 219.282C202.369 211.59 205.677 204.968 210.995 199.416C216.452 193.765 223.759 189.765 232.918 187.416C242.194 185.087 253.222 185.001 266.002 187.158C274.403 188.575 282.536 190.86 290.401 194.013C298.266 197.166 305.143 201.125 311.032 205.892L293.309 234.116C287.675 230.001 282.089 226.685 276.551 224.169C271.13 221.672 265.699 219.965 260.256 219.046C256.233 218.367 252.978 218.183 250.492 218.494C248.005 218.804 246.13 219.461 244.865 220.465C243.719 221.489 243.026 222.71 242.786 224.13C242.427 226.26 243.38 228.185 245.645 229.906C247.93 231.509 251.014 233.064 254.898 234.571C258.899 236.098 263.246 237.744 267.938 239.51C272.748 241.295 277.439 243.425 282.011 245.9C286.583 248.376 290.65 251.313 294.214 254.714C297.897 258.134 300.611 262.243 302.357 267.04C304.103 271.838 304.427 277.491 303.329 283.999C302.051 291.571 298.684 298.183 293.227 303.834C287.909 309.387 280.661 313.397 271.483 315.864C262.324 318.213 251.296 318.299 238.398 316.122ZM226.764 333.144L230.657 310.07L255.684 314.293L251.79 337.367L226.764 333.144ZM251.024 189.376L254.917 166.303L279.944 170.526L276.05 193.599L251.024 189.376Z" fill="white"/>
<defs>
<filter id="filter0_d_6_2656" x="84.8682" y="380.06" width="100.009" height="57.4521" filterUnits="userSpaceOnUse" color-interpolation-filters="sRGB">
<feFlood flood-opacity="0" result="BackgroundImageFix"/>
<feColorMatrix in="SourceAlpha" type="matrix" values="0 0 0 0 0 0 0 0 0 0 0 0 0 0 0 0 0 0 127 0" result="hardAlpha"/>
<feOffset dy="2"/>
<feColorMatrix type="matrix" values="0 0 0 0 0.12549 0 0 0 0 0.12549 0 0 0 0 0.12549 0 0 0 1 0"/>
<feBlend mode="normal" in2="BackgroundImageFix" result="effect1_dropShadow_6_2656"/>
<feBlend mode="normal" in="SourceGraphic" in2="effect1_dropShadow_6_2656" result="shape"/>
</filter>
<filter id="filter1_d_6_2656" x="258.265" y="410.635" width="100.009" height="57.4521" filterUnits="userSpaceOnUse" color-interpolation-filters="sRGB">
<feFlood flood-opacity="0" result="BackgroundImageFix"/>
<feColorMatrix in="SourceAlpha" type="matrix" values="0 0 0 0 0 0 0 0 0 0 0 0 0 0 0 0 0 0 127 0" result="hardAlpha"/>
<feOffset dy="2"/>
<feColorMatrix type="matrix" values="0 0 0 0 0.12549 0 0 0 0 0.12549 0 0 0 0 0.12549 0 0 0 1 0"/>
<feBlend mode="normal" in2="BackgroundImageFix" result="effect1_dropShadow_6_2656"/>
<feBlend mode="normal" in="SourceGraphic" in2="effect1_dropShadow_6_2656" result="shape"/>
</filter>
<filter id="filter2_d_6_2656" x="187.71" y="398.194" width="67.7207" height="51.7589" filterUnits="userSpaceOnUse" color-interpolation-filters="sRGB">
<feFlood flood-opacity="0" result="BackgroundImageFix"/>
<feColorMatrix in="SourceAlpha" type="matrix" values="0 0 0 0 0 0 0 0 0 0 0 0 0 0 0 0 0 0 127 0" result="hardAlpha"/>
<feOffset dy="2"/>
<feColorMatrix type="matrix" values="0 0 0 0 0.12549 0 0 0 0 0.12549 0 0 0 0 0.12549 0 0 0 1 0"/>
<feBlend mode="normal" in2="BackgroundImageFix" result="effect1_dropShadow_6_2656"/>
<feBlend mode="normal" in="SourceGraphic" in2="effect1_dropShadow_6_2656" result="shape"/>
</filter>
</defs>
</svg>
