<svg width="300" height="187" viewBox="0 0 300 187" fill="none" xmlns="http://www.w3.org/2000/svg">
<g filter="url(#filter0_d_30_5092)">
<rect width="300" height="183" rx="10" fill="#FFB0BC"/>
<rect x="1" y="1" width="298" height="181" rx="9" stroke="#1C1C1D" stroke-width="2"/>
</g>
<path d="M148.64 58L145.152 52.608L147.248 51.344L151.584 58H148.64ZM141.36 58V46.8H143.936V58H141.36ZM143.184 53.488V51.328H147.088V53.488H143.184ZM147.488 52.688L145.104 52.4L148.736 46.8H151.472L147.488 52.688ZM158.381 58.128C157.656 58.128 157.021 57.968 156.477 57.648C155.933 57.328 155.507 56.8427 155.197 56.192C154.899 55.5307 154.749 54.6987 154.749 53.696C154.749 52.6827 154.893 51.8507 155.181 51.2C155.469 50.5493 155.885 50.064 156.429 49.744C156.973 49.424 157.624 49.264 158.381 49.264C159.192 49.264 159.917 49.4507 160.557 49.824C161.208 50.1867 161.72 50.6987 162.093 51.36C162.477 52.0213 162.669 52.8 162.669 53.696C162.669 54.6027 162.477 55.3867 162.093 56.048C161.72 56.7093 161.208 57.2213 160.557 57.584C159.917 57.9467 159.192 58.128 158.381 58.128ZM153.293 61.104V49.392H155.677V51.152L155.629 53.712L155.789 56.256V61.104H153.293ZM157.949 56.08C158.365 56.08 158.733 55.984 159.053 55.792C159.384 55.6 159.645 55.328 159.837 54.976C160.04 54.6133 160.141 54.1867 160.141 53.696C160.141 53.1947 160.04 52.768 159.837 52.416C159.645 52.064 159.384 51.792 159.053 51.6C158.733 51.408 158.365 51.312 157.949 51.312C157.533 51.312 157.16 51.408 156.829 51.6C156.499 51.792 156.237 52.064 156.045 52.416C155.853 52.768 155.757 53.1947 155.757 53.696C155.757 54.1867 155.853 54.6133 156.045 54.976C156.237 55.328 156.499 55.6 156.829 55.792C157.16 55.984 157.533 56.08 157.949 56.08ZM169.127 58.128C168.145 58.128 167.281 57.936 166.535 57.552C165.799 57.168 165.228 56.6453 164.823 55.984C164.417 55.312 164.215 54.5493 164.215 53.696C164.215 52.832 164.412 52.0693 164.807 51.408C165.212 50.736 165.761 50.2133 166.455 49.84C167.148 49.456 167.932 49.264 168.807 49.264C169.649 49.264 170.407 49.4453 171.079 49.808C171.761 50.16 172.3 50.672 172.695 51.344C173.089 52.0053 173.287 52.8 173.287 53.728C173.287 53.824 173.281 53.936 173.271 54.064C173.26 54.1813 173.249 54.2933 173.239 54.4H166.247V52.944H171.927L170.967 53.376C170.967 52.928 170.876 52.5387 170.695 52.208C170.513 51.8773 170.263 51.6213 169.943 51.44C169.623 51.248 169.249 51.152 168.823 51.152C168.396 51.152 168.017 51.248 167.687 51.44C167.367 51.6213 167.116 51.8827 166.935 52.224C166.753 52.5547 166.663 52.9493 166.663 53.408V53.792C166.663 54.2613 166.764 54.6773 166.967 55.04C167.18 55.392 167.473 55.664 167.847 55.856C168.231 56.0373 168.679 56.128 169.191 56.128C169.649 56.128 170.049 56.0587 170.391 55.92C170.743 55.7813 171.063 55.5733 171.351 55.296L172.679 56.736C172.284 57.184 171.788 57.5307 171.191 57.776C170.593 58.0107 169.905 58.128 169.127 58.128ZM181.542 56.88V51.44H178.726L178.678 52.544C178.657 53.0027 178.63 53.44 178.598 53.856C178.566 54.272 178.502 54.6507 178.406 54.992C178.321 55.3227 178.193 55.6053 178.022 55.84C177.851 56.064 177.622 56.2187 177.334 56.304L174.87 55.952C175.179 55.952 175.43 55.8613 175.622 55.68C175.814 55.488 175.963 55.2267 176.07 54.896C176.177 54.5547 176.257 54.1707 176.31 53.744C176.363 53.3067 176.401 52.848 176.422 52.368L176.534 49.392H184.038V56.88H181.542ZM174.582 59.856V55.952H185.27V59.856H182.95V58H176.902V59.856H174.582ZM187.341 58V49.392H189.821V54.512L194.013 49.392H196.301V58H193.821V52.88L189.645 58H187.341ZM201.04 58V50.864L201.6 51.44H198.128V49.392H206.432V51.44H202.96L203.52 50.864V58H201.04ZM217.127 58V49.392H219.607V58H217.127ZM212.791 52.144C213.921 52.1547 214.769 52.4107 215.335 52.912C215.911 53.4027 216.199 54.1013 216.199 55.008C216.199 55.9573 215.873 56.6987 215.223 57.232C214.572 57.7547 213.649 58.016 212.455 58.016L208.263 58V49.392H210.743V52.144H212.791ZM212.231 56.24C212.711 56.2507 213.079 56.1493 213.335 55.936C213.591 55.7227 213.719 55.4027 213.719 54.976C213.719 54.5493 213.591 54.2453 213.335 54.064C213.079 53.872 212.711 53.7707 212.231 53.76L210.743 53.744V56.24H212.231ZM227.544 58V49.392H231.944C233.021 49.392 233.864 49.5893 234.472 49.984C235.08 50.368 235.384 50.912 235.384 51.616C235.384 52.32 235.096 52.8747 234.52 53.28C233.954 53.6747 233.202 53.872 232.264 53.872L232.52 53.296C233.565 53.296 234.344 53.488 234.856 53.872C235.378 54.256 235.64 54.816 235.64 55.552C235.64 56.3093 235.352 56.9067 234.776 57.344C234.2 57.7813 233.32 58 232.136 58H227.544ZM229.832 56.304H231.928C232.386 56.304 232.728 56.2293 232.952 56.08C233.186 55.92 233.304 55.68 233.304 55.36C233.304 55.0293 233.197 54.7893 232.984 54.64C232.77 54.48 232.434 54.4 231.976 54.4H229.832V56.304ZM229.832 52.928H231.72C232.157 52.928 232.482 52.848 232.696 52.688C232.92 52.528 233.032 52.2987 233.032 52C233.032 51.6907 232.92 51.4613 232.696 51.312C232.482 51.1627 232.157 51.088 231.72 51.088H229.832V52.928ZM147.12 76.88V71.44H144.304L144.256 72.544C144.235 73.0027 144.208 73.44 144.176 73.856C144.144 74.272 144.08 74.6507 143.984 74.992C143.899 75.3227 143.771 75.6053 143.6 75.84C143.429 76.064 143.2 76.2187 142.912 76.304L140.448 75.952C140.757 75.952 141.008 75.8613 141.2 75.68C141.392 75.488 141.541 75.2267 141.648 74.896C141.755 74.5547 141.835 74.1707 141.888 73.744C141.941 73.3067 141.979 72.848 142 72.368L142.112 69.392H149.616V76.88H147.12ZM140.16 79.856V75.952H150.848V79.856H148.528V78H142.48V79.856H140.16ZM157.127 78.128C156.145 78.128 155.281 77.936 154.535 77.552C153.799 77.168 153.228 76.6453 152.823 75.984C152.417 75.312 152.215 74.5493 152.215 73.696C152.215 72.832 152.412 72.0693 152.807 71.408C153.212 70.736 153.761 70.2133 154.455 69.84C155.148 69.456 155.932 69.264 156.807 69.264C157.649 69.264 158.407 69.4453 159.079 69.808C159.761 70.16 160.3 70.672 160.695 71.344C161.089 72.0053 161.287 72.8 161.287 73.728C161.287 73.824 161.281 73.936 161.271 74.064C161.26 74.1813 161.249 74.2933 161.239 74.4H154.247V72.944H159.927L158.967 73.376C158.967 72.928 158.876 72.5387 158.695 72.208C158.513 71.8773 158.263 71.6213 157.943 71.44C157.623 71.248 157.249 71.152 156.823 71.152C156.396 71.152 156.017 71.248 155.687 71.44C155.367 71.6213 155.116 71.8827 154.935 72.224C154.753 72.5547 154.663 72.9493 154.663 73.408V73.792C154.663 74.2613 154.764 74.6773 154.967 75.04C155.18 75.392 155.473 75.664 155.847 75.856C156.231 76.0373 156.679 76.128 157.191 76.128C157.649 76.128 158.049 76.0587 158.391 75.92C158.743 75.7813 159.063 75.5733 159.351 75.296L160.679 76.736C160.284 77.184 159.788 77.5307 159.191 77.776C158.593 78.0107 157.905 78.128 157.127 78.128ZM163.7 78V69.392H166.18V74.512L170.372 69.392H172.66V78H170.18V72.88L166.004 78H163.7ZM168.02 68.464C167.081 68.464 166.377 68.2613 165.908 67.856C165.439 67.44 165.199 66.816 165.188 65.984H166.82C166.831 66.3467 166.932 66.6347 167.124 66.848C167.316 67.0613 167.609 67.168 168.004 67.168C168.388 67.168 168.681 67.0613 168.884 66.848C169.097 66.6347 169.204 66.3467 169.204 65.984H170.868C170.868 66.816 170.628 67.44 170.148 67.856C169.668 68.2613 168.959 68.464 168.02 68.464ZM179.655 78.128C178.727 78.128 177.901 77.9413 177.175 77.568C176.45 77.184 175.879 76.656 175.463 75.984C175.058 75.312 174.855 74.5493 174.855 73.696C174.855 72.832 175.058 72.0693 175.463 71.408C175.879 70.736 176.45 70.2133 177.175 69.84C177.901 69.456 178.727 69.264 179.655 69.264C180.562 69.264 181.351 69.456 182.023 69.84C182.695 70.2133 183.191 70.752 183.511 71.456L181.575 72.496C181.351 72.0907 181.069 71.792 180.727 71.6C180.397 71.408 180.034 71.312 179.639 71.312C179.213 71.312 178.829 71.408 178.487 71.6C178.146 71.792 177.874 72.064 177.671 72.416C177.479 72.768 177.383 73.1947 177.383 73.696C177.383 74.1973 177.479 74.624 177.671 74.976C177.874 75.328 178.146 75.6 178.487 75.792C178.829 75.984 179.213 76.08 179.639 76.08C180.034 76.08 180.397 75.9893 180.727 75.808C181.069 75.616 181.351 75.312 181.575 74.896L183.511 75.952C183.191 76.6453 182.695 77.184 182.023 77.568C181.351 77.9413 180.562 78.128 179.655 78.128ZM187.353 78V70.864L187.913 71.44H184.441V69.392H192.745V71.44H189.273L189.833 70.864V78H187.353ZM194.575 78V69.392H198.975C200.052 69.392 200.895 69.5893 201.503 69.984C202.111 70.368 202.415 70.912 202.415 71.616C202.415 72.32 202.127 72.8747 201.551 73.28C200.986 73.6747 200.234 73.872 199.295 73.872L199.551 73.296C200.596 73.296 201.375 73.488 201.887 73.872C202.41 74.256 202.671 74.816 202.671 75.552C202.671 76.3093 202.383 76.9067 201.807 77.344C201.231 77.7813 200.351 78 199.167 78H194.575ZM196.863 76.304H198.959C199.418 76.304 199.759 76.2293 199.983 76.08C200.218 75.92 200.335 75.68 200.335 75.36C200.335 75.0293 200.228 74.7893 200.015 74.64C199.802 74.48 199.466 74.4 199.007 74.4H196.863V76.304ZM196.863 72.928H198.751C199.188 72.928 199.514 72.848 199.727 72.688C199.951 72.528 200.063 72.2987 200.063 72C200.063 71.6907 199.951 71.4613 199.727 71.312C199.514 71.1627 199.188 71.088 198.751 71.088H196.863V72.928ZM205.028 78V69.392H207.508V74.512L211.7 69.392H213.988V78H211.508V72.88L207.332 78H205.028ZM216.888 78V69.392H219.368V74.512L223.56 69.392H225.848V78H223.368V72.88L219.192 78H216.888Z" fill="white"/>
<path d="M47.744 127V115.8H52.112C53.0933 115.8 53.9307 115.955 54.624 116.264C55.3173 116.573 55.8507 117.021 56.224 117.608C56.5973 118.195 56.784 118.893 56.784 119.704C56.784 120.515 56.5973 121.213 56.224 121.8C55.8507 122.376 55.3173 122.824 54.624 123.144C53.9307 123.453 53.0933 123.608 52.112 123.608H48.624L49.344 122.856V127H47.744ZM49.344 123.016L48.624 122.216H52.064C53.088 122.216 53.8613 121.997 54.384 121.56C54.9173 121.123 55.184 120.504 55.184 119.704C55.184 118.904 54.9173 118.285 54.384 117.848C53.8613 117.411 53.088 117.192 52.064 117.192H48.624L49.344 116.392V123.016ZM64.3755 127V125.208L64.2955 124.872V121.816C64.2955 121.165 64.1035 120.664 63.7195 120.312C63.3462 119.949 62.7808 119.768 62.0235 119.768C61.5222 119.768 61.0315 119.853 60.5515 120.024C60.0715 120.184 59.6662 120.403 59.3355 120.68L58.6955 119.528C59.1328 119.176 59.6555 118.909 60.2635 118.728C60.8822 118.536 61.5275 118.44 62.1995 118.44C63.3622 118.44 64.2582 118.723 64.8875 119.288C65.5168 119.853 65.8315 120.717 65.8315 121.88V127H64.3755ZM61.5915 127.096C60.9622 127.096 60.4075 126.989 59.9275 126.776C59.4582 126.563 59.0955 126.269 58.8395 125.896C58.5835 125.512 58.4555 125.08 58.4555 124.6C58.4555 124.141 58.5622 123.725 58.7755 123.352C58.9995 122.979 59.3568 122.68 59.8475 122.456C60.3488 122.232 61.0208 122.12 61.8635 122.12H64.5515V123.224H61.9275C61.1595 123.224 60.6422 123.352 60.3755 123.608C60.1088 123.864 59.9755 124.173 59.9755 124.536C59.9755 124.952 60.1408 125.288 60.4715 125.544C60.8022 125.789 61.2608 125.912 61.8475 125.912C62.4235 125.912 62.9248 125.784 63.3515 125.528C63.7888 125.272 64.1035 124.899 64.2955 124.408L64.5995 125.464C64.3968 125.965 64.0395 126.365 63.5275 126.664C63.0155 126.952 62.3702 127.096 61.5915 127.096ZM71.4368 127.112C70.7968 127.112 70.1674 127.032 69.5488 126.872C68.9408 126.701 68.3968 126.461 67.9168 126.152L68.3808 124.984C68.7861 125.24 69.2501 125.443 69.7728 125.592C70.2954 125.731 70.8234 125.8 71.3568 125.8C71.8474 125.8 72.2688 125.741 72.6208 125.624C72.9834 125.507 73.2608 125.347 73.4528 125.144C73.6448 124.931 73.7408 124.685 73.7408 124.408C73.7408 124.013 73.5648 123.709 73.2128 123.496C72.8608 123.283 72.3701 123.176 71.7408 123.176H70.2048V122.072H71.6448C72.0181 122.072 72.3434 122.029 72.6208 121.944C72.8981 121.859 73.1114 121.731 73.2608 121.56C73.4208 121.379 73.5008 121.171 73.5008 120.936C73.5008 120.68 73.4101 120.461 73.2288 120.28C73.0474 120.099 72.7914 119.96 72.4608 119.864C72.1408 119.768 71.7621 119.72 71.3248 119.72C70.8981 119.731 70.4608 119.789 70.0128 119.896C69.5754 120.003 69.1274 120.168 68.6688 120.392L68.2528 119.192C68.7648 118.947 69.2661 118.76 69.7568 118.632C70.2581 118.493 70.7541 118.419 71.2448 118.408C71.9808 118.387 72.6368 118.472 73.2128 118.664C73.7888 118.845 74.2421 119.112 74.5728 119.464C74.9141 119.816 75.0848 120.232 75.0848 120.712C75.0848 121.117 74.9568 121.48 74.7008 121.8C74.4448 122.109 74.1034 122.355 73.6768 122.536C73.2501 122.717 72.7594 122.808 72.2048 122.808L72.2688 122.44C73.2181 122.44 73.9648 122.627 74.5088 123C75.0528 123.373 75.3248 123.88 75.3248 124.52C75.3248 125.032 75.1541 125.485 74.8128 125.88C74.4714 126.264 74.0074 126.568 73.4208 126.792C72.8448 127.005 72.1834 127.112 71.4368 127.112ZM78.1599 127V118.52H79.6959V122.12H84.5279V118.52H86.0639V127H84.5279V123.448H79.6959V127H78.1599ZM97.9345 127V118.52H99.4705V127H97.9345ZM93.3745 121.4C94.4518 121.411 95.2678 121.656 95.8225 122.136C96.3878 122.616 96.6705 123.293 96.6705 124.168C96.6705 125.085 96.3612 125.795 95.7425 126.296C95.1345 126.787 94.2598 127.027 93.1185 127.016L89.5505 127V118.52H91.0865V121.384L93.3745 121.4ZM93.0065 125.848C93.6892 125.859 94.2118 125.72 94.5745 125.432C94.9372 125.144 95.1185 124.717 95.1185 124.152C95.1185 123.597 94.9372 123.192 94.5745 122.936C94.2225 122.68 93.6998 122.547 93.0065 122.536L91.0865 122.504V125.832L93.0065 125.848ZM106.733 127.096C105.826 127.096 105.026 126.909 104.333 126.536C103.65 126.163 103.117 125.651 102.733 125C102.359 124.349 102.173 123.603 102.173 122.76C102.173 121.917 102.354 121.171 102.717 120.52C103.09 119.869 103.597 119.363 104.237 119C104.887 118.627 105.618 118.44 106.429 118.44C107.25 118.44 107.975 118.621 108.605 118.984C109.234 119.347 109.725 119.859 110.077 120.52C110.439 121.171 110.621 121.933 110.621 122.808C110.621 122.872 110.615 122.947 110.605 123.032C110.605 123.117 110.599 123.197 110.589 123.272H103.373V122.168H109.789L109.165 122.552C109.175 122.008 109.063 121.523 108.829 121.096C108.594 120.669 108.269 120.339 107.853 120.104C107.447 119.859 106.973 119.736 106.429 119.736C105.895 119.736 105.421 119.859 105.005 120.104C104.589 120.339 104.263 120.675 104.029 121.112C103.794 121.539 103.677 122.029 103.677 122.584V122.84C103.677 123.405 103.805 123.912 104.061 124.36C104.327 124.797 104.695 125.139 105.165 125.384C105.634 125.629 106.173 125.752 106.781 125.752C107.282 125.752 107.735 125.667 108.141 125.496C108.557 125.325 108.919 125.069 109.229 124.728L110.077 125.72C109.693 126.168 109.213 126.509 108.637 126.744C108.071 126.979 107.437 127.096 106.733 127.096ZM118.301 127V118.52H122.237C123.229 118.52 124.007 118.712 124.573 119.096C125.149 119.469 125.437 120.003 125.437 120.696C125.437 121.389 125.165 121.928 124.621 122.312C124.087 122.685 123.378 122.872 122.493 122.872L122.733 122.456C123.746 122.456 124.498 122.643 124.989 123.016C125.479 123.389 125.725 123.939 125.725 124.664C125.725 125.4 125.447 125.976 124.892 126.392C124.349 126.797 123.511 127 122.381 127H118.301ZM119.805 125.816H122.269C122.909 125.816 123.389 125.72 123.709 125.528C124.029 125.325 124.189 125.005 124.189 124.568C124.189 124.12 124.039 123.795 123.741 123.592C123.453 123.379 122.994 123.272 122.365 123.272H119.805V125.816ZM119.805 122.168H122.109C122.695 122.168 123.138 122.061 123.437 121.848C123.746 121.624 123.901 121.315 123.901 120.92C123.901 120.515 123.746 120.211 123.437 120.008C123.138 119.805 122.695 119.704 122.109 119.704H119.805V122.168ZM128.629 127V118.52H130.165V124.696L135.365 118.52H136.757V127H135.221V120.824L130.037 127H128.629ZM146.03 126.28V119.864H142.35L142.27 121.496C142.249 122.029 142.211 122.547 142.158 123.048C142.115 123.539 142.041 123.992 141.934 124.408C141.838 124.824 141.694 125.165 141.502 125.432C141.31 125.699 141.054 125.864 140.734 125.928L139.214 125.656C139.545 125.667 139.811 125.56 140.014 125.336C140.217 125.101 140.371 124.781 140.478 124.376C140.595 123.971 140.681 123.512 140.734 123C140.787 122.477 140.83 121.939 140.862 121.384L140.99 118.52H147.566V126.28H146.03ZM138.878 128.968V125.656H148.862V128.968H147.422V127H140.334V128.968H138.878ZM159.747 127V118.52H161.283V127H159.747ZM155.187 121.4C156.264 121.411 157.08 121.656 157.635 122.136C158.2 122.616 158.483 123.293 158.483 124.168C158.483 125.085 158.174 125.795 157.555 126.296C156.947 126.787 156.072 127.027 154.931 127.016L151.363 127V118.52H152.899V121.384L155.187 121.4ZM154.819 125.848C155.502 125.859 156.024 125.72 156.387 125.432C156.75 125.144 156.931 124.717 156.931 124.152C156.931 123.597 156.75 123.192 156.387 122.936C156.035 122.68 155.512 122.547 154.819 122.536L152.899 122.504V125.832L154.819 125.848ZM175.71 127L172.43 122.872L173.694 122.104L177.518 127H175.71ZM169.566 127V118.52H171.102V127H169.566ZM170.638 123.416V122.104H173.438V123.416H170.638ZM173.822 122.936L172.398 122.744L175.646 118.52H177.294L173.822 122.936ZM184.125 127.096C183.421 127.096 182.775 126.936 182.189 126.616C181.613 126.285 181.149 125.8 180.797 125.16C180.455 124.52 180.285 123.72 180.285 122.76C180.285 121.8 180.45 121 180.781 120.36C181.122 119.72 181.581 119.24 182.157 118.92C182.743 118.6 183.399 118.44 184.125 118.44C184.957 118.44 185.693 118.621 186.333 118.984C186.973 119.347 187.479 119.853 187.853 120.504C188.226 121.144 188.413 121.896 188.413 122.76C188.413 123.624 188.226 124.381 187.853 125.032C187.479 125.683 186.973 126.189 186.333 126.552C185.693 126.915 184.957 127.096 184.125 127.096ZM179.629 130.104V118.52H181.101V120.808L181.005 122.776L181.165 124.744V130.104H179.629ZM183.997 125.752C184.541 125.752 185.026 125.629 185.453 125.384C185.89 125.139 186.231 124.792 186.477 124.344C186.733 123.885 186.861 123.357 186.861 122.76C186.861 122.152 186.733 121.629 186.477 121.192C186.231 120.744 185.89 120.397 185.453 120.152C185.026 119.907 184.541 119.784 183.997 119.784C183.463 119.784 182.978 119.907 182.541 120.152C182.114 120.397 181.773 120.744 181.517 121.192C181.271 121.629 181.149 122.152 181.149 122.76C181.149 123.357 181.271 123.885 181.517 124.344C181.773 124.792 182.114 125.139 182.541 125.384C182.978 125.629 183.463 125.752 183.997 125.752ZM194.92 127.096C194.014 127.096 193.214 126.909 192.52 126.536C191.838 126.163 191.304 125.651 190.92 125C190.547 124.349 190.36 123.603 190.36 122.76C190.36 121.917 190.542 121.171 190.904 120.52C191.278 119.869 191.784 119.363 192.424 119C193.075 118.627 193.806 118.44 194.616 118.44C195.438 118.44 196.163 118.621 196.792 118.984C197.422 119.347 197.912 119.859 198.264 120.52C198.627 121.171 198.808 121.933 198.808 122.808C198.808 122.872 198.803 122.947 198.792 123.032C198.792 123.117 198.787 123.197 198.776 123.272H191.56V122.168H197.976L197.352 122.552C197.363 122.008 197.251 121.523 197.016 121.096C196.782 120.669 196.456 120.339 196.04 120.104C195.635 119.859 195.16 119.736 194.616 119.736C194.083 119.736 193.608 119.859 193.192 120.104C192.776 120.339 192.451 120.675 192.216 121.112C191.982 121.539 191.864 122.029 191.864 122.584V122.84C191.864 123.405 191.992 123.912 192.248 124.36C192.515 124.797 192.883 125.139 193.352 125.384C193.822 125.629 194.36 125.752 194.968 125.752C195.47 125.752 195.923 125.667 196.328 125.496C196.744 125.325 197.107 125.069 197.416 124.728L198.264 125.72C197.88 126.168 197.4 126.509 196.824 126.744C196.259 126.979 195.624 127.096 194.92 127.096ZM207.343 126.28V119.864H203.663L203.583 121.496C203.561 122.029 203.524 122.547 203.471 123.048C203.428 123.539 203.353 123.992 203.247 124.408C203.151 124.824 203.007 125.165 202.815 125.432C202.623 125.699 202.367 125.864 202.047 125.928L200.527 125.656C200.857 125.667 201.124 125.56 201.327 125.336C201.529 125.101 201.684 124.781 201.791 124.376C201.908 123.971 201.993 123.512 202.047 123C202.1 122.477 202.143 121.939 202.174 121.384L202.303 118.52H208.878V126.28H207.343ZM200.191 128.968V125.656H210.175V128.968H208.735V127H201.647V128.968H200.191ZM212.676 127V118.52H214.212V124.696L219.411 118.52H220.804V127H219.267V120.824L214.084 127H212.676ZM225.965 127V119.464L226.349 119.864H222.861V118.52H230.605V119.864H227.133L227.501 119.464V127H225.965ZM235.933 127.096C235.079 127.096 234.322 126.909 233.661 126.536C232.999 126.163 232.477 125.651 232.093 125C231.709 124.339 231.517 123.592 231.517 122.76C231.517 121.917 231.709 121.171 232.093 120.52C232.477 119.869 232.999 119.363 233.661 119C234.322 118.627 235.079 118.44 235.933 118.44C236.775 118.44 237.527 118.627 238.189 119C238.861 119.363 239.383 119.869 239.757 120.52C240.141 121.16 240.333 121.907 240.333 122.76C240.333 123.603 240.141 124.349 239.757 125C239.383 125.651 238.861 126.163 238.189 126.536C237.527 126.909 236.775 127.096 235.933 127.096ZM235.933 125.752C236.477 125.752 236.962 125.629 237.389 125.384C237.826 125.139 238.167 124.792 238.413 124.344C238.658 123.885 238.781 123.357 238.781 122.76C238.781 122.152 238.658 121.629 238.413 121.192C238.167 120.744 237.826 120.397 237.389 120.152C236.962 119.907 236.477 119.784 235.933 119.784C235.389 119.784 234.903 119.907 234.477 120.152C234.05 120.397 233.709 120.744 233.453 121.192C233.197 121.629 233.069 122.152 233.069 122.76C233.069 123.357 233.197 123.885 233.453 124.344C233.709 124.792 234.05 125.139 234.477 125.384C234.903 125.629 235.389 125.752 235.933 125.752ZM243.051 127V118.52H246.987C247.979 118.52 248.757 118.712 249.323 119.096C249.899 119.469 250.187 120.003 250.187 120.696C250.187 121.389 249.915 121.928 249.371 122.312C248.837 122.685 248.128 122.872 247.243 122.872L247.483 122.456C248.496 122.456 249.248 122.643 249.739 123.016C250.229 123.389 250.475 123.939 250.475 124.664C250.475 125.4 250.197 125.976 249.642 126.392C249.099 126.797 248.261 127 247.131 127H243.051ZM244.555 125.816H247.019C247.659 125.816 248.139 125.72 248.459 125.528C248.779 125.325 248.939 125.005 248.939 124.568C248.939 124.12 248.789 123.795 248.491 123.592C248.203 123.379 247.744 123.272 247.115 123.272H244.555V125.816ZM244.555 122.168H246.859C247.445 122.168 247.888 122.061 248.187 121.848C248.496 121.624 248.651 121.315 248.651 120.92C248.651 120.515 248.496 120.211 248.187 120.008C247.888 119.805 247.445 119.704 246.859 119.704H244.555V122.168ZM47.488 147V138.52H51.424C52.416 138.52 53.1947 138.712 53.76 139.096C54.336 139.469 54.624 140.003 54.624 140.696C54.624 141.389 54.352 141.928 53.808 142.312C53.2747 142.685 52.5653 142.872 51.68 142.872L51.92 142.456C52.9333 142.456 53.6853 142.643 54.176 143.016C54.6667 143.389 54.912 143.939 54.912 144.664C54.912 145.4 54.6347 145.976 54.08 146.392C53.536 146.797 52.6987 147 51.568 147H47.488ZM48.992 145.816H51.456C52.096 145.816 52.576 145.72 52.896 145.528C53.216 145.325 53.376 145.005 53.376 144.568C53.376 144.12 53.2267 143.795 52.928 143.592C52.64 143.379 52.1813 143.272 51.552 143.272H48.992V145.816ZM48.992 142.168H51.296C51.8827 142.168 52.3253 142.061 52.624 141.848C52.9333 141.624 53.088 141.315 53.088 140.92C53.088 140.515 52.9333 140.211 52.624 140.008C52.3253 139.805 51.8827 139.704 51.296 139.704H48.992V142.168ZM67.109 147.096C66.405 147.096 65.7597 146.936 65.173 146.616C64.597 146.285 64.133 145.8 63.781 145.16C63.4397 144.52 63.269 143.72 63.269 142.76C63.269 141.8 63.4343 141 63.765 140.36C64.1063 139.72 64.565 139.24 65.141 138.92C65.7277 138.6 66.3837 138.44 67.109 138.44C67.941 138.44 68.677 138.621 69.317 138.984C69.957 139.347 70.4637 139.853 70.837 140.504C71.2103 141.144 71.397 141.896 71.397 142.76C71.397 143.624 71.2103 144.381 70.837 145.032C70.4637 145.683 69.957 146.189 69.317 146.552C68.677 146.915 67.941 147.096 67.109 147.096ZM62.613 150.104V138.52H64.085V140.808L63.989 142.776L64.149 144.744V150.104H62.613ZM66.981 145.752C67.525 145.752 68.0103 145.629 68.437 145.384C68.8743 145.139 69.2157 144.792 69.461 144.344C69.717 143.885 69.845 143.357 69.845 142.76C69.845 142.152 69.717 141.629 69.461 141.192C69.2157 140.744 68.8743 140.397 68.437 140.152C68.0103 139.907 67.525 139.784 66.981 139.784C66.4477 139.784 65.9623 139.907 65.525 140.152C65.0983 140.397 64.757 140.744 64.501 141.192C64.2557 141.629 64.133 142.152 64.133 142.76C64.133 143.357 64.2557 143.885 64.501 144.344C64.757 144.792 65.0983 145.139 65.525 145.384C65.9623 145.629 66.4477 145.752 66.981 145.752ZM77.9046 147.096C76.998 147.096 76.198 146.909 75.5046 146.536C74.822 146.163 74.2886 145.651 73.9046 145C73.5313 144.349 73.3446 143.603 73.3446 142.76C73.3446 141.917 73.526 141.171 73.8886 140.52C74.262 139.869 74.7686 139.363 75.4086 139C76.0593 138.627 76.79 138.44 77.6006 138.44C78.422 138.44 79.1473 138.621 79.7766 138.984C80.406 139.347 80.8966 139.859 81.2486 140.52C81.6113 141.171 81.7926 141.933 81.7926 142.808C81.7926 142.872 81.7873 142.947 81.7766 143.032C81.7766 143.117 81.7713 143.197 81.7606 143.272H74.5446V142.168H80.9606L80.3366 142.552C80.3473 142.008 80.2353 141.523 80.0006 141.096C79.766 140.669 79.4406 140.339 79.0246 140.104C78.6193 139.859 78.1446 139.736 77.6006 139.736C77.0673 139.736 76.5926 139.859 76.1766 140.104C75.7606 140.339 75.4353 140.675 75.2006 141.112C74.966 141.539 74.8486 142.029 74.8486 142.584V142.84C74.8486 143.405 74.9766 143.912 75.2326 144.36C75.4993 144.797 75.8673 145.139 76.3366 145.384C76.806 145.629 77.3446 145.752 77.9526 145.752C78.454 145.752 78.9073 145.667 79.3126 145.496C79.7286 145.325 80.0913 145.069 80.4006 144.728L81.2486 145.72C80.8646 146.168 80.3846 146.509 79.8086 146.744C79.2433 146.979 78.6086 147.096 77.9046 147.096ZM89.6411 147V145.208L89.5611 144.872V141.816C89.5611 141.165 89.3691 140.664 88.9851 140.312C88.6118 139.949 88.0465 139.768 87.2891 139.768C86.7878 139.768 86.2971 139.853 85.8171 140.024C85.3371 140.184 84.9318 140.403 84.6011 140.68L83.9611 139.528C84.3985 139.176 84.9211 138.909 85.5291 138.728C86.1478 138.536 86.7931 138.44 87.4651 138.44C88.6278 138.44 89.5238 138.723 90.1531 139.288C90.7825 139.853 91.0971 140.717 91.0971 141.88V147H89.6411ZM86.8571 147.096C86.2278 147.096 85.6731 146.989 85.1931 146.776C84.7238 146.563 84.3611 146.269 84.1051 145.896C83.8491 145.512 83.7211 145.08 83.7211 144.6C83.7211 144.141 83.8278 143.725 84.0411 143.352C84.2651 142.979 84.6225 142.68 85.1131 142.456C85.6145 142.232 86.2865 142.12 87.1291 142.12H89.8171V143.224H87.1931C86.4251 143.224 85.9078 143.352 85.6411 143.608C85.3745 143.864 85.2411 144.173 85.2411 144.536C85.2411 144.952 85.4065 145.288 85.7371 145.544C86.0678 145.789 86.5265 145.912 87.1131 145.912C87.6891 145.912 88.1905 145.784 88.6171 145.528C89.0545 145.272 89.3691 144.899 89.5611 144.408L89.8651 145.464C89.6625 145.965 89.3051 146.365 88.7931 146.664C88.2811 146.952 87.6358 147.096 86.8571 147.096ZM92.955 146.984L93.051 145.688C93.1257 145.699 93.195 145.709 93.259 145.72C93.323 145.731 93.3817 145.736 93.435 145.736C93.7763 145.736 94.043 145.619 94.235 145.384C94.4377 145.149 94.587 144.84 94.683 144.456C94.779 144.061 94.8483 143.619 94.891 143.128C94.9337 142.637 94.9657 142.147 94.987 141.656L95.131 138.52H101.643V147H100.107V139.416L100.475 139.864H96.123L96.475 139.4L96.363 141.752C96.331 142.499 96.2723 143.197 96.187 143.848C96.1017 144.499 95.9683 145.069 95.787 145.56C95.6163 146.051 95.3763 146.435 95.067 146.712C94.7683 146.989 94.379 147.128 93.899 147.128C93.7603 147.128 93.611 147.112 93.451 147.08C93.3017 147.059 93.1363 147.027 92.955 146.984ZM109.033 141.4C110.11 141.411 110.932 141.656 111.497 142.136C112.062 142.616 112.345 143.293 112.345 144.168C112.345 145.085 112.036 145.795 111.417 146.296C110.798 146.787 109.924 147.027 108.793 147.016L105.113 147V138.52H106.649V141.384L109.033 141.4ZM108.665 145.848C109.358 145.859 109.881 145.72 110.233 145.432C110.596 145.144 110.777 144.717 110.777 144.152C110.777 143.597 110.601 143.192 110.249 142.936C109.897 142.68 109.369 142.547 108.665 142.536L106.649 142.504V145.832L108.665 145.848ZM114.816 147V138.52H116.352V142.12H121.184V138.52H122.72V147H121.184V143.448H116.352V147H114.816ZM134.591 147V138.52H136.127V147H134.591ZM130.031 141.4C131.108 141.411 131.924 141.656 132.479 142.136C133.044 142.616 133.327 143.293 133.327 144.168C133.327 145.085 133.017 145.795 132.399 146.296C131.791 146.787 130.916 147.027 129.775 147.016L126.207 147V138.52H127.743V141.384L130.031 141.4ZM129.663 145.848C130.345 145.859 130.868 145.72 131.231 145.432C131.593 145.144 131.775 144.717 131.775 144.152C131.775 143.597 131.593 143.192 131.231 142.936C130.879 142.68 130.356 142.547 129.663 142.536L127.743 142.504V145.832L129.663 145.848ZM138.269 147L141.917 142.264L141.901 143.048L138.429 138.52H140.141L142.797 142.008H142.141L144.797 138.52H146.477L142.957 143.08L142.973 142.264L146.653 147H144.909L142.109 143.288L142.733 143.384L139.981 147H138.269ZM157.262 147.096C156.398 147.096 155.625 146.909 154.942 146.536C154.27 146.163 153.742 145.651 153.358 145C152.974 144.349 152.782 143.603 152.782 142.76C152.782 141.917 152.974 141.171 153.358 140.52C153.742 139.869 154.27 139.363 154.942 139C155.625 138.627 156.398 138.44 157.262 138.44C158.03 138.44 158.713 138.595 159.31 138.904C159.918 139.203 160.387 139.651 160.718 140.248L159.55 141C159.273 140.584 158.931 140.28 158.526 140.088C158.131 139.885 157.705 139.784 157.246 139.784C156.691 139.784 156.195 139.907 155.758 140.152C155.321 140.397 154.974 140.744 154.718 141.192C154.462 141.629 154.334 142.152 154.334 142.76C154.334 143.368 154.462 143.896 154.718 144.344C154.974 144.792 155.321 145.139 155.758 145.384C156.195 145.629 156.691 145.752 157.246 145.752C157.705 145.752 158.131 145.656 158.526 145.464C158.931 145.261 159.273 144.952 159.55 144.536L160.718 145.272C160.387 145.859 159.918 146.312 159.31 146.632C158.713 146.941 158.03 147.096 157.262 147.096ZM163.207 147V138.52H164.743V144.696L169.943 138.52H171.335V147H169.799V140.824L164.615 147H163.207ZM176.496 147V139.464L176.88 139.864H173.392V138.52H181.136V139.864H177.664L178.032 139.464V147H176.496ZM183.639 150.2C183.233 150.2 182.839 150.131 182.455 149.992C182.071 149.864 181.74 149.672 181.463 149.416L182.119 148.264C182.332 148.467 182.567 148.621 182.823 148.728C183.079 148.835 183.351 148.888 183.639 148.888C184.012 148.888 184.321 148.792 184.567 148.6C184.812 148.408 185.041 148.067 185.255 147.576L185.783 146.408L185.943 146.216L189.271 138.52H190.775L186.663 147.848C186.417 148.445 186.14 148.915 185.831 149.256C185.532 149.597 185.201 149.837 184.839 149.976C184.476 150.125 184.076 150.2 183.639 150.2ZM185.655 147.272L181.783 138.52H183.383L186.679 146.072L185.655 147.272ZM197.782 147V145.208L197.702 144.872V141.816C197.702 141.165 197.51 140.664 197.126 140.312C196.752 139.949 196.187 139.768 195.43 139.768C194.928 139.768 194.438 139.853 193.958 140.024C193.478 140.184 193.072 140.403 192.742 140.68L192.102 139.528C192.539 139.176 193.062 138.909 193.67 138.728C194.288 138.536 194.934 138.44 195.606 138.44C196.768 138.44 197.664 138.723 198.294 139.288C198.923 139.853 199.238 140.717 199.238 141.88V147H197.782ZM194.998 147.096C194.368 147.096 193.814 146.989 193.334 146.776C192.864 146.563 192.502 146.269 192.246 145.896C191.99 145.512 191.862 145.08 191.862 144.6C191.862 144.141 191.968 143.725 192.182 143.352C192.406 142.979 192.763 142.68 193.254 142.456C193.755 142.232 194.427 142.12 195.27 142.12H197.958V143.224H195.334C194.566 143.224 194.048 143.352 193.782 143.608C193.515 143.864 193.382 144.173 193.382 144.536C193.382 144.952 193.547 145.288 193.878 145.544C194.208 145.789 194.667 145.912 195.254 145.912C195.83 145.912 196.331 145.784 196.758 145.528C197.195 145.272 197.51 144.899 197.702 144.408L198.006 145.464C197.803 145.965 197.446 146.365 196.934 146.664C196.422 146.952 195.776 147.096 194.998 147.096ZM202.504 147V138.52H204.04V145.656H208.68V138.52H210.216V147H202.504ZM210.104 148.968V146.92L210.488 147H208.68V145.656H211.56V148.968H210.104ZM214.051 147V138.52H215.587V144.696L220.786 138.52H222.179V147H220.642V140.824L215.459 147H214.051ZM231.084 147V144.024L231.324 144.312H228.62C227.489 144.312 226.604 144.072 225.964 143.592C225.335 143.112 225.02 142.413 225.02 141.496C225.02 140.515 225.356 139.773 226.028 139.272C226.711 138.771 227.617 138.52 228.748 138.52H232.46V147H231.084ZM224.94 147L227.244 143.752H228.828L226.588 147H224.94ZM231.084 143.544V139.432L231.324 139.864H228.796C228.092 139.864 227.548 139.997 227.164 140.264C226.78 140.52 226.588 140.947 226.588 141.544C226.588 142.653 227.303 143.208 228.732 143.208H231.324L231.084 143.544ZM234.613 147L238.261 142.264L238.245 143.048L234.773 138.52H236.485L239.141 142.008H238.485L241.141 138.52H242.821L239.301 143.08L239.317 142.264L242.997 147H241.253L238.453 143.288L239.077 143.384L236.325 147H234.613Z" fill="white"/>
<rect x="46" y="32" width="60" height="60" rx="10" fill="white"/>
<mask id="path-6-inside-1_30_5092" fill="white">
<rect x="66" y="47" width="30" height="22" rx="4"/>
</mask>
<rect x="66" y="47" width="30" height="22" rx="4" fill="white" stroke="#FFB0BC" stroke-width="10" mask="url(#path-6-inside-1_30_5092)"/>
<mask id="path-7-inside-2_30_5092" fill="white">
<rect x="57" y="55" width="30" height="22" rx="4"/>
</mask>
<rect x="57" y="55" width="30" height="22" rx="4" fill="white" stroke="#FFB0BC" stroke-width="10" mask="url(#path-7-inside-2_30_5092)"/>
<defs>
<filter id="filter0_d_30_5092" x="0" y="0" width="300" height="187" filterUnits="userSpaceOnUse" color-interpolation-filters="sRGB">
<feFlood flood-opacity="0" result="BackgroundImageFix"/>
<feColorMatrix in="SourceAlpha" type="matrix" values="0 0 0 0 0 0 0 0 0 0 0 0 0 0 0 0 0 0 127 0" result="hardAlpha"/>
<feOffset dy="4"/>
<feColorMatrix type="matrix" values="0 0 0 0 0.125 0 0 0 0 0.125 0 0 0 0 0.125 0 0 0 1 0"/>
<feBlend mode="normal" in2="BackgroundImageFix" result="effect1_dropShadow_30_5092"/>
<feBlend mode="normal" in="SourceGraphic" in2="effect1_dropShadow_30_5092" result="shape"/>
</filter>
</defs>
</svg>
