<svg width="300" height="187" viewBox="0 0 300 187" fill="none" xmlns="http://www.w3.org/2000/svg">
<g filter="url(#filter0_d_30_5091)">
<rect width="300" height="183" rx="10" fill="#FA6648"/>
<rect x="1" y="1" width="298" height="181" rx="9" stroke="#1C1C1D" stroke-width="2"/>
</g>
<path d="M143.504 63.328V61.344H149.04V63.328H143.504ZM144.976 56.608C145.819 56.608 146.592 56.752 147.296 57.04C148 57.3173 148.613 57.7173 149.136 58.24C149.659 58.7627 150.064 59.376 150.352 60.08C150.64 60.784 150.784 61.5573 150.784 62.4C150.784 63.2427 150.64 64.016 150.352 64.72C150.064 65.424 149.659 66.0373 149.136 66.56C148.613 67.0827 148 67.488 147.296 67.776C146.592 68.0533 145.819 68.192 144.976 68.192C143.984 68.192 143.088 68.0213 142.288 67.68C141.499 67.3387 140.837 66.8427 140.304 66.192L141.952 64.656C142.347 65.104 142.784 65.44 143.264 65.664C143.744 65.8773 144.272 65.984 144.848 65.984C145.328 65.984 145.771 65.8987 146.176 65.728C146.592 65.5467 146.944 65.3013 147.232 64.992C147.531 64.672 147.755 64.2933 147.904 63.856C148.064 63.4187 148.144 62.9333 148.144 62.4C148.144 61.8667 148.064 61.3813 147.904 60.944C147.755 60.5067 147.531 60.1333 147.232 59.824C146.944 59.504 146.592 59.2587 146.176 59.088C145.771 58.9067 145.328 58.816 144.848 58.816C144.272 58.816 143.744 58.928 143.264 59.152C142.784 59.3653 142.347 59.696 141.952 60.144L140.304 58.608C140.837 57.9573 141.499 57.4613 142.288 57.12C143.088 56.7787 143.984 56.608 144.976 56.608ZM154.868 68V60.864L155.428 61.44H151.956V59.392H160.26V61.44H156.788L157.348 60.864V68H154.868ZM167.243 68V66.32L167.083 65.952V62.944C167.083 62.4107 166.917 61.9947 166.587 61.696C166.267 61.3973 165.771 61.248 165.099 61.248C164.64 61.248 164.187 61.3227 163.739 61.472C163.301 61.6107 162.928 61.8027 162.619 62.048L161.723 60.304C162.192 59.9733 162.757 59.7173 163.419 59.536C164.08 59.3547 164.752 59.264 165.435 59.264C166.747 59.264 167.765 59.5733 168.491 60.192C169.216 60.8107 169.579 61.776 169.579 63.088V68H167.243ZM164.619 68.128C163.947 68.128 163.371 68.016 162.891 67.792C162.411 67.5573 162.043 67.2427 161.787 66.848C161.531 66.4533 161.403 66.0107 161.403 65.52C161.403 65.008 161.525 64.56 161.771 64.176C162.027 63.792 162.427 63.4933 162.971 63.28C163.515 63.056 164.224 62.944 165.099 62.944H167.387V64.4H165.371C164.784 64.4 164.379 64.496 164.155 64.688C163.941 64.88 163.835 65.12 163.835 65.408C163.835 65.728 163.957 65.984 164.203 66.176C164.459 66.3573 164.805 66.448 165.243 66.448C165.659 66.448 166.032 66.352 166.363 66.16C166.693 65.9573 166.933 65.664 167.083 65.28L167.467 66.432C167.285 66.9867 166.955 67.408 166.475 67.696C165.995 67.984 165.376 68.128 164.619 68.128ZM172.247 68V59.392H180.807V68H178.311V60.88L178.871 61.44H174.167L174.727 60.88V68H172.247ZM192.564 68V59.392H195.044V68H192.564ZM188.228 62.144C189.359 62.1547 190.207 62.4107 190.772 62.912C191.348 63.4027 191.636 64.1013 191.636 65.008C191.636 65.9573 191.311 66.6987 190.66 67.232C190.009 67.7547 189.087 68.016 187.892 68.016L183.7 68V59.392H186.18V62.144H188.228ZM187.668 66.24C188.148 66.2507 188.516 66.1493 188.772 65.936C189.028 65.7227 189.156 65.4027 189.156 64.976C189.156 64.5493 189.028 64.2453 188.772 64.064C188.516 63.872 188.148 63.7707 187.668 63.76L186.18 63.744V66.24H187.668ZM213.333 68L211.045 63.92L213.061 62.72L216.293 68H213.333ZM209.573 64.736V62.736H212.565V64.736H209.573ZM213.317 63.984L210.965 63.728L213.445 59.392H216.085L213.317 63.984ZM204.821 68H201.877L205.093 62.72L207.109 63.92L204.821 68ZM210.309 68H207.845V59.392H210.309V68ZM208.581 64.736H205.605V62.736H208.581V64.736ZM204.837 63.984L202.069 59.392H204.709L207.173 63.728L204.837 63.984ZM218.091 68V59.392H220.571V64.512L224.763 59.392H227.051V68H224.571V62.88L220.395 68H218.091ZM232.784 68.16C232.123 68.16 231.461 68.0907 230.8 67.952C230.149 67.8133 229.547 67.6053 228.992 67.328L229.664 65.584C230.101 65.7973 230.576 65.9627 231.088 66.08C231.611 66.1867 232.139 66.24 232.672 66.24C233.056 66.24 233.387 66.2027 233.664 66.128C233.952 66.0427 234.171 65.9253 234.32 65.776C234.469 65.6267 234.544 65.4453 234.544 65.232C234.544 64.9547 234.427 64.7467 234.192 64.608C233.957 64.4587 233.616 64.384 233.168 64.384H231.408V62.832H232.96C233.248 62.832 233.493 62.8 233.696 62.736C233.899 62.672 234.048 62.5813 234.144 62.464C234.251 62.336 234.304 62.1867 234.304 62.016C234.304 61.8347 234.24 61.68 234.112 61.552C233.984 61.424 233.797 61.328 233.552 61.264C233.307 61.1893 232.997 61.152 232.624 61.152C232.197 61.152 231.755 61.2053 231.296 61.312C230.837 61.408 230.368 61.552 229.888 61.744L229.28 60.016C229.845 59.7813 230.405 59.5947 230.96 59.456C231.515 59.3173 232.064 59.2427 232.608 59.232C233.408 59.2107 234.128 59.296 234.768 59.488C235.408 59.68 235.909 59.9573 236.272 60.32C236.645 60.6827 236.832 61.1253 236.832 61.648C236.832 62.064 236.704 62.4373 236.448 62.768C236.203 63.0987 235.861 63.36 235.424 63.552C234.987 63.7333 234.496 63.824 233.952 63.824L234.016 63.328C234.965 63.328 235.712 63.52 236.256 63.904C236.8 64.2773 237.072 64.7893 237.072 65.44C237.072 65.9947 236.88 66.48 236.496 66.896C236.123 67.3013 235.611 67.616 234.96 67.84C234.32 68.0533 233.595 68.16 232.784 68.16ZM239.356 68V59.392H241.836V62.752H245.58V59.392H248.076V68H245.58V64.784H241.836V68H239.356ZM250.966 68V59.392H253.446V64.512L257.638 59.392H259.926V68H257.446V62.88L253.27 68H250.966Z" fill="white"/>
<path d="M52.784 127.128C51.9307 127.128 51.136 126.984 50.4 126.696C49.6747 126.408 49.0453 126.008 48.512 125.496C47.9787 124.973 47.5627 124.365 47.264 123.672C46.9653 122.979 46.816 122.221 46.816 121.4C46.816 120.579 46.9653 119.821 47.264 119.128C47.5627 118.435 47.9787 117.832 48.512 117.32C49.0453 116.797 49.6747 116.392 50.4 116.104C51.1253 115.816 51.92 115.672 52.784 115.672C53.6373 115.672 54.4213 115.816 55.136 116.104C55.8613 116.381 56.4907 116.781 57.024 117.304C57.568 117.816 57.984 118.419 58.272 119.112C58.5707 119.805 58.72 120.568 58.72 121.4C58.72 122.232 58.5707 122.995 58.272 123.688C57.984 124.381 57.568 124.989 57.024 125.512C56.4907 126.024 55.8613 126.424 55.136 126.712C54.4213 126.989 53.6373 127.128 52.784 127.128ZM52.784 125.704C53.4027 125.704 53.9733 125.597 54.496 125.384C55.0293 125.171 55.488 124.872 55.872 124.488C56.2667 124.093 56.5707 123.635 56.784 123.112C57.008 122.589 57.12 122.019 57.12 121.4C57.12 120.781 57.008 120.211 56.784 119.688C56.5707 119.165 56.2667 118.712 55.872 118.328C55.488 117.933 55.0293 117.629 54.496 117.416C53.9733 117.203 53.4027 117.096 52.784 117.096C52.1547 117.096 51.5733 117.203 51.04 117.416C50.5173 117.629 50.0587 117.933 49.664 118.328C49.2693 118.712 48.96 119.165 48.736 119.688C48.5227 120.211 48.416 120.781 48.416 121.4C48.416 122.019 48.5227 122.589 48.736 123.112C48.96 123.635 49.2693 124.093 49.664 124.488C50.0587 124.872 50.5173 125.171 51.04 125.384C51.5733 125.597 52.1547 125.704 52.784 125.704ZM63.043 127V119.464L63.427 119.864H59.939V118.52H67.683V119.864H64.211L64.579 119.464V127H63.043ZM80.3425 126.28V119.864H76.6625L76.5825 121.496C76.5612 122.029 76.5238 122.547 76.4705 123.048C76.4278 123.539 76.3532 123.992 76.2465 124.408C76.1505 124.824 76.0065 125.165 75.8145 125.432C75.6225 125.699 75.3665 125.864 75.0465 125.928L73.5265 125.656C73.8572 125.667 74.1238 125.56 74.3265 125.336C74.5292 125.101 74.6838 124.781 74.7905 124.376C74.9078 123.971 74.9932 123.512 75.0465 123C75.0998 122.477 75.1425 121.939 75.1745 121.384L75.3025 118.52H81.8785V126.28H80.3425ZM73.1905 128.968V125.656H83.1745V128.968H81.7345V127H74.6465V128.968H73.1905ZM89.4515 127.096C88.5448 127.096 87.7448 126.909 87.0515 126.536C86.3688 126.163 85.8355 125.651 85.4515 125C85.0782 124.349 84.8915 123.603 84.8915 122.76C84.8915 121.917 85.0728 121.171 85.4355 120.52C85.8088 119.869 86.3155 119.363 86.9555 119C87.6062 118.627 88.3368 118.44 89.1475 118.44C89.9688 118.44 90.6942 118.621 91.3235 118.984C91.9528 119.347 92.4435 119.859 92.7955 120.52C93.1582 121.171 93.3395 121.933 93.3395 122.808C93.3395 122.872 93.3342 122.947 93.3235 123.032C93.3235 123.117 93.3182 123.197 93.3075 123.272H86.0915V122.168H92.5075L91.8835 122.552C91.8942 122.008 91.7822 121.523 91.5475 121.096C91.3128 120.669 90.9875 120.339 90.5715 120.104C90.1662 119.859 89.6915 119.736 89.1475 119.736C88.6142 119.736 88.1395 119.859 87.7235 120.104C87.3075 120.339 86.9822 120.675 86.7475 121.112C86.5128 121.539 86.3955 122.029 86.3955 122.584V122.84C86.3955 123.405 86.5235 123.912 86.7795 124.36C87.0462 124.797 87.4142 125.139 87.8835 125.384C88.3528 125.629 88.8915 125.752 89.4995 125.752C90.0008 125.752 90.4542 125.667 90.8595 125.496C91.2755 125.325 91.6382 125.069 91.9475 124.728L92.7955 125.72C92.4115 126.168 91.9315 126.509 91.3555 126.744C90.7902 126.979 90.1555 127.096 89.4515 127.096ZM97.543 127V119.464L97.927 119.864H94.439V118.52H102.183V119.864H98.711L99.079 119.464V127H97.543ZM107.575 127.096C106.711 127.096 105.937 126.909 105.255 126.536C104.583 126.163 104.055 125.651 103.671 125C103.287 124.349 103.095 123.603 103.095 122.76C103.095 121.917 103.287 121.171 103.671 120.52C104.055 119.869 104.583 119.363 105.255 119C105.937 118.627 106.711 118.44 107.575 118.44C108.343 118.44 109.025 118.595 109.623 118.904C110.231 119.203 110.7 119.651 111.031 120.248L109.863 121C109.585 120.584 109.244 120.28 108.839 120.088C108.444 119.885 108.017 119.784 107.559 119.784C107.004 119.784 106.508 119.907 106.071 120.152C105.633 120.397 105.287 120.744 105.031 121.192C104.775 121.629 104.647 122.152 104.647 122.76C104.647 123.368 104.775 123.896 105.031 124.344C105.287 124.792 105.633 125.139 106.071 125.384C106.508 125.629 107.004 125.752 107.559 125.752C108.017 125.752 108.444 125.656 108.839 125.464C109.244 125.261 109.585 124.952 109.863 124.536L111.031 125.272C110.7 125.859 110.231 126.312 109.623 126.632C109.025 126.941 108.343 127.096 107.575 127.096ZM115.09 127V119.464L115.474 119.864H111.986V118.52H119.73V119.864H116.258L116.626 119.464V127H115.09ZM121.801 127V118.52H125.737C126.729 118.52 127.507 118.712 128.073 119.096C128.649 119.469 128.937 120.003 128.937 120.696C128.937 121.389 128.665 121.928 128.121 122.312C127.587 122.685 126.878 122.872 125.993 122.872L126.233 122.456C127.246 122.456 127.998 122.643 128.489 123.016C128.979 123.389 129.225 123.939 129.225 124.664C129.225 125.4 128.947 125.976 128.392 126.392C127.849 126.797 127.011 127 125.881 127H121.801ZM123.305 125.816H125.769C126.409 125.816 126.889 125.72 127.209 125.528C127.529 125.325 127.689 125.005 127.689 124.568C127.689 124.12 127.539 123.795 127.241 123.592C126.953 123.379 126.494 123.272 125.865 123.272H123.305V125.816ZM123.305 122.168H125.609C126.195 122.168 126.638 122.061 126.937 121.848C127.246 121.624 127.401 121.315 127.401 120.92C127.401 120.515 127.246 120.211 126.937 120.008C126.638 119.805 126.195 119.704 125.609 119.704H123.305V122.168ZM137.329 127V125.208L137.249 124.872V121.816C137.249 121.165 137.057 120.664 136.673 120.312C136.299 119.949 135.734 119.768 134.977 119.768C134.475 119.768 133.985 119.853 133.505 120.024C133.025 120.184 132.619 120.403 132.289 120.68L131.649 119.528C132.086 119.176 132.609 118.909 133.217 118.728C133.835 118.536 134.481 118.44 135.153 118.44C136.315 118.44 137.211 118.723 137.841 119.288C138.47 119.853 138.785 120.717 138.785 121.88V127H137.329ZM134.545 127.096C133.915 127.096 133.361 126.989 132.881 126.776C132.411 126.563 132.049 126.269 131.793 125.896C131.537 125.512 131.409 125.08 131.409 124.6C131.409 124.141 131.515 123.725 131.729 123.352C131.953 122.979 132.31 122.68 132.801 122.456C133.302 122.232 133.974 122.12 134.817 122.12H137.505V123.224H134.881C134.113 123.224 133.595 123.352 133.329 123.608C133.062 123.864 132.929 124.173 132.929 124.536C132.929 124.952 133.094 125.288 133.425 125.544C133.755 125.789 134.214 125.912 134.801 125.912C135.377 125.912 135.878 125.784 136.305 125.528C136.742 125.272 137.057 124.899 137.249 124.408L137.553 125.464C137.35 125.965 136.993 126.365 136.481 126.664C135.969 126.952 135.323 127.096 134.545 127.096ZM152.639 126.28V119.864H148.959L148.879 121.496C148.858 122.029 148.821 122.547 148.767 123.048C148.725 123.539 148.65 123.992 148.543 124.408C148.447 124.824 148.303 125.165 148.111 125.432C147.919 125.699 147.663 125.864 147.343 125.928L145.823 125.656C146.154 125.667 146.421 125.56 146.623 125.336C146.826 125.101 146.981 124.781 147.087 124.376C147.205 123.971 147.29 123.512 147.343 123C147.397 122.477 147.439 121.939 147.471 121.384L147.599 118.52H154.175V126.28H152.639ZM145.487 128.968V125.656H155.471V128.968H154.031V127H146.943V128.968H145.487ZM161.604 127.096C160.751 127.096 159.994 126.909 159.332 126.536C158.671 126.163 158.148 125.651 157.764 125C157.38 124.339 157.188 123.592 157.188 122.76C157.188 121.917 157.38 121.171 157.764 120.52C158.148 119.869 158.671 119.363 159.332 119C159.994 118.627 160.751 118.44 161.604 118.44C162.447 118.44 163.199 118.627 163.86 119C164.532 119.363 165.055 119.869 165.428 120.52C165.812 121.16 166.004 121.907 166.004 122.76C166.004 123.603 165.812 124.349 165.428 125C165.055 125.651 164.532 126.163 163.86 126.536C163.199 126.909 162.447 127.096 161.604 127.096ZM161.604 125.752C162.148 125.752 162.634 125.629 163.06 125.384C163.498 125.139 163.839 124.792 164.084 124.344C164.33 123.885 164.452 123.357 164.452 122.76C164.452 122.152 164.33 121.629 164.084 121.192C163.839 120.744 163.498 120.397 163.06 120.152C162.634 119.907 162.148 119.784 161.604 119.784C161.06 119.784 160.575 119.907 160.148 120.152C159.722 120.397 159.38 120.744 159.124 121.192C158.868 121.629 158.74 122.152 158.74 122.76C158.74 123.357 158.868 123.885 159.124 124.344C159.38 124.792 159.722 125.139 160.148 125.384C160.575 125.629 161.06 125.752 161.604 125.752ZM47.488 147V138.52H51.424C52.416 138.52 53.1947 138.712 53.76 139.096C54.336 139.469 54.624 140.003 54.624 140.696C54.624 141.389 54.352 141.928 53.808 142.312C53.2747 142.685 52.5653 142.872 51.68 142.872L51.92 142.456C52.9333 142.456 53.6853 142.643 54.176 143.016C54.6667 143.389 54.912 143.939 54.912 144.664C54.912 145.4 54.6347 145.976 54.08 146.392C53.536 146.797 52.6987 147 51.568 147H47.488ZM48.992 145.816H51.456C52.096 145.816 52.576 145.72 52.896 145.528C53.216 145.325 53.376 145.005 53.376 144.568C53.376 144.12 53.2267 143.795 52.928 143.592C52.64 143.379 52.1813 143.272 51.552 143.272H48.992V145.816ZM48.992 142.168H51.296C51.8827 142.168 52.3253 142.061 52.624 141.848C52.9333 141.624 53.088 141.315 53.088 140.92C53.088 140.515 52.9333 140.211 52.624 140.008C52.3253 139.805 51.8827 139.704 51.296 139.704H48.992V142.168ZM60.2961 147.112C59.6561 147.112 59.0268 147.032 58.4081 146.872C57.8001 146.701 57.2561 146.461 56.7761 146.152L57.2401 144.984C57.6455 145.24 58.1095 145.443 58.6321 145.592C59.1548 145.731 59.6828 145.8 60.2161 145.8C60.7068 145.8 61.1281 145.741 61.4801 145.624C61.8428 145.507 62.1201 145.347 62.3121 145.144C62.5041 144.931 62.6001 144.685 62.6001 144.408C62.6001 144.013 62.4241 143.709 62.0721 143.496C61.7201 143.283 61.2295 143.176 60.6001 143.176H59.0641V142.072H60.5041C60.8775 142.072 61.2028 142.029 61.4801 141.944C61.7575 141.859 61.9708 141.731 62.1201 141.56C62.2801 141.379 62.3601 141.171 62.3601 140.936C62.3601 140.68 62.2695 140.461 62.0881 140.28C61.9068 140.099 61.6508 139.96 61.3201 139.864C61.0001 139.768 60.6215 139.72 60.1841 139.72C59.7575 139.731 59.3201 139.789 58.8721 139.896C58.4348 140.003 57.9868 140.168 57.5281 140.392L57.1121 139.192C57.6241 138.947 58.1255 138.76 58.6161 138.632C59.1175 138.493 59.6135 138.419 60.1041 138.408C60.8401 138.387 61.4961 138.472 62.0721 138.664C62.6481 138.845 63.1015 139.112 63.4321 139.464C63.7735 139.816 63.9441 140.232 63.9441 140.712C63.9441 141.117 63.8161 141.48 63.5601 141.8C63.3041 142.109 62.9628 142.355 62.5361 142.536C62.1095 142.717 61.6188 142.808 61.0641 142.808L61.1281 142.44C62.0775 142.44 62.8241 142.627 63.3681 143C63.9121 143.373 64.1841 143.88 64.1841 144.52C64.1841 145.032 64.0135 145.485 63.6721 145.88C63.3308 146.264 62.8668 146.568 62.2801 146.792C61.7041 147.005 61.0428 147.112 60.2961 147.112ZM71.5153 147.096C70.8113 147.096 70.1659 146.936 69.5793 146.616C69.0033 146.285 68.5393 145.8 68.1873 145.16C67.8459 144.52 67.6753 143.72 67.6753 142.76C67.6753 141.8 67.8406 141 68.1713 140.36C68.5126 139.72 68.9713 139.24 69.5473 138.92C70.1339 138.6 70.7899 138.44 71.5153 138.44C72.3473 138.44 73.0833 138.621 73.7233 138.984C74.3633 139.347 74.8699 139.853 75.2433 140.504C75.6166 141.144 75.8033 141.896 75.8033 142.76C75.8033 143.624 75.6166 144.381 75.2433 145.032C74.8699 145.683 74.3633 146.189 73.7233 146.552C73.0833 146.915 72.3473 147.096 71.5153 147.096ZM67.0193 150.104V138.52H68.4913V140.808L68.3953 142.776L68.5553 144.744V150.104H67.0193ZM71.3873 145.752C71.9313 145.752 72.4166 145.629 72.8433 145.384C73.2806 145.139 73.6219 144.792 73.8673 144.344C74.1233 143.885 74.2513 143.357 74.2513 142.76C74.2513 142.152 74.1233 141.629 73.8673 141.192C73.6219 140.744 73.2806 140.397 72.8433 140.152C72.4166 139.907 71.9313 139.784 71.3873 139.784C70.8539 139.784 70.3686 139.907 69.9313 140.152C69.5046 140.397 69.1633 140.744 68.9073 141.192C68.6619 141.629 68.5393 142.152 68.5393 142.76C68.5393 143.357 68.6619 143.885 68.9073 144.344C69.1633 144.792 69.5046 145.139 69.9313 145.384C70.3686 145.629 70.8539 145.752 71.3873 145.752ZM82.1669 147.096C81.3135 147.096 80.5562 146.909 79.8949 146.536C79.2335 146.163 78.7109 145.651 78.3269 145C77.9429 144.339 77.7509 143.592 77.7509 142.76C77.7509 141.917 77.9429 141.171 78.3269 140.52C78.7109 139.869 79.2335 139.363 79.8949 139C80.5562 138.627 81.3135 138.44 82.1669 138.44C83.0095 138.44 83.7615 138.627 84.4229 139C85.0949 139.363 85.6175 139.869 85.9909 140.52C86.3749 141.16 86.5669 141.907 86.5669 142.76C86.5669 143.603 86.3749 144.349 85.9909 145C85.6175 145.651 85.0949 146.163 84.4229 146.536C83.7615 146.909 83.0095 147.096 82.1669 147.096ZM82.1669 145.752C82.7109 145.752 83.1962 145.629 83.6229 145.384C84.0602 145.139 84.4015 144.792 84.6469 144.344C84.8922 143.885 85.0149 143.357 85.0149 142.76C85.0149 142.152 84.8922 141.629 84.6469 141.192C84.4015 140.744 84.0602 140.397 83.6229 140.152C83.1962 139.907 82.7109 139.784 82.1669 139.784C81.6229 139.784 81.1375 139.907 80.7109 140.152C80.2842 140.397 79.9429 140.744 79.6869 141.192C79.4309 141.629 79.3029 142.152 79.3029 142.76C79.3029 143.357 79.4309 143.885 79.6869 144.344C79.9429 144.792 80.2842 145.139 80.7109 145.384C81.1375 145.629 81.6229 145.752 82.1669 145.752ZM92.9809 147.096C92.1169 147.096 91.3435 146.909 90.6609 146.536C89.9889 146.163 89.4609 145.651 89.0769 145C88.6929 144.349 88.5009 143.603 88.5009 142.76C88.5009 141.917 88.6929 141.171 89.0769 140.52C89.4609 139.869 89.9889 139.363 90.6609 139C91.3435 138.627 92.1169 138.44 92.9809 138.44C93.7489 138.44 94.4315 138.595 95.0289 138.904C95.6369 139.203 96.1062 139.651 96.4369 140.248L95.2689 141C94.9915 140.584 94.6502 140.28 94.2449 140.088C93.8502 139.885 93.4235 139.784 92.9649 139.784C92.4102 139.784 91.9142 139.907 91.4769 140.152C91.0395 140.397 90.6929 140.744 90.4369 141.192C90.1809 141.629 90.0529 142.152 90.0529 142.76C90.0529 143.368 90.1809 143.896 90.4369 144.344C90.6929 144.792 91.0395 145.139 91.4769 145.384C91.9142 145.629 92.4102 145.752 92.9649 145.752C93.4235 145.752 93.8502 145.656 94.2449 145.464C94.6502 145.261 94.9915 144.952 95.2689 144.536L96.4369 145.272C96.1062 145.859 95.6369 146.312 95.0289 146.632C94.4315 146.941 93.7489 147.096 92.9809 147.096ZM97.2675 146.984L97.3635 145.688C97.4382 145.699 97.5075 145.709 97.5715 145.72C97.6355 145.731 97.6942 145.736 97.7475 145.736C98.0888 145.736 98.3555 145.619 98.5475 145.384C98.7502 145.149 98.8995 144.84 98.9955 144.456C99.0915 144.061 99.1608 143.619 99.2035 143.128C99.2462 142.637 99.2782 142.147 99.2995 141.656L99.4435 138.52H105.956V147H104.42V139.416L104.788 139.864H100.436L100.788 139.4L100.676 141.752C100.644 142.499 100.585 143.197 100.5 143.848C100.414 144.499 100.281 145.069 100.1 145.56C99.9288 146.051 99.6888 146.435 99.3795 146.712C99.0808 146.989 98.6915 147.128 98.2115 147.128C98.0728 147.128 97.9235 147.112 97.7635 147.08C97.6142 147.059 97.4488 147.027 97.2675 146.984ZM113.058 147.096C112.204 147.096 111.447 146.909 110.786 146.536C110.124 146.163 109.602 145.651 109.218 145C108.834 144.339 108.642 143.592 108.642 142.76C108.642 141.917 108.834 141.171 109.218 140.52C109.602 139.869 110.124 139.363 110.786 139C111.447 138.627 112.204 138.44 113.058 138.44C113.9 138.44 114.652 138.627 115.314 139C115.986 139.363 116.508 139.869 116.882 140.52C117.266 141.16 117.458 141.907 117.458 142.76C117.458 143.603 117.266 144.349 116.882 145C116.508 145.651 115.986 146.163 115.314 146.536C114.652 146.909 113.9 147.096 113.058 147.096ZM113.058 145.752C113.602 145.752 114.087 145.629 114.514 145.384C114.951 145.139 115.292 144.792 115.538 144.344C115.783 143.885 115.906 143.357 115.906 142.76C115.906 142.152 115.783 141.629 115.538 141.192C115.292 140.744 114.951 140.397 114.514 140.152C114.087 139.907 113.602 139.784 113.058 139.784C112.514 139.784 112.028 139.907 111.602 140.152C111.175 140.397 110.834 140.744 110.578 141.192C110.322 141.629 110.194 142.152 110.194 142.76C110.194 143.357 110.322 143.885 110.578 144.344C110.834 144.792 111.175 145.139 111.602 145.384C112.028 145.629 112.514 145.752 113.058 145.752ZM120.176 147V138.52H121.712V144.696L126.911 138.52H128.304V147H126.767V140.824L121.584 147H120.176ZM124.144 137.416C123.365 137.416 122.752 137.229 122.304 136.856C121.866 136.472 121.642 135.923 121.632 135.208H122.672C122.682 135.613 122.816 135.933 123.072 136.168C123.338 136.403 123.69 136.52 124.128 136.52C124.565 136.52 124.917 136.403 125.184 136.168C125.45 135.933 125.589 135.613 125.6 135.208H126.672C126.661 135.923 126.432 136.472 125.984 136.856C125.536 137.229 124.922 137.416 124.144 137.416ZM146.646 147L143.942 142.872L145.206 142.104L148.47 147H146.646ZM142.182 143.416V142.104H144.934V143.416H142.182ZM145.35 142.936L143.894 142.744L146.598 138.52H148.246L145.35 142.936ZM137.126 147H135.302L138.55 142.104L139.814 142.872L137.126 147ZM142.646 147H141.11V138.52H142.646V147ZM141.574 143.416H138.838V142.104H141.574V143.416ZM138.422 142.936L135.526 138.52H137.158L139.862 142.744L138.422 142.936ZM150.66 147V138.52H152.196V144.696L157.396 138.52H158.788V147H157.252V140.824L152.068 147H150.66ZM164.609 147.112C163.969 147.112 163.339 147.032 162.721 146.872C162.113 146.701 161.569 146.461 161.089 146.152L161.553 144.984C161.958 145.24 162.422 145.443 162.945 145.592C163.467 145.731 163.995 145.8 164.529 145.8C165.019 145.8 165.441 145.741 165.793 145.624C166.155 145.507 166.433 145.347 166.625 145.144C166.817 144.931 166.913 144.685 166.913 144.408C166.913 144.013 166.737 143.709 166.385 143.496C166.033 143.283 165.542 143.176 164.913 143.176H163.377V142.072H164.817C165.19 142.072 165.515 142.029 165.793 141.944C166.07 141.859 166.283 141.731 166.433 141.56C166.593 141.379 166.673 141.171 166.673 140.936C166.673 140.68 166.582 140.461 166.401 140.28C166.219 140.099 165.963 139.96 165.633 139.864C165.313 139.768 164.934 139.72 164.497 139.72C164.07 139.731 163.633 139.789 163.185 139.896C162.747 140.003 162.299 140.168 161.841 140.392L161.425 139.192C161.937 138.947 162.438 138.76 162.929 138.632C163.43 138.493 163.926 138.419 164.417 138.408C165.153 138.387 165.809 138.472 166.385 138.664C166.961 138.845 167.414 139.112 167.745 139.464C168.086 139.816 168.257 140.232 168.257 140.712C168.257 141.117 168.129 141.48 167.873 141.8C167.617 142.109 167.275 142.355 166.849 142.536C166.422 142.717 165.931 142.808 165.377 142.808L165.441 142.44C166.39 142.44 167.137 142.627 167.681 143C168.225 143.373 168.497 143.88 168.497 144.52C168.497 145.032 168.326 145.485 167.985 145.88C167.643 146.264 167.179 146.568 166.593 146.792C166.017 147.005 165.355 147.112 164.609 147.112ZM171.332 147V138.52H172.868V142.12H177.7V138.52H179.236V147H177.7V143.448H172.868V147H171.332ZM182.722 147V138.52H184.258V144.696L189.458 138.52H190.85V147H189.314V140.824L184.13 147H182.722Z" fill="white"/>
<rect x="46" y="32" width="60" height="60" rx="10" fill="white"/>
<path d="M72.5 75V52.752L76.136 56.208H68.18V49.8H80.996V75H72.5Z" fill="#FA6648"/>
<defs>
<filter id="filter0_d_30_5091" x="0" y="0" width="300" height="187" filterUnits="userSpaceOnUse" color-interpolation-filters="sRGB">
<feFlood flood-opacity="0" result="BackgroundImageFix"/>
<feColorMatrix in="SourceAlpha" type="matrix" values="0 0 0 0 0 0 0 0 0 0 0 0 0 0 0 0 0 0 127 0" result="hardAlpha"/>
<feOffset dy="4"/>
<feColorMatrix type="matrix" values="0 0 0 0 0.125 0 0 0 0 0.125 0 0 0 0 0.125 0 0 0 1 0"/>
<feBlend mode="normal" in2="BackgroundImageFix" result="effect1_dropShadow_30_5091"/>
<feBlend mode="normal" in="SourceGraphic" in2="effect1_dropShadow_30_5091" result="shape"/>
</filter>
</defs>
</svg>
