<svg width="1440" height="810" viewBox="0 0 1440 810" fill="none" xmlns="http://www.w3.org/2000/svg">
<g clip-path="url(#clip0_40_184)">
<rect width="1440" height="810" fill="#7711DD"/>
<ellipse cx="720" cy="837" rx="1050" ry="150" fill="#FFBD12"/>
<mask id="path-2-inside-1_40_184" fill="white">
<path fill-rule="evenodd" clip-rule="evenodd" d="M1564.95 -35.6908C1588.65 -24.2711 1605 -0.0222702 1605 28.0464C1605 54.2515 1590.75 77.1272 1569.57 89.342C1567.81 126.832 1536.86 156.688 1498.94 156.688C1495.11 156.688 1491.35 156.384 1487.69 155.799C1474.76 169.956 1456.15 178.838 1435.47 178.838C1421.66 178.838 1408.77 174.879 1397.88 168.034C1385.18 186.885 1363.64 199.284 1339.2 199.284C1310.14 199.284 1285.17 181.751 1274.3 156.686C1224.93 156.373 1185 116.254 1185 66.8092C1185 17.1708 1225.24 -23.0691 1274.88 -23.0691C1275.75 -23.0691 1276.63 -23.0566 1277.5 -23.0317C1285.84 -52.7892 1313.17 -74.6107 1345.59 -74.6107C1369.01 -74.6107 1389.77 -63.2231 1402.64 -45.6826C1408.62 -47.3242 1414.91 -48.201 1421.41 -48.201C1427.13 -48.201 1432.7 -47.5206 1438.03 -46.2365C1450.34 -67.0451 1473.01 -81 1498.94 -81C1529.03 -81 1554.74 -62.1938 1564.95 -35.6908Z"/>
</mask>
<path fill-rule="evenodd" clip-rule="evenodd" d="M1564.95 -35.6908C1588.65 -24.2711 1605 -0.0222702 1605 28.0464C1605 54.2515 1590.75 77.1272 1569.57 89.342C1567.81 126.832 1536.86 156.688 1498.94 156.688C1495.11 156.688 1491.35 156.384 1487.69 155.799C1474.76 169.956 1456.15 178.838 1435.47 178.838C1421.66 178.838 1408.77 174.879 1397.88 168.034C1385.18 186.885 1363.64 199.284 1339.2 199.284C1310.14 199.284 1285.17 181.751 1274.3 156.686C1224.93 156.373 1185 116.254 1185 66.8092C1185 17.1708 1225.24 -23.0691 1274.88 -23.0691C1275.75 -23.0691 1276.63 -23.0566 1277.5 -23.0317C1285.84 -52.7892 1313.17 -74.6107 1345.59 -74.6107C1369.01 -74.6107 1389.77 -63.2231 1402.64 -45.6826C1408.62 -47.3242 1414.91 -48.201 1421.41 -48.201C1427.13 -48.201 1432.7 -47.5206 1438.03 -46.2365C1450.34 -67.0451 1473.01 -81 1498.94 -81C1529.03 -81 1554.74 -62.1938 1564.95 -35.6908Z" fill="#7711DD"/>
<path d="M1564.95 -35.6908L1562.15 -34.6128L1562.57 -33.504L1563.64 -32.9882L1564.95 -35.6908ZM1569.57 89.342L1568.07 86.7433L1566.65 87.5629L1566.57 89.2016L1569.57 89.342ZM1487.69 155.799L1488.16 152.836L1486.57 152.581L1485.48 153.776L1487.69 155.799ZM1397.88 168.034L1399.48 165.494L1397.02 163.947L1395.4 166.358L1397.88 168.034ZM1274.3 156.686L1277.05 155.492L1276.27 153.698L1274.32 153.686L1274.3 156.686ZM1277.5 -23.0317L1277.41 -20.0329L1279.75 -19.9659L1280.39 -22.2218L1277.5 -23.0317ZM1402.64 -45.6826L1400.22 -43.9081L1401.44 -42.2427L1403.43 -42.7897L1402.64 -45.6826ZM1438.03 -46.2365L1437.33 -43.3199L1439.48 -42.8005L1440.61 -44.7092L1438.03 -46.2365ZM1608 28.0464C1608 -1.21761 1590.95 -26.4927 1566.25 -38.3934L1563.64 -32.9882C1586.34 -22.0496 1602 1.17307 1602 28.0464H1608ZM1571.07 91.9408C1593.13 79.2122 1608 55.3671 1608 28.0464H1602C1602 53.1359 1588.36 75.0421 1568.07 86.7433L1571.07 91.9408ZM1498.94 159.688C1538.47 159.688 1570.73 128.565 1572.56 89.4824L1566.57 89.2016C1564.89 125.099 1535.25 153.688 1498.94 153.688V159.688ZM1487.22 158.761C1491.04 159.371 1494.95 159.688 1498.94 159.688V153.688C1495.27 153.688 1491.67 153.396 1488.16 152.836L1487.22 158.761ZM1435.47 181.838C1457.03 181.838 1476.43 172.576 1489.91 157.822L1485.48 153.776C1473.09 167.337 1455.27 175.838 1435.47 175.838V181.838ZM1396.29 170.574C1407.64 177.711 1421.08 181.838 1435.47 181.838V175.838C1422.24 175.838 1409.9 172.047 1399.48 165.494L1396.29 170.574ZM1339.2 202.284C1364.68 202.284 1387.14 189.354 1400.37 169.71L1395.4 166.358C1383.23 184.417 1362.6 196.284 1339.2 196.284V202.284ZM1271.55 157.879C1282.88 184.002 1308.9 202.284 1339.2 202.284V196.284C1311.37 196.284 1287.46 179.5 1277.05 155.492L1271.55 157.879ZM1182 66.8092C1182 117.904 1223.26 159.363 1274.28 159.686L1274.32 153.686C1226.59 153.384 1188 114.603 1188 66.8092H1182ZM1274.88 -26.0691C1223.58 -26.0691 1182 15.5139 1182 66.8092H1188C1188 18.8276 1226.9 -20.0691 1274.88 -20.0691V-26.0691ZM1277.58 -26.0305C1276.68 -26.0562 1275.78 -26.0691 1274.88 -26.0691V-20.0691C1275.73 -20.0691 1276.57 -20.057 1277.41 -20.0329L1277.58 -26.0305ZM1345.59 -77.6107C1311.79 -77.6107 1283.31 -54.8601 1274.61 -23.8416L1280.39 -22.2218C1288.38 -50.7182 1314.55 -71.6107 1345.59 -71.6107V-77.6107ZM1405.06 -47.4571C1391.65 -65.7349 1370.01 -77.6107 1345.59 -77.6107V-71.6107C1368.01 -71.6107 1387.89 -60.7114 1400.22 -43.9081L1405.06 -47.4571ZM1421.41 -51.201C1414.64 -51.201 1408.08 -50.2875 1401.85 -48.5755L1403.43 -42.7897C1409.15 -44.3609 1415.18 -45.201 1421.41 -45.201V-51.201ZM1438.73 -49.153C1433.17 -50.4922 1427.37 -51.201 1421.41 -51.201V-45.201C1426.9 -45.201 1432.23 -44.5491 1437.33 -43.3199L1438.73 -49.153ZM1440.61 -44.7092C1452.4 -64.6428 1474.11 -78 1498.94 -78V-84C1471.9 -84 1448.27 -69.4474 1435.45 -47.7638L1440.61 -44.7092ZM1498.94 -78C1527.75 -78 1552.37 -59.9964 1562.15 -34.6128L1567.75 -36.7688C1557.11 -64.3913 1530.32 -84 1498.94 -84V-78Z" fill="black" mask="url(#path-2-inside-1_40_184)"/>
<mask id="path-4-inside-2_40_184" fill="white">
<path fill-rule="evenodd" clip-rule="evenodd" d="M612.946 -109.691C636.645 -98.2711 653 -74.0223 653 -45.9536C653 -19.7485 638.745 3.12715 617.566 15.342C615.81 52.8319 584.859 82.6878 546.935 82.6878C543.109 82.6878 539.353 82.3838 535.692 81.7988C522.761 95.9564 504.151 104.838 483.467 104.838C469.656 104.838 456.771 100.879 445.883 94.0339C433.183 112.885 411.639 125.284 387.199 125.284C358.136 125.284 333.169 107.751 322.297 82.6857C272.926 82.3732 233 42.2538 233 -7.1908C233 -56.8292 273.24 -97.0691 322.878 -97.0691C323.754 -97.0691 324.627 -97.0566 325.497 -97.0317C333.84 -126.789 361.166 -148.611 393.588 -148.611C417.01 -148.611 437.772 -137.223 450.639 -119.683C456.617 -121.324 462.911 -122.201 469.41 -122.201C475.134 -122.201 480.7 -121.521 486.031 -120.236C498.339 -141.045 521.007 -155 546.935 -155C577.034 -155 602.741 -136.194 612.946 -109.691Z"/>
</mask>
<path fill-rule="evenodd" clip-rule="evenodd" d="M612.946 -109.691C636.645 -98.2711 653 -74.0223 653 -45.9536C653 -19.7485 638.745 3.12715 617.566 15.342C615.81 52.8319 584.859 82.6878 546.935 82.6878C543.109 82.6878 539.353 82.3838 535.692 81.7988C522.761 95.9564 504.151 104.838 483.467 104.838C469.656 104.838 456.771 100.879 445.883 94.0339C433.183 112.885 411.639 125.284 387.199 125.284C358.136 125.284 333.169 107.751 322.297 82.6857C272.926 82.3732 233 42.2538 233 -7.1908C233 -56.8292 273.24 -97.0691 322.878 -97.0691C323.754 -97.0691 324.627 -97.0566 325.497 -97.0317C333.84 -126.789 361.166 -148.611 393.588 -148.611C417.01 -148.611 437.772 -137.223 450.639 -119.683C456.617 -121.324 462.911 -122.201 469.41 -122.201C475.134 -122.201 480.7 -121.521 486.031 -120.236C498.339 -141.045 521.007 -155 546.935 -155C577.034 -155 602.741 -136.194 612.946 -109.691Z" fill="#7711DD"/>
<path d="M612.946 -109.691L610.146 -108.613L610.573 -107.504L611.643 -106.988L612.946 -109.691ZM617.566 15.342L616.068 12.7433L614.646 13.5629L614.57 15.2016L617.566 15.342ZM535.692 81.7988L536.165 78.8364L534.567 78.5811L533.476 79.7757L535.692 81.7988ZM445.883 94.0339L447.48 91.4941L445.019 89.9471L443.395 92.3576L445.883 94.0339ZM322.297 82.6857L325.05 81.4919L324.272 79.6981L322.316 79.6857L322.297 82.6857ZM325.497 -97.0317L325.411 -94.0329L327.753 -93.9659L328.385 -96.2218L325.497 -97.0317ZM450.639 -119.683L448.221 -117.908L449.442 -116.243L451.434 -116.79L450.639 -119.683ZM486.031 -120.236L485.328 -117.32L487.484 -116.801L488.613 -118.709L486.031 -120.236ZM656 -45.9536C656 -75.2176 638.946 -100.493 614.248 -112.393L611.643 -106.988C634.345 -96.0496 650 -72.8269 650 -45.9536H656ZM619.065 17.9408C641.135 5.21217 656 -18.6329 656 -45.9536H650C650 -20.8641 636.355 1.04213 616.068 12.7433L619.065 17.9408ZM546.935 85.6878C586.469 85.6878 618.733 54.5652 620.563 15.4824L614.57 15.2016C612.888 51.0986 583.25 79.6878 546.935 79.6878V85.6878ZM535.218 84.7612C539.036 85.3712 542.95 85.6878 546.935 85.6878V79.6878C543.268 79.6878 539.671 79.3965 536.165 78.8364L535.218 84.7612ZM483.467 107.838C505.029 107.838 524.432 98.5756 537.907 83.8219L533.476 79.7757C521.091 93.3371 503.273 101.838 483.467 101.838V107.838ZM444.287 96.5736C455.639 103.711 469.075 107.838 483.467 107.838V101.838C470.238 101.838 457.903 98.0473 447.48 91.4941L444.287 96.5736ZM387.199 128.284C412.679 128.284 435.137 115.354 448.371 95.7101L443.395 92.3576C431.229 110.417 410.599 122.284 387.199 122.284V128.284ZM319.545 83.8794C330.875 110.002 356.899 128.284 387.199 128.284V122.284C359.374 122.284 335.463 105.5 325.05 81.4919L319.545 83.8794ZM230 -7.1908C230 43.9043 271.259 85.3627 322.278 85.6856L322.316 79.6857C274.594 79.3837 236 40.6033 236 -7.1908H230ZM322.878 -100.069C271.583 -100.069 230 -58.4861 230 -7.1908H236C236 -55.1724 274.897 -94.0691 322.878 -94.0691V-100.069ZM325.583 -100.03C324.684 -100.056 323.783 -100.069 322.878 -100.069V-94.0691C323.725 -94.0691 324.57 -94.057 325.411 -94.0329L325.583 -100.03ZM393.588 -151.611C359.786 -151.611 331.305 -128.86 322.608 -97.8416L328.385 -96.2218C336.375 -124.718 362.546 -145.611 393.588 -145.611V-151.611ZM453.058 -121.457C439.65 -139.735 418.006 -151.611 393.588 -151.611V-145.611C416.014 -145.611 435.894 -134.711 448.221 -117.908L453.058 -121.457ZM469.41 -125.201C462.64 -125.201 456.079 -124.288 449.845 -122.576L451.434 -116.79C457.155 -118.361 463.182 -119.201 469.41 -119.201V-125.201ZM486.733 -123.153C481.175 -124.492 475.373 -125.201 469.41 -125.201V-119.201C474.896 -119.201 480.226 -118.549 485.328 -117.32L486.733 -123.153ZM488.613 -118.709C500.403 -138.643 522.111 -152 546.935 -152V-158C519.904 -158 496.274 -143.447 483.449 -121.764L488.613 -118.709ZM546.935 -152C575.752 -152 600.372 -133.996 610.146 -108.613L615.745 -110.769C605.109 -138.391 578.316 -158 546.935 -158V-152Z" fill="black" mask="url(#path-4-inside-2_40_184)"/>
<mask id="path-6-inside-3_40_184" fill="white">
<path fill-rule="evenodd" clip-rule="evenodd" d="M169.946 -35.6908C193.645 -24.2711 210 -0.0222702 210 28.0464C210 54.2515 195.745 77.1272 174.566 89.342C172.81 126.832 141.859 156.688 103.935 156.688C100.109 156.688 96.3532 156.384 92.6916 155.799C79.7614 169.956 61.1512 178.838 40.4666 178.838C26.6564 178.838 13.771 174.879 2.88327 168.034C-9.81723 186.885 -31.3612 199.284 -55.8012 199.284C-84.8636 199.284 -109.831 181.751 -120.703 156.686C-170.074 156.373 -210 116.254 -210 66.8092C-210 17.1708 -169.76 -23.0691 -120.122 -23.0691C-119.246 -23.0691 -118.373 -23.0566 -117.503 -23.0317C-109.16 -52.7892 -81.8341 -74.6107 -49.4117 -74.6107C-25.9901 -74.6107 -5.22818 -63.2231 7.6395 -45.6826C13.6169 -47.3242 19.9109 -48.201 26.4097 -48.201C32.1345 -48.201 37.7003 -47.5206 43.0309 -46.2365C55.3389 -67.0451 78.0073 -81 103.935 -81C134.034 -81 159.741 -62.1938 169.946 -35.6908Z"/>
</mask>
<path fill-rule="evenodd" clip-rule="evenodd" d="M169.946 -35.6908C193.645 -24.2711 210 -0.0222702 210 28.0464C210 54.2515 195.745 77.1272 174.566 89.342C172.81 126.832 141.859 156.688 103.935 156.688C100.109 156.688 96.3532 156.384 92.6916 155.799C79.7614 169.956 61.1512 178.838 40.4666 178.838C26.6564 178.838 13.771 174.879 2.88327 168.034C-9.81723 186.885 -31.3612 199.284 -55.8012 199.284C-84.8636 199.284 -109.831 181.751 -120.703 156.686C-170.074 156.373 -210 116.254 -210 66.8092C-210 17.1708 -169.76 -23.0691 -120.122 -23.0691C-119.246 -23.0691 -118.373 -23.0566 -117.503 -23.0317C-109.16 -52.7892 -81.8341 -74.6107 -49.4117 -74.6107C-25.9901 -74.6107 -5.22818 -63.2231 7.6395 -45.6826C13.6169 -47.3242 19.9109 -48.201 26.4097 -48.201C32.1345 -48.201 37.7003 -47.5206 43.0309 -46.2365C55.3389 -67.0451 78.0073 -81 103.935 -81C134.034 -81 159.741 -62.1938 169.946 -35.6908Z" fill="#7711DD"/>
<path d="M169.946 -35.6908L167.146 -34.6128L167.573 -33.504L168.643 -32.9882L169.946 -35.6908ZM174.566 89.342L173.068 86.7433L171.646 87.5629L171.57 89.2016L174.566 89.342ZM92.6916 155.799L93.165 152.836L91.5674 152.581L90.4765 153.776L92.6916 155.799ZM2.88327 168.034L4.48001 165.494L2.01931 163.947L0.395255 166.358L2.88327 168.034ZM-120.703 156.686L-117.95 155.492L-118.728 153.698L-120.684 153.686L-120.703 156.686ZM-117.503 -23.0317L-117.589 -20.0329L-115.247 -19.9659L-114.615 -22.2218L-117.503 -23.0317ZM7.6395 -45.6826L5.22059 -43.9081L6.4423 -42.2427L8.43399 -42.7897L7.6395 -45.6826ZM43.0309 -46.2365L42.3282 -43.3199L44.4841 -42.8005L45.613 -44.7092L43.0309 -46.2365ZM213 28.0464C213 -1.21761 195.946 -26.4927 171.248 -38.3934L168.643 -32.9882C191.345 -22.0496 207 1.17307 207 28.0464H213ZM176.065 91.9408C198.135 79.2122 213 55.3671 213 28.0464H207C207 53.1359 193.355 75.0421 173.068 86.7433L176.065 91.9408ZM103.935 159.688C143.469 159.688 175.733 128.565 177.563 89.4824L171.57 89.2016C169.888 125.099 140.25 153.688 103.935 153.688V159.688ZM92.2183 158.761C96.0359 159.371 99.9496 159.688 103.935 159.688V153.688C100.268 153.688 96.6706 153.396 93.165 152.836L92.2183 158.761ZM40.4666 181.838C62.0288 181.838 81.4321 172.576 94.9068 157.822L90.4765 153.776C78.0906 167.337 60.2735 175.838 40.4666 175.838V181.838ZM1.28653 170.574C12.6385 177.711 26.0751 181.838 40.4666 181.838V175.838C27.2377 175.838 14.9035 172.047 4.48001 165.494L1.28653 170.574ZM-55.8012 202.284C-30.3215 202.284 -7.86299 189.354 5.37129 169.71L0.395255 166.358C-11.7715 184.417 -32.4009 196.284 -55.8012 196.284V202.284ZM-123.455 157.879C-112.125 184.002 -86.1013 202.284 -55.8012 202.284V196.284C-83.6259 196.284 -107.537 179.5 -117.95 155.492L-123.455 157.879ZM-213 66.8092C-213 117.904 -171.741 159.363 -120.722 159.686L-120.684 153.686C-168.406 153.384 -207 114.603 -207 66.8092H-213ZM-120.122 -26.0691C-171.417 -26.0691 -213 15.5139 -213 66.8092H-207C-207 18.8276 -168.103 -20.0691 -120.122 -20.0691V-26.0691ZM-117.417 -26.0305C-118.316 -26.0562 -119.217 -26.0691 -120.122 -26.0691V-20.0691C-119.275 -20.0691 -118.43 -20.057 -117.589 -20.0329L-117.417 -26.0305ZM-49.4117 -77.6107C-83.214 -77.6107 -111.695 -54.8601 -120.392 -23.8416L-114.615 -22.2218C-106.625 -50.7182 -80.4542 -71.6107 -49.4117 -71.6107V-77.6107ZM10.0584 -47.4571C-3.35009 -65.7349 -24.9943 -77.6107 -49.4117 -77.6107V-71.6107C-26.986 -71.6107 -7.10627 -60.7114 5.22059 -43.9081L10.0584 -47.4571ZM26.4097 -51.201C19.64 -51.201 13.0789 -50.2875 6.84501 -48.5755L8.43399 -42.7897C14.155 -44.3609 20.1819 -45.201 26.4097 -45.201V-51.201ZM43.7335 -49.153C38.1746 -50.4922 32.373 -51.201 26.4097 -51.201V-45.201C31.896 -45.201 37.2261 -44.5491 42.3282 -43.3199L43.7335 -49.153ZM45.613 -44.7092C57.4035 -64.6428 79.111 -78 103.935 -78V-84C76.9036 -84 53.2743 -69.4474 40.4487 -47.7638L45.613 -44.7092ZM103.935 -78C132.752 -78 157.372 -59.9964 167.146 -34.6128L172.745 -36.7688C162.109 -64.3913 135.316 -84 103.935 -84V-78Z" fill="black" mask="url(#path-6-inside-3_40_184)"/>
<mask id="path-8-inside-4_40_184" fill="white">
<path fill-rule="evenodd" clip-rule="evenodd" d="M1237.95 -97.6908C1261.65 -86.2711 1278 -62.0223 1278 -33.9536C1278 -7.74852 1263.75 15.1272 1242.57 27.342C1240.81 64.8319 1209.86 94.6878 1171.94 94.6878C1168.11 94.6878 1164.35 94.3838 1160.69 93.7988C1147.76 107.956 1129.15 116.838 1108.47 116.838C1094.66 116.838 1081.77 112.879 1070.88 106.034C1058.18 124.885 1036.64 137.284 1012.2 137.284C983.136 137.284 958.169 119.751 947.297 94.6857C897.926 94.3732 858 54.2538 858 4.8092C858 -44.8292 898.24 -85.0691 947.878 -85.0691C948.754 -85.0691 949.627 -85.0566 950.497 -85.0317C958.84 -114.789 986.166 -136.611 1018.59 -136.611C1042.01 -136.611 1062.77 -125.223 1075.64 -107.683C1081.62 -109.324 1087.91 -110.201 1094.41 -110.201C1100.13 -110.201 1105.7 -109.521 1111.03 -108.236C1123.34 -129.045 1146.01 -143 1171.94 -143C1202.03 -143 1227.74 -124.194 1237.95 -97.6908Z"/>
</mask>
<path fill-rule="evenodd" clip-rule="evenodd" d="M1237.95 -97.6908C1261.65 -86.2711 1278 -62.0223 1278 -33.9536C1278 -7.74852 1263.75 15.1272 1242.57 27.342C1240.81 64.8319 1209.86 94.6878 1171.94 94.6878C1168.11 94.6878 1164.35 94.3838 1160.69 93.7988C1147.76 107.956 1129.15 116.838 1108.47 116.838C1094.66 116.838 1081.77 112.879 1070.88 106.034C1058.18 124.885 1036.64 137.284 1012.2 137.284C983.136 137.284 958.169 119.751 947.297 94.6857C897.926 94.3732 858 54.2538 858 4.8092C858 -44.8292 898.24 -85.0691 947.878 -85.0691C948.754 -85.0691 949.627 -85.0566 950.497 -85.0317C958.84 -114.789 986.166 -136.611 1018.59 -136.611C1042.01 -136.611 1062.77 -125.223 1075.64 -107.683C1081.62 -109.324 1087.91 -110.201 1094.41 -110.201C1100.13 -110.201 1105.7 -109.521 1111.03 -108.236C1123.34 -129.045 1146.01 -143 1171.94 -143C1202.03 -143 1227.74 -124.194 1237.95 -97.6908Z" fill="#7711DD"/>
<path d="M1237.95 -97.6908L1235.15 -96.6128L1235.57 -95.504L1236.64 -94.9882L1237.95 -97.6908ZM1242.57 27.342L1241.07 24.7433L1239.65 25.5629L1239.57 27.2016L1242.57 27.342ZM1160.69 93.7988L1161.16 90.8364L1159.57 90.5811L1158.48 91.7757L1160.69 93.7988ZM1070.88 106.034L1072.48 103.494L1070.02 101.947L1068.4 104.358L1070.88 106.034ZM947.297 94.6857L950.05 93.4919L949.272 91.6981L947.316 91.6857L947.297 94.6857ZM950.497 -85.0317L950.411 -82.0329L952.753 -81.9659L953.385 -84.2218L950.497 -85.0317ZM1075.64 -107.683L1073.22 -105.908L1074.44 -104.243L1076.43 -104.79L1075.64 -107.683ZM1111.03 -108.236L1110.33 -105.32L1112.48 -104.801L1113.61 -106.709L1111.03 -108.236ZM1281 -33.9536C1281 -63.2176 1263.95 -88.4927 1239.25 -100.393L1236.64 -94.9882C1259.34 -84.0496 1275 -60.8269 1275 -33.9536H1281ZM1244.07 29.9408C1266.13 17.2122 1281 -6.63293 1281 -33.9536H1275C1275 -8.86411 1261.36 13.0421 1241.07 24.7433L1244.07 29.9408ZM1171.94 97.6878C1211.47 97.6878 1243.73 66.5652 1245.56 27.4824L1239.57 27.2016C1237.89 63.0986 1208.25 91.6878 1171.94 91.6878V97.6878ZM1160.22 96.7612C1164.04 97.3712 1167.95 97.6878 1171.94 97.6878V91.6878C1168.27 91.6878 1164.67 91.3965 1161.16 90.8364L1160.22 96.7612ZM1108.47 119.838C1130.03 119.838 1149.43 110.576 1162.91 95.8219L1158.48 91.7757C1146.09 105.337 1128.27 113.838 1108.47 113.838V119.838ZM1069.29 108.574C1080.64 115.711 1094.08 119.838 1108.47 119.838V113.838C1095.24 113.838 1082.9 110.047 1072.48 103.494L1069.29 108.574ZM1012.2 140.284C1037.68 140.284 1060.14 127.354 1073.37 107.71L1068.4 104.358C1056.23 122.417 1035.6 134.284 1012.2 134.284V140.284ZM944.545 95.8794C955.875 122.002 981.899 140.284 1012.2 140.284V134.284C984.374 134.284 960.463 117.5 950.05 93.4919L944.545 95.8794ZM855 4.8092C855 55.9043 896.259 97.3627 947.278 97.6856L947.316 91.6857C899.594 91.3837 861 52.6033 861 4.8092H855ZM947.878 -88.0691C896.583 -88.0691 855 -46.4861 855 4.8092H861C861 -43.1724 899.897 -82.0691 947.878 -82.0691V-88.0691ZM950.583 -88.0305C949.684 -88.0562 948.783 -88.0691 947.878 -88.0691V-82.0691C948.725 -82.0691 949.57 -82.057 950.411 -82.0329L950.583 -88.0305ZM1018.59 -139.611C984.786 -139.611 956.305 -116.86 947.608 -85.8416L953.385 -84.2218C961.375 -112.718 987.546 -133.611 1018.59 -133.611V-139.611ZM1078.06 -109.457C1064.65 -127.735 1043.01 -139.611 1018.59 -139.611V-133.611C1041.01 -133.611 1060.89 -122.711 1073.22 -105.908L1078.06 -109.457ZM1094.41 -113.201C1087.64 -113.201 1081.08 -112.288 1074.85 -110.576L1076.43 -104.79C1082.15 -106.361 1088.18 -107.201 1094.41 -107.201V-113.201ZM1111.73 -111.153C1106.17 -112.492 1100.37 -113.201 1094.41 -113.201V-107.201C1099.9 -107.201 1105.23 -106.549 1110.33 -105.32L1111.73 -111.153ZM1113.61 -106.709C1125.4 -126.643 1147.11 -140 1171.94 -140V-146C1144.9 -146 1121.27 -131.447 1108.45 -109.764L1113.61 -106.709ZM1171.94 -140C1200.75 -140 1225.37 -121.996 1235.15 -96.6128L1240.75 -98.7688C1230.11 -126.391 1203.32 -146 1171.94 -146V-140Z" fill="black" mask="url(#path-8-inside-4_40_184)"/>
<mask id="path-10-inside-5_40_184" fill="white">
<path fill-rule="evenodd" clip-rule="evenodd" d="M166.97 -55.4497C176.016 -70.7435 192.677 -81 211.733 -81C233.855 -81 252.749 -67.178 260.249 -47.699C277.667 -39.3059 289.688 -21.4837 289.688 -0.854042C289.688 18.4059 279.211 35.2189 263.645 44.1964C262.354 71.7504 239.606 93.6935 211.733 93.6935C208.921 93.6935 206.16 93.4701 203.469 93.0401C193.966 103.445 180.288 109.973 165.085 109.973C154.935 109.973 145.465 107.063 137.463 102.032C128.128 115.887 112.294 125 94.3316 125C72.9717 125 54.6216 112.114 46.6311 93.692C10.3448 93.4624 -19 63.9759 -19 27.6355C-19 -8.8473 10.5751 -38.4224 47.0579 -38.4224C47.7016 -38.4224 48.3431 -38.4132 48.9824 -38.3949C55.1146 -60.2658 75.1981 -76.304 99.0276 -76.304C116.242 -76.304 131.501 -67.9345 140.959 -55.0427C145.352 -56.2492 149.978 -56.8936 154.754 -56.8936C158.962 -56.8936 163.052 -56.3936 166.97 -55.4497Z"/>
</mask>
<path fill-rule="evenodd" clip-rule="evenodd" d="M166.97 -55.4497C176.016 -70.7435 192.677 -81 211.733 -81C233.855 -81 252.749 -67.178 260.249 -47.699C277.667 -39.3059 289.688 -21.4837 289.688 -0.854042C289.688 18.4059 279.211 35.2189 263.645 44.1964C262.354 71.7504 239.606 93.6935 211.733 93.6935C208.921 93.6935 206.16 93.4701 203.469 93.0401C193.966 103.445 180.288 109.973 165.085 109.973C154.935 109.973 145.465 107.063 137.463 102.032C128.128 115.887 112.294 125 94.3316 125C72.9717 125 54.6216 112.114 46.6311 93.692C10.3448 93.4624 -19 63.9759 -19 27.6355C-19 -8.8473 10.5751 -38.4224 47.0579 -38.4224C47.7016 -38.4224 48.3431 -38.4132 48.9824 -38.3949C55.1146 -60.2658 75.1981 -76.304 99.0276 -76.304C116.242 -76.304 131.501 -67.9345 140.959 -55.0427C145.352 -56.2492 149.978 -56.8936 154.754 -56.8936C158.962 -56.8936 163.052 -56.3936 166.97 -55.4497Z" fill="white"/>
<path d="M166.97 -55.4497L166.268 -52.5332L168.423 -52.0138L169.552 -53.9225L166.97 -55.4497ZM260.249 -47.699L257.449 -46.621L257.876 -45.5122L258.947 -44.9964L260.249 -47.699ZM263.645 44.1964L262.146 41.5977L260.725 42.4173L260.648 44.0561L263.645 44.1964ZM203.469 93.0401L203.943 90.0776L202.345 89.8224L201.254 91.0169L203.469 93.0401ZM137.463 102.032L139.06 99.4925L136.599 97.9455L134.975 100.356L137.463 102.032ZM46.6311 93.692L49.3834 92.4982L48.6053 90.7044L46.6501 90.6921L46.6311 93.692ZM48.9824 -38.3949L48.8966 -35.3961L51.2385 -35.3292L51.871 -37.585L48.9824 -38.3949ZM140.959 -55.0427L138.54 -53.2682L139.761 -51.6028L141.753 -52.1498L140.959 -55.0427ZM169.552 -53.9225C178.081 -68.3413 193.781 -78 211.733 -78V-84C191.573 -84 173.952 -73.1458 164.388 -56.977L169.552 -53.9225ZM211.733 -78C232.573 -78 250.38 -64.9806 257.449 -46.621L263.048 -48.777C255.117 -69.3754 235.137 -84 211.733 -84V-78ZM292.688 -0.854042C292.688 -22.679 279.968 -41.5274 261.551 -50.4016L258.947 -44.9964C275.367 -37.0843 286.688 -20.2883 286.688 -0.854042H292.688ZM265.144 46.7952C281.6 37.3039 292.688 19.5215 292.688 -0.854042H286.688C286.688 17.2903 276.821 33.1338 262.146 41.5977L265.144 46.7952ZM211.733 96.6935C241.216 96.6935 265.276 73.4837 266.642 44.3368L260.648 44.0561C259.432 70.017 237.996 90.6935 211.733 90.6935V96.6935ZM202.996 96.0025C205.843 96.4574 208.762 96.6935 211.733 96.6935V90.6935C209.08 90.6935 206.478 90.4827 203.943 90.0776L202.996 96.0025ZM165.085 112.973C181.166 112.973 195.637 106.065 205.684 95.0632L201.254 91.0169C192.295 100.826 179.41 106.973 165.085 106.973V112.973ZM135.866 104.572C144.333 109.895 154.354 112.973 165.085 112.973V106.973C155.517 106.973 146.597 104.232 139.06 99.4925L135.866 104.572ZM94.3316 128C113.334 128 130.083 118.356 139.951 103.709L134.975 100.356C126.174 113.419 111.254 122 94.3316 122V128ZM43.8789 94.8858C52.3279 114.365 71.7341 128 94.3316 128V122C74.2094 122 56.9153 109.863 49.3834 92.4982L43.8789 94.8858ZM-22 27.6355C-22 65.6264 8.67742 96.452 46.6121 96.692L46.6501 90.6921C12.0121 90.4729 -16 62.3254 -16 27.6355H-22ZM47.0579 -41.4224C8.91827 -41.4224 -22 -10.5042 -22 27.6355H-16C-16 -7.19044 12.232 -35.4224 47.0579 -35.4224V-41.4224ZM49.0681 -41.3937C48.4003 -41.4128 47.7302 -41.4224 47.0579 -41.4224V-35.4224C47.673 -35.4224 48.2859 -35.4136 48.8966 -35.3961L49.0681 -41.3937ZM99.0276 -79.304C73.8182 -79.304 52.5795 -62.3367 46.0938 -39.2048L51.871 -37.585C57.6496 -58.1949 76.578 -73.304 99.0276 -73.304V-79.304ZM143.377 -56.8172C133.379 -70.4462 117.238 -79.304 99.0276 -79.304V-73.304C115.246 -73.304 129.623 -65.4227 138.54 -53.2682L143.377 -56.8172ZM154.754 -59.8936C149.707 -59.8936 144.814 -59.2125 140.164 -57.9356L141.753 -52.1498C145.89 -53.2859 150.249 -53.8936 154.754 -53.8936V-59.8936ZM167.673 -58.3663C163.527 -59.3652 159.2 -59.8936 154.754 -59.8936V-53.8936C158.723 -53.8936 162.578 -53.422 166.268 -52.5332L167.673 -58.3663Z" fill="black" mask="url(#path-10-inside-5_40_184)"/>
<mask id="path-12-inside-6_40_184" fill="white">
<path fill-rule="evenodd" clip-rule="evenodd" d="M1216.63 59.6861C1212.24 67.1177 1204.14 72.1016 1194.88 72.1016C1184.13 72.1016 1174.95 65.3851 1171.31 55.9197C1162.84 51.8413 1157 43.1809 1157 33.1564C1157 23.7975 1162.09 15.6276 1169.65 11.2651C1170.28 -2.12415 1181.34 -12.787 1194.88 -12.787C1196.25 -12.787 1197.59 -12.6784 1198.9 -12.4695C1203.51 -17.5257 1210.16 -20.6977 1217.55 -20.6977C1222.48 -20.6977 1227.08 -19.2837 1230.97 -16.8391C1235.51 -23.5716 1243.2 -27.9999 1251.93 -27.9999C1262.31 -27.9999 1271.23 -21.7381 1275.11 -12.7861C1292.74 -12.6745 1307 1.65385 1307 19.3126C1307 37.0407 1292.63 51.412 1274.9 51.412C1274.59 51.412 1274.28 51.4076 1273.97 51.3987C1270.99 62.0263 1261.23 69.8197 1249.65 69.8197C1241.28 69.8197 1233.87 65.7527 1229.27 59.4883C1227.14 60.0746 1224.89 60.3877 1222.57 60.3877C1220.52 60.3877 1218.54 60.1447 1216.63 59.6861Z"/>
</mask>
<path fill-rule="evenodd" clip-rule="evenodd" d="M1216.63 59.6861C1212.24 67.1177 1204.14 72.1016 1194.88 72.1016C1184.13 72.1016 1174.95 65.3851 1171.31 55.9197C1162.84 51.8413 1157 43.1809 1157 33.1564C1157 23.7975 1162.09 15.6276 1169.65 11.2651C1170.28 -2.12415 1181.34 -12.787 1194.88 -12.787C1196.25 -12.787 1197.59 -12.6784 1198.9 -12.4695C1203.51 -17.5257 1210.16 -20.6977 1217.55 -20.6977C1222.48 -20.6977 1227.08 -19.2837 1230.97 -16.8391C1235.51 -23.5716 1243.2 -27.9999 1251.93 -27.9999C1262.31 -27.9999 1271.23 -21.7381 1275.11 -12.7861C1292.74 -12.6745 1307 1.65385 1307 19.3126C1307 37.0407 1292.63 51.412 1274.9 51.412C1274.59 51.412 1274.28 51.4076 1273.97 51.3987C1270.99 62.0263 1261.23 69.8197 1249.65 69.8197C1241.28 69.8197 1233.87 65.7527 1229.27 59.4883C1227.14 60.0746 1224.89 60.3877 1222.57 60.3877C1220.52 60.3877 1218.54 60.1447 1216.63 59.6861Z" fill="#1BDBC4"/>
<path d="M1216.63 59.6861L1217.33 56.7695L1215.18 56.2501L1214.05 58.1588L1216.63 59.6861ZM1171.31 55.9197L1174.1 54.8417L1173.68 53.7329L1172.61 53.2171L1171.31 55.9197ZM1169.65 11.2651L1171.15 13.8639L1172.57 13.0442L1172.65 11.4055L1169.65 11.2651ZM1198.9 -12.4695L1198.42 -9.50707L1200.02 -9.25182L1201.11 -10.4464L1198.9 -12.4695ZM1230.97 -16.8391L1229.37 -14.2993L1231.83 -12.7523L1233.46 -15.1628L1230.97 -16.8391ZM1275.11 -12.7861L1272.36 -11.5923L1273.13 -9.79853L1275.09 -9.78615L1275.11 -12.7861ZM1273.97 51.3987L1274.05 48.3999L1271.71 48.3329L1271.08 50.5888L1273.97 51.3987ZM1229.27 59.4883L1231.69 57.7138L1230.47 56.0484L1228.48 56.5954L1229.27 59.4883ZM1214.05 58.1588C1210.17 64.7154 1203.04 69.1016 1194.88 69.1016L1194.88 75.1016C1205.24 75.1016 1214.3 69.52 1219.21 61.2134L1214.05 58.1588ZM1194.88 69.1016C1185.41 69.1016 1177.32 63.1876 1174.1 54.8417L1168.51 56.9977C1172.58 67.5825 1182.85 75.1016 1194.88 75.1016L1194.88 69.1016ZM1154 33.1564C1154 44.3763 1160.54 54.0628 1170 58.6223L1172.61 53.2171C1165.14 49.6197 1160 41.9856 1160 33.1564L1154 33.1564ZM1168.16 8.66638C1159.7 13.5426 1154 22.6819 1154 33.1564L1160 33.1564C1160 24.913 1164.48 17.7126 1171.15 13.8639L1168.16 8.66638ZM1194.88 -15.787C1179.73 -15.787 1167.36 -3.85747 1166.66 11.1248L1172.65 11.4055C1173.2 -0.390827 1182.95 -9.787 1194.88 -9.787L1194.88 -15.787ZM1199.37 -15.4319C1197.91 -15.6658 1196.41 -15.787 1194.88 -15.787L1194.88 -9.787C1196.09 -9.787 1197.27 -9.6911 1198.42 -9.50707L1199.37 -15.4319ZM1217.55 -23.6977C1209.28 -23.6977 1201.84 -20.145 1196.68 -14.4926L1201.11 -10.4464C1205.18 -14.9065 1211.04 -17.6977 1217.55 -17.6977L1217.55 -23.6977ZM1232.57 -19.3788C1228.21 -22.1154 1223.06 -23.6977 1217.55 -23.6977L1217.55 -17.6977C1221.9 -17.6977 1225.95 -16.4521 1229.37 -14.2993L1232.57 -19.3788ZM1251.93 -30.9999C1242.16 -30.9999 1233.55 -26.0401 1228.48 -18.5153L1233.46 -15.1628C1237.46 -21.1031 1244.24 -24.9999 1251.93 -24.9999L1251.93 -30.9999ZM1277.86 -13.9798C1273.52 -23.9891 1263.55 -30.9999 1251.93 -30.9999L1251.93 -24.9999C1261.07 -24.9999 1268.93 -19.4871 1272.36 -11.5923L1277.86 -13.9798ZM1310 19.3126C1310 0.00336191 1294.41 -15.664 1275.13 -15.786L1275.09 -9.78615C1291.07 -9.68497 1304 3.30435 1304 19.3126L1310 19.3126ZM1274.9 54.412C1294.29 54.412 1310 38.6975 1310 19.3126L1304 19.3126C1304 35.3838 1290.97 48.412 1274.9 48.412L1274.9 54.412ZM1273.88 54.3974C1274.22 54.4071 1274.56 54.412 1274.9 54.412L1274.9 48.412C1274.62 48.412 1274.33 48.408 1274.05 48.3999L1273.88 54.3974ZM1249.65 72.8197C1262.61 72.8197 1273.52 64.0973 1276.85 52.2086L1271.08 50.5888C1268.45 59.9554 1259.85 66.8197 1249.65 66.8197L1249.65 72.8197ZM1226.85 61.2628C1231.99 68.2645 1240.29 72.8197 1249.65 72.8197L1249.65 66.8197C1242.28 66.8197 1235.75 63.241 1231.69 57.7138L1226.85 61.2628ZM1222.57 63.3877C1225.16 63.3877 1227.67 63.0379 1230.07 62.3812L1228.48 56.5954C1226.6 57.1113 1224.62 57.3877 1222.57 57.3877L1222.57 63.3877ZM1215.93 62.6026C1218.06 63.1163 1220.28 63.3877 1222.57 63.3877L1222.57 57.3877C1220.76 57.3877 1219.01 57.1731 1217.33 56.7695L1215.93 62.6026Z" fill="black" mask="url(#path-12-inside-6_40_184)"/>
<mask id="path-14-inside-7_40_184" fill="white">
<path fill-rule="evenodd" clip-rule="evenodd" d="M1424.63 194.686C1420.24 202.118 1412.14 207.102 1402.88 207.102C1392.13 207.102 1382.95 200.385 1379.31 190.92C1370.84 186.841 1365 178.181 1365 168.156C1365 158.797 1370.09 150.628 1377.65 146.265C1378.28 132.876 1389.34 122.213 1402.88 122.213C1404.25 122.213 1405.59 122.322 1406.9 122.531C1411.51 117.474 1418.16 114.302 1425.55 114.302C1430.48 114.302 1435.08 115.716 1438.97 118.161C1443.51 111.428 1451.2 107 1459.93 107C1470.31 107 1479.23 113.262 1483.11 122.214C1500.74 122.326 1515 136.654 1515 154.313C1515 172.041 1500.63 186.412 1482.9 186.412C1482.59 186.412 1482.28 186.408 1481.97 186.399C1478.99 197.026 1469.23 204.82 1457.65 204.82C1449.28 204.82 1441.87 200.753 1437.27 194.488C1435.14 195.075 1432.89 195.388 1430.57 195.388C1428.52 195.388 1426.54 195.145 1424.63 194.686Z"/>
</mask>
<path fill-rule="evenodd" clip-rule="evenodd" d="M1424.63 194.686C1420.24 202.118 1412.14 207.102 1402.88 207.102C1392.13 207.102 1382.95 200.385 1379.31 190.92C1370.84 186.841 1365 178.181 1365 168.156C1365 158.797 1370.09 150.628 1377.65 146.265C1378.28 132.876 1389.34 122.213 1402.88 122.213C1404.25 122.213 1405.59 122.322 1406.9 122.531C1411.51 117.474 1418.16 114.302 1425.55 114.302C1430.48 114.302 1435.08 115.716 1438.97 118.161C1443.51 111.428 1451.2 107 1459.93 107C1470.31 107 1479.23 113.262 1483.11 122.214C1500.74 122.326 1515 136.654 1515 154.313C1515 172.041 1500.63 186.412 1482.9 186.412C1482.59 186.412 1482.28 186.408 1481.97 186.399C1478.99 197.026 1469.23 204.82 1457.65 204.82C1449.28 204.82 1441.87 200.753 1437.27 194.488C1435.14 195.075 1432.89 195.388 1430.57 195.388C1428.52 195.388 1426.54 195.145 1424.63 194.686Z" fill="#1BDBC4"/>
<path d="M1424.63 194.686L1425.33 191.77L1423.18 191.25L1422.05 193.159L1424.63 194.686ZM1379.31 190.92L1382.1 189.842L1381.68 188.733L1380.61 188.217L1379.31 190.92ZM1377.65 146.265L1379.15 148.864L1380.57 148.044L1380.65 146.405L1377.65 146.265ZM1406.9 122.531L1406.42 125.493L1408.02 125.748L1409.11 124.554L1406.9 122.531ZM1438.97 118.161L1437.37 120.701L1439.83 122.248L1441.46 119.837L1438.97 118.161ZM1483.11 122.214L1480.36 123.408L1481.13 125.201L1483.09 125.214L1483.11 122.214ZM1481.97 186.399L1482.05 183.4L1479.71 183.333L1479.08 185.589L1481.97 186.399ZM1437.27 194.488L1439.69 192.714L1438.47 191.048L1436.48 191.595L1437.27 194.488ZM1422.05 193.159C1418.17 199.715 1411.04 204.102 1402.88 204.102L1402.88 210.102C1413.24 210.102 1422.3 204.52 1427.21 196.213L1422.05 193.159ZM1402.88 204.102C1393.41 204.102 1385.32 198.188 1382.1 189.842L1376.51 191.998C1380.58 202.583 1390.85 210.102 1402.88 210.102L1402.88 204.102ZM1362 168.156C1362 179.376 1368.54 189.063 1378 193.622L1380.61 188.217C1373.14 184.62 1368 176.986 1368 168.156L1362 168.156ZM1376.16 143.666C1367.7 148.543 1362 157.682 1362 168.156L1368 168.156C1368 159.913 1372.48 152.713 1379.15 148.864L1376.16 143.666ZM1402.88 119.213C1387.73 119.213 1375.36 131.143 1374.66 146.125L1380.65 146.405C1381.2 134.609 1390.95 125.213 1402.88 125.213L1402.88 119.213ZM1407.37 119.568C1405.91 119.334 1404.41 119.213 1402.88 119.213L1402.88 125.213C1404.09 125.213 1405.27 125.309 1406.42 125.493L1407.37 119.568ZM1425.55 111.302C1417.28 111.302 1409.84 114.855 1404.68 120.507L1409.11 124.554C1413.18 120.094 1419.04 117.302 1425.55 117.302L1425.55 111.302ZM1440.57 115.621C1436.21 112.885 1431.06 111.302 1425.55 111.302L1425.55 117.302C1429.9 117.302 1433.95 118.548 1437.37 120.701L1440.57 115.621ZM1459.93 104C1450.16 104 1441.55 108.96 1436.48 116.485L1441.46 119.837C1445.46 113.897 1452.24 110 1459.93 110L1459.93 104ZM1485.86 121.02C1481.52 111.011 1471.55 104 1459.93 104L1459.93 110C1469.07 110 1476.93 115.513 1480.36 123.408L1485.86 121.02ZM1518 154.313C1518 135.003 1502.41 119.336 1483.13 119.214L1483.09 125.214C1499.07 125.315 1512 138.304 1512 154.313L1518 154.313ZM1482.9 189.412C1502.29 189.412 1518 173.698 1518 154.313L1512 154.313C1512 170.384 1498.97 183.412 1482.9 183.412L1482.9 189.412ZM1481.88 189.397C1482.22 189.407 1482.56 189.412 1482.9 189.412L1482.9 183.412C1482.62 183.412 1482.33 183.408 1482.05 183.4L1481.88 189.397ZM1457.65 207.82C1470.61 207.82 1481.52 199.097 1484.85 187.209L1479.08 185.589C1476.45 194.955 1467.85 201.82 1457.65 201.82L1457.65 207.82ZM1434.85 196.263C1439.99 203.264 1448.29 207.82 1457.65 207.82L1457.65 201.82C1450.28 201.82 1443.75 198.241 1439.69 192.714L1434.85 196.263ZM1430.57 198.388C1433.16 198.388 1435.67 198.038 1438.07 197.381L1436.48 191.595C1434.6 192.111 1432.62 192.388 1430.57 192.388L1430.57 198.388ZM1423.93 197.603C1426.06 198.116 1428.28 198.388 1430.57 198.388L1430.57 192.388C1428.76 192.388 1427.01 192.173 1425.33 191.77L1423.93 197.603Z" fill="black" mask="url(#path-14-inside-7_40_184)"/>
<mask id="path-16-inside-8_40_184" fill="white">
<path fill-rule="evenodd" clip-rule="evenodd" d="M270.368 37.4155C274.764 29.9839 282.86 25 292.12 25C302.869 25 312.05 31.7165 315.695 41.1818C324.159 45.2603 330 53.9206 330 63.9451C330 73.3041 324.909 81.474 317.345 85.8364C316.718 99.2257 305.664 109.889 292.12 109.889C290.753 109.889 289.412 109.78 288.104 109.571C283.486 114.627 276.84 117.799 269.452 117.799C264.52 117.799 259.918 116.385 256.03 113.941C251.494 120.673 243.8 125.101 235.071 125.101C224.692 125.101 215.775 118.84 211.892 109.888C194.259 109.776 180 95.4477 180 77.7889C180 60.0609 194.371 45.6895 212.099 45.6895C212.412 45.6895 212.724 45.694 213.035 45.7029C216.014 35.0752 225.774 27.2818 237.353 27.2818C245.718 27.2818 253.133 31.3488 257.728 37.6133C259.863 37.027 262.111 36.7139 264.432 36.7139C266.477 36.7139 268.464 36.9568 270.368 37.4155Z"/>
</mask>
<path fill-rule="evenodd" clip-rule="evenodd" d="M270.368 37.4155C274.764 29.9839 282.86 25 292.12 25C302.869 25 312.05 31.7165 315.695 41.1818C324.159 45.2603 330 53.9206 330 63.9451C330 73.3041 324.909 81.474 317.345 85.8364C316.718 99.2257 305.664 109.889 292.12 109.889C290.753 109.889 289.412 109.78 288.104 109.571C283.486 114.627 276.84 117.799 269.452 117.799C264.52 117.799 259.918 116.385 256.03 113.941C251.494 120.673 243.8 125.101 235.071 125.101C224.692 125.101 215.775 118.84 211.892 109.888C194.259 109.776 180 95.4477 180 77.7889C180 60.0609 194.371 45.6895 212.099 45.6895C212.412 45.6895 212.724 45.694 213.035 45.7029C216.014 35.0752 225.774 27.2818 237.353 27.2818C245.718 27.2818 253.133 31.3488 257.728 37.6133C259.863 37.027 262.111 36.7139 264.432 36.7139C266.477 36.7139 268.464 36.9568 270.368 37.4155Z" fill="#1BDBC4"/>
<path d="M270.368 37.4155L269.666 40.332L271.821 40.8514L272.95 38.9428L270.368 37.4155ZM315.695 41.1818L312.895 42.2598L313.322 43.3687L314.393 43.8845L315.695 41.1818ZM317.345 85.8364L315.846 83.2377L314.425 84.0573L314.348 85.6961L317.345 85.8364ZM288.104 109.571L288.577 106.609L286.98 106.353L285.889 107.548L288.104 109.571ZM256.03 113.941L257.626 111.401L255.166 109.854L253.542 112.264L256.03 113.941ZM211.892 109.888L214.644 108.694L213.866 106.9L211.911 106.888L211.892 109.888ZM213.035 45.7029L212.949 48.7017L215.291 48.7687L215.923 46.5128L213.035 45.7029ZM257.728 37.6133L255.309 39.3878L256.531 41.0532L258.523 40.5062L257.728 37.6133ZM272.95 38.9428C276.828 32.3862 283.963 28 292.12 28V22C281.756 22 272.699 27.5816 267.786 35.8882L272.95 38.9428ZM292.12 28C301.588 28 309.682 33.9139 312.895 42.2598L318.495 40.1038C314.419 29.519 304.151 22 292.12 22V28ZM333 63.9451C333 52.7253 326.46 43.0388 316.997 38.4792L314.393 43.8845C321.858 47.4818 327 55.1159 327 63.9451H333ZM318.844 88.4352C327.298 83.559 333 74.4197 333 63.9451H327C327 72.1885 322.519 79.389 315.846 83.2377L318.844 88.4352ZM292.12 112.889C307.274 112.889 319.64 100.959 320.342 85.9768L314.348 85.6961C313.796 97.4924 304.054 106.889 292.12 106.889V112.889ZM287.631 112.533C289.094 112.767 290.594 112.889 292.12 112.889V106.889C290.912 106.889 289.729 106.793 288.577 106.609L287.631 112.533ZM269.452 120.799C277.717 120.799 285.157 117.247 290.319 111.594L285.889 107.548C281.815 112.008 275.962 114.799 269.452 114.799V120.799ZM254.433 116.48C258.786 119.217 263.939 120.799 269.452 120.799V114.799C265.101 114.799 261.051 113.554 257.626 111.401L254.433 116.48ZM235.071 128.101C244.839 128.101 253.448 123.142 258.518 115.617L253.542 112.264C249.54 118.205 242.76 122.101 235.071 122.101V128.101ZM209.14 111.081C213.481 121.091 223.454 128.101 235.071 128.101V122.101C225.929 122.101 218.068 116.589 214.644 108.694L209.14 111.081ZM177 77.7889C177 97.0982 192.592 112.766 211.873 112.888L211.911 106.888C195.927 106.787 183 93.7972 183 77.7889H177ZM212.099 42.6895C192.715 42.6895 177 58.4041 177 77.7889H183C183 61.7178 196.028 48.6895 212.099 48.6895V42.6895ZM213.12 42.7041C212.781 42.6944 212.441 42.6895 212.099 42.6895V48.6895C212.384 48.6895 212.667 48.6936 212.949 48.7017L213.12 42.7041ZM237.353 24.2818C224.394 24.2818 213.479 33.0043 210.146 44.893L215.923 46.5128C218.549 37.1462 227.153 30.2818 237.353 30.2818V24.2818ZM260.147 35.8388C255.011 28.8371 246.714 24.2818 237.353 24.2818V30.2818C244.722 30.2818 251.255 33.8605 255.309 39.3878L260.147 35.8388ZM264.432 33.7139C261.84 33.7139 259.325 34.0637 256.934 34.7204L258.523 40.5062C260.401 39.9903 262.382 39.7139 264.432 39.7139V33.7139ZM271.071 34.4989C268.939 33.9853 266.715 33.7139 264.432 33.7139V39.7139C266.238 39.7139 267.99 39.9284 269.666 40.332L271.071 34.4989Z" fill="black" mask="url(#path-16-inside-8_40_184)"/>
<mask id="path-18-inside-9_40_184" fill="white">
<path fill-rule="evenodd" clip-rule="evenodd" d="M973.455 -20.464C965.21 -31.7033 951.907 -39 936.899 -39C916.124 -39 898.615 -25.0175 893.268 -5.94995C892.711 -5.96589 892.152 -5.97392 891.591 -5.97392C859.784 -5.97392 834 19.8103 834 51.6167C834 83.299 859.583 109.006 891.219 109.206C898.185 125.267 914.183 136.501 932.805 136.501C948.465 136.501 962.27 128.556 970.408 116.477C977.384 120.863 985.641 123.4 994.49 123.4C1019.51 123.4 1039.8 103.115 1039.8 78.0919C1039.8 64.9668 1034.22 53.1451 1025.3 44.8706C1028.8 38.4405 1030.79 31.068 1030.79 23.2307C1030.79 -1.79241 1010.51 -22.0776 985.482 -22.0776C981.318 -22.0776 977.285 -21.5158 973.455 -20.464Z"/>
</mask>
<path fill-rule="evenodd" clip-rule="evenodd" d="M973.455 -20.464C965.21 -31.7033 951.907 -39 936.899 -39C916.124 -39 898.615 -25.0175 893.268 -5.94995C892.711 -5.96589 892.152 -5.97392 891.591 -5.97392C859.784 -5.97392 834 19.8103 834 51.6167C834 83.299 859.583 109.006 891.219 109.206C898.185 125.267 914.183 136.501 932.805 136.501C948.465 136.501 962.27 128.556 970.408 116.477C977.384 120.863 985.641 123.4 994.49 123.4C1019.51 123.4 1039.8 103.115 1039.8 78.0919C1039.8 64.9668 1034.22 53.1451 1025.3 44.8706C1028.8 38.4405 1030.79 31.068 1030.79 23.2307C1030.79 -1.79241 1010.51 -22.0776 985.482 -22.0776C981.318 -22.0776 977.285 -21.5158 973.455 -20.464Z" fill="white"/>
<path d="M973.455 -20.464L971.036 -18.6895L972.258 -17.0241L974.25 -17.5711L973.455 -20.464ZM893.268 -5.94995L893.183 -2.95118L895.524 -2.88419L896.157 -5.14005L893.268 -5.94995ZM891.219 109.206L893.971 108.012L893.193 106.219L891.238 106.206L891.219 109.206ZM970.408 116.477L972.004 113.937L969.544 112.39L967.92 114.801L970.408 116.477ZM1025.3 44.8706L1022.66 43.4357L1021.55 45.4837L1023.26 47.0698L1025.3 44.8706ZM975.874 -22.2385C967.088 -34.215 952.902 -42 936.899 -42V-36C950.911 -36 963.332 -29.1916 971.036 -18.6895L975.874 -22.2385ZM936.899 -42C914.744 -42 896.079 -27.0884 890.38 -6.75985L896.157 -5.14005C901.15 -22.9466 917.504 -36 936.899 -36V-42ZM893.354 -8.94872C892.768 -8.96548 892.18 -8.97392 891.591 -8.97392V-2.97392C892.123 -2.97392 892.654 -2.9663 893.183 -2.95118L893.354 -8.94872ZM891.591 -8.97392C858.127 -8.97392 831 18.1534 831 51.6167H837C837 21.4671 861.441 -2.97392 891.591 -2.97392V-8.97392ZM831 51.6167C831 84.9495 857.916 111.996 891.2 112.206L891.238 106.206C861.251 106.017 837 81.6485 837 51.6167H831ZM888.466 110.4C895.891 127.518 912.945 139.501 932.805 139.501V133.501C915.421 133.501 900.479 123.016 893.971 108.012L888.466 110.4ZM932.805 139.501C949.505 139.501 964.224 131.025 972.896 118.153L967.92 114.801C960.315 126.088 947.425 133.501 932.805 133.501V139.501ZM968.811 119.017C976.251 123.695 985.059 126.4 994.49 126.4V120.4C986.222 120.4 978.516 118.032 972.004 113.937L968.811 119.017ZM994.49 126.4C1021.17 126.4 1042.8 104.772 1042.8 78.0919H1036.8C1036.8 101.458 1017.86 120.4 994.49 120.4V126.4ZM1042.8 78.0919C1042.8 64.0978 1036.84 51.4898 1027.34 42.6714L1023.26 47.0698C1031.59 54.8005 1036.8 65.8357 1036.8 78.0919H1042.8ZM1027.79 23.2307C1027.79 30.5542 1025.93 37.4348 1022.66 43.4357L1027.93 46.3055C1031.67 39.4462 1033.79 31.5817 1033.79 23.2307H1027.79ZM985.482 -19.0776C1008.85 -19.0776 1027.79 -0.135554 1027.79 23.2307H1033.79C1033.79 -3.44926 1012.16 -25.0776 985.482 -25.0776V-19.0776ZM974.25 -17.5711C977.823 -18.5525 981.589 -19.0776 985.482 -19.0776V-25.0776C981.047 -25.0776 976.747 -24.4792 972.661 -23.3568L974.25 -17.5711Z" fill="#1C1C1D" mask="url(#path-18-inside-9_40_184)"/>
</g>
<defs>
<clipPath id="clip0_40_184">
<rect width="1440" height="810" fill="white"/>
</clipPath>
</defs>
</svg>
