<svg width="810" height="819" viewBox="0 0 810 819" fill="none" xmlns="http://www.w3.org/2000/svg">
<mask id="path-1-inside-1_6_2448" fill="white">
<path fill-rule="evenodd" clip-rule="evenodd" d="M185.97 709.55C195.016 694.256 211.677 684 230.733 684C252.855 684 271.749 697.822 279.249 717.301C296.667 725.694 308.688 743.516 308.688 764.146C308.688 783.406 298.211 800.219 282.645 809.196C281.354 836.75 258.606 858.693 230.733 858.693C227.921 858.693 225.16 858.47 222.469 858.04C212.966 868.445 199.288 874.973 184.085 874.973C173.935 874.973 164.465 872.063 156.463 867.032C147.128 880.887 131.294 890 113.332 890C91.9717 890 73.6216 877.114 65.6311 858.692C29.3448 858.462 0 828.976 0 792.635C0 756.153 29.5751 726.578 66.0579 726.578C66.7016 726.578 67.3431 726.587 67.9824 726.605C74.1146 704.734 94.1981 688.696 118.028 688.696C135.242 688.696 150.501 697.066 159.959 709.957C164.352 708.751 168.978 708.106 173.754 708.106C177.962 708.106 182.052 708.606 185.97 709.55Z"/>
</mask>
<path fill-rule="evenodd" clip-rule="evenodd" d="M185.97 709.55C195.016 694.256 211.677 684 230.733 684C252.855 684 271.749 697.822 279.249 717.301C296.667 725.694 308.688 743.516 308.688 764.146C308.688 783.406 298.211 800.219 282.645 809.196C281.354 836.75 258.606 858.693 230.733 858.693C227.921 858.693 225.16 858.47 222.469 858.04C212.966 868.445 199.288 874.973 184.085 874.973C173.935 874.973 164.465 872.063 156.463 867.032C147.128 880.887 131.294 890 113.332 890C91.9717 890 73.6216 877.114 65.6311 858.692C29.3448 858.462 0 828.976 0 792.635C0 756.153 29.5751 726.578 66.0579 726.578C66.7016 726.578 67.3431 726.587 67.9824 726.605C74.1146 704.734 94.1981 688.696 118.028 688.696C135.242 688.696 150.501 697.066 159.959 709.957C164.352 708.751 168.978 708.106 173.754 708.106C177.962 708.106 182.052 708.606 185.97 709.55Z" fill="white"/>
<path d="M185.97 709.55L185.268 712.467L187.423 712.986L188.552 711.078L185.97 709.55ZM279.249 717.301L276.449 718.379L276.876 719.488L277.947 720.004L279.249 717.301ZM282.645 809.196L281.146 806.598L279.725 807.417L279.648 809.056L282.645 809.196ZM222.469 858.04L222.943 855.078L221.345 854.822L220.254 856.017L222.469 858.04ZM156.463 867.032L158.06 864.493L155.599 862.945L153.975 865.356L156.463 867.032ZM65.6311 858.692L68.3834 857.498L67.6053 855.704L65.6501 855.692L65.6311 858.692ZM67.9824 726.605L67.8966 729.604L70.2385 729.671L70.871 727.415L67.9824 726.605ZM159.959 709.957L157.54 711.732L158.761 713.397L160.753 712.85L159.959 709.957ZM188.552 711.078C197.081 696.659 212.781 687 230.733 687V681C210.573 681 192.952 691.854 183.388 708.023L188.552 711.078ZM230.733 687C251.573 687 269.38 700.019 276.449 718.379L282.048 716.223C274.117 695.625 254.137 681 230.733 681V687ZM311.688 764.146C311.688 742.321 298.968 723.473 280.551 714.598L277.947 720.004C294.367 727.916 305.688 744.712 305.688 764.146H311.688ZM284.144 811.795C300.6 802.304 311.688 784.522 311.688 764.146H305.688C305.688 782.29 295.821 798.134 281.146 806.598L284.144 811.795ZM230.733 861.693C260.216 861.693 284.276 838.484 285.642 809.337L279.648 809.056C278.432 835.017 256.996 855.693 230.733 855.693V861.693ZM221.996 861.002C224.843 861.457 227.762 861.693 230.733 861.693V855.693C228.08 855.693 225.478 855.483 222.943 855.078L221.996 861.002ZM184.085 877.973C200.166 877.973 214.637 871.065 224.684 860.063L220.254 856.017C211.295 865.826 198.41 871.973 184.085 871.973V877.973ZM154.866 869.572C163.333 874.895 173.354 877.973 184.085 877.973V871.973C174.517 871.973 165.597 869.232 158.06 864.493L154.866 869.572ZM113.332 893C132.334 893 149.083 883.356 158.951 868.709L153.975 865.356C145.174 878.419 130.254 887 113.332 887V893ZM62.8789 859.886C71.3279 879.365 90.7341 893 113.332 893V887C93.2094 887 75.9153 874.863 68.3834 857.498L62.8789 859.886ZM-3 792.635C-3 830.626 27.6774 861.452 65.6121 861.692L65.6501 855.692C31.0121 855.473 3 827.325 3 792.635H-3ZM66.0579 723.578C27.9183 723.578 -3 754.496 -3 792.635H3C3 757.81 31.232 729.578 66.0579 729.578V723.578ZM68.0681 723.606C67.4003 723.587 66.7302 723.578 66.0579 723.578V729.578C66.673 729.578 67.2859 729.586 67.8966 729.604L68.0681 723.606ZM118.028 685.696C92.8182 685.696 71.5795 702.663 65.0938 725.795L70.871 727.415C76.6496 706.805 95.578 691.696 118.028 691.696V685.696ZM162.378 708.183C152.379 694.554 136.238 685.696 118.028 685.696V691.696C134.246 691.696 148.623 699.577 157.54 711.732L162.378 708.183ZM173.754 705.106C168.707 705.106 163.814 705.787 159.164 707.064L160.753 712.85C164.89 711.714 169.249 711.106 173.754 711.106V705.106ZM186.673 706.634C182.527 705.635 178.2 705.106 173.754 705.106V711.106C177.723 711.106 181.578 711.578 185.268 712.467L186.673 706.634Z" fill="black" mask="url(#path-1-inside-1_6_2448)"/>
<mask id="path-3-inside-2_6_2448" fill="white">
<path fill-rule="evenodd" clip-rule="evenodd" d="M311.887 30.822C298.177 12.1331 276.056 0 251.101 0C216.556 0 187.442 23.2501 178.552 54.9557C177.625 54.9291 176.695 54.9158 175.762 54.9158C122.874 54.9158 80 97.79 80 150.678C80 203.36 122.54 246.105 175.143 246.438C186.727 273.144 213.329 291.825 244.293 291.825C270.333 291.825 293.288 278.614 306.82 258.529C318.42 265.822 332.149 270.04 346.863 270.04C388.472 270.04 422.202 236.31 422.202 194.701C422.202 172.877 412.922 153.22 398.093 139.461C403.916 128.769 407.225 116.51 407.225 103.478C407.225 61.8692 373.495 28.1388 331.886 28.1388C324.962 28.1388 318.256 29.0729 311.887 30.822Z"/>
</mask>
<path fill-rule="evenodd" clip-rule="evenodd" d="M311.887 30.822C298.177 12.1331 276.056 0 251.101 0C216.556 0 187.442 23.2501 178.552 54.9557C177.625 54.9291 176.695 54.9158 175.762 54.9158C122.874 54.9158 80 97.79 80 150.678C80 203.36 122.54 246.105 175.143 246.438C186.727 273.144 213.329 291.825 244.293 291.825C270.333 291.825 293.288 278.614 306.82 258.529C318.42 265.822 332.149 270.04 346.863 270.04C388.472 270.04 422.202 236.31 422.202 194.701C422.202 172.877 412.922 153.22 398.093 139.461C403.916 128.769 407.225 116.51 407.225 103.478C407.225 61.8692 373.495 28.1388 331.886 28.1388C324.962 28.1388 318.256 29.0729 311.887 30.822Z" fill="white"/>
<path d="M311.887 30.822L309.468 32.5965L310.69 34.2619L312.682 33.7149L311.887 30.822ZM178.552 54.9557L178.466 57.9544L180.808 58.0214L181.441 55.7656L178.552 54.9557ZM175.143 246.438L177.896 245.244L177.118 243.451L175.162 243.438L175.143 246.438ZM306.82 258.529L308.416 255.989L305.956 254.442L304.332 256.853L306.82 258.529ZM398.093 139.461L395.458 138.026L394.343 140.074L396.053 141.66L398.093 139.461ZM314.306 29.0475C300.055 9.62137 277.052 -3 251.101 -3V3C275.06 3 296.299 14.6448 309.468 32.5965L314.306 29.0475ZM251.101 -3C215.176 -3 184.907 21.1791 175.663 54.1457L181.441 55.7656C189.977 25.321 217.936 3 251.101 3V-3ZM178.638 51.9569C177.682 51.9296 176.724 51.9158 175.762 51.9158V57.9158C176.667 57.9158 177.568 57.9287 178.466 57.9544L178.638 51.9569ZM175.762 51.9158C121.217 51.9158 77 96.1331 77 150.678H83C83 99.4468 124.531 57.9158 175.762 57.9158V51.9158ZM77 150.678C77 205.01 120.873 249.095 175.124 249.438L175.162 243.438C124.208 243.116 83 201.709 83 150.678H77ZM172.391 247.632C184.433 275.395 212.091 294.825 244.293 294.825V288.825C214.566 288.825 189.021 270.893 177.896 245.244L172.391 247.632ZM244.293 294.825C271.373 294.825 295.242 281.083 309.308 260.205L304.332 256.853C291.333 276.146 269.294 288.825 244.293 288.825V294.825ZM305.223 261.069C317.288 268.654 331.568 273.04 346.863 273.04V267.04C332.73 267.04 319.553 262.99 308.416 255.989L305.223 261.069ZM346.863 273.04C390.129 273.04 425.202 237.967 425.202 194.701H419.202C419.202 234.653 386.815 267.04 346.863 267.04V273.04ZM425.202 194.701C425.202 172.008 415.549 151.564 400.133 137.262L396.053 141.66C410.296 154.875 419.202 173.746 419.202 194.701H425.202ZM404.225 103.478C404.225 115.996 401.048 127.763 395.458 138.026L400.728 140.896C406.785 129.774 410.225 117.023 410.225 103.478H404.225ZM331.886 31.1388C371.838 31.1388 404.225 63.5261 404.225 103.478H410.225C410.225 60.2124 375.152 25.1388 331.886 25.1388V31.1388ZM312.682 33.7149C318.794 32.0362 325.233 31.1388 331.886 31.1388V25.1388C324.691 25.1388 317.718 26.1096 311.093 27.9291L312.682 33.7149Z" fill="#1C1C1D" mask="url(#path-3-inside-2_6_2448)"/>
<mask id="path-5-inside-3_6_2448" fill="white">
<path fill-rule="evenodd" clip-rule="evenodd" d="M694.455 310.536C686.21 299.297 672.907 292 657.899 292C637.124 292 619.615 305.982 614.268 325.05C613.711 325.034 613.152 325.026 612.591 325.026C580.784 325.026 555 350.81 555 382.617C555 414.299 580.583 440.006 612.219 440.206C619.185 456.267 635.183 467.501 653.805 467.501C669.465 467.501 683.27 459.556 691.408 447.477C698.384 451.863 706.641 454.4 715.49 454.4C740.513 454.4 760.798 434.115 760.798 409.092C760.798 395.967 755.217 384.145 746.299 375.871C749.801 369.441 751.791 362.068 751.791 354.231C751.791 329.208 731.506 308.922 706.482 308.922C702.318 308.922 698.285 309.484 694.455 310.536Z"/>
</mask>
<path fill-rule="evenodd" clip-rule="evenodd" d="M694.455 310.536C686.21 299.297 672.907 292 657.899 292C637.124 292 619.615 305.982 614.268 325.05C613.711 325.034 613.152 325.026 612.591 325.026C580.784 325.026 555 350.81 555 382.617C555 414.299 580.583 440.006 612.219 440.206C619.185 456.267 635.183 467.501 653.805 467.501C669.465 467.501 683.27 459.556 691.408 447.477C698.384 451.863 706.641 454.4 715.49 454.4C740.513 454.4 760.798 434.115 760.798 409.092C760.798 395.967 755.217 384.145 746.299 375.871C749.801 369.441 751.791 362.068 751.791 354.231C751.791 329.208 731.506 308.922 706.482 308.922C702.318 308.922 698.285 309.484 694.455 310.536Z" fill="white"/>
<path d="M694.455 310.536L692.036 312.311L693.258 313.976L695.25 313.429L694.455 310.536ZM614.268 325.05L614.183 328.049L616.524 328.116L617.157 325.86L614.268 325.05ZM612.219 440.206L614.971 439.012L614.193 437.219L612.238 437.206L612.219 440.206ZM691.408 447.477L693.004 444.937L690.544 443.39L688.92 445.801L691.408 447.477ZM746.299 375.871L743.664 374.436L742.549 376.484L744.258 378.07L746.299 375.871ZM696.874 308.762C688.088 296.785 673.902 289 657.899 289V295C671.911 295 684.332 301.808 692.036 312.311L696.874 308.762ZM657.899 289C635.744 289 617.079 303.912 611.38 324.24L617.157 325.86C622.15 308.053 638.504 295 657.899 295V289ZM614.354 322.051C613.768 322.035 613.18 322.026 612.591 322.026V328.026C613.123 328.026 613.654 328.034 614.183 328.049L614.354 322.051ZM612.591 322.026C579.127 322.026 552 349.153 552 382.617H558C558 352.467 582.441 328.026 612.591 328.026V322.026ZM552 382.617C552 415.95 578.916 442.996 612.2 443.206L612.238 437.206C582.251 437.017 558 412.649 558 382.617H552ZM609.466 441.4C616.891 458.518 633.945 470.501 653.805 470.501V464.501C636.421 464.501 621.479 454.016 614.971 439.012L609.466 441.4ZM653.805 470.501C670.505 470.501 685.224 462.025 693.896 449.153L688.92 445.801C681.315 457.088 668.425 464.501 653.805 464.501V470.501ZM689.811 450.017C697.251 454.695 706.059 457.4 715.49 457.4V451.4C707.222 451.4 699.516 449.032 693.004 444.937L689.811 450.017ZM715.49 457.4C742.169 457.4 763.798 435.772 763.798 409.092H757.798C757.798 432.458 738.856 451.4 715.49 451.4V457.4ZM763.798 409.092C763.798 395.098 757.844 382.49 748.339 373.671L744.258 378.07C752.59 385.8 757.798 396.836 757.798 409.092H763.798ZM748.791 354.231C748.791 361.554 746.932 368.435 743.664 374.436L748.933 377.306C752.669 370.446 754.791 362.582 754.791 354.231H748.791ZM706.482 311.922C729.849 311.922 748.791 330.864 748.791 354.231H754.791C754.791 327.551 733.162 305.922 706.482 305.922V311.922ZM695.25 313.429C698.823 312.447 702.589 311.922 706.482 311.922V305.922C702.047 305.922 697.747 306.521 693.661 307.643L695.25 313.429Z" fill="#1C1C1D" mask="url(#path-5-inside-3_6_2448)"/>
<g filter="url(#filter0_d_6_2448)">
<path d="M636.7 471.6L636.697 471.652L636.695 471.704L621.954 868.795C620.668 903.44 591.266 930.323 556.644 928.509L263.884 913.166C229.851 911.382 203.613 882.504 205.09 848.456L221.123 478.984L221.125 478.956L243.779 109.906C245.917 75.0737 276.329 48.8414 311.098 51.8384L463.515 64.9761L463.625 64.9856L463.735 64.9874L599.355 67.1853C634.953 67.7623 662.78 98.0886 660.3 133.605L636.7 471.6Z" fill="#962EFF" stroke="#1C1C1D" stroke-width="6.34238"/>
<mask id="path-8-inside-4_6_2448" fill="white">
<path fill-rule="evenodd" clip-rule="evenodd" d="M655.945 250.592C654.561 250.503 653.367 251.552 653.278 252.936L649.457 312.208C649.368 313.592 650.417 314.786 651.801 314.875L653.107 314.96C654.491 315.049 655.685 314 655.774 312.616L659.595 253.343C659.684 251.96 658.635 250.766 657.251 250.676L655.945 250.592Z"/>
</mask>
<path d="M645.894 252.46L642.073 311.732L656.841 312.685L660.662 253.412L645.894 252.46ZM651.325 322.259L652.631 322.344L653.583 307.576L652.277 307.491L651.325 322.259ZM663.158 313.092L666.979 253.82L652.211 252.867L648.39 312.14L663.158 313.092ZM657.727 243.292L656.421 243.208L655.469 257.976L656.775 258.061L657.727 243.292ZM666.979 253.82C667.331 248.358 663.189 243.645 657.727 243.292L656.775 258.061C654.081 257.887 652.037 255.562 652.211 252.867L666.979 253.82ZM652.631 322.344C658.093 322.696 662.806 318.554 663.158 313.092L648.39 312.14C648.564 309.445 650.889 307.402 653.583 307.576L652.631 322.344ZM642.073 311.732C641.721 317.194 645.863 321.907 651.325 322.259L652.277 307.491C654.971 307.665 657.015 309.99 656.841 312.685L642.073 311.732ZM660.662 253.412C660.488 256.107 658.163 258.15 655.469 257.976L656.421 243.208C650.959 242.856 646.246 246.998 645.894 252.46L660.662 253.412Z" fill="#1C1C1D" mask="url(#path-8-inside-4_6_2448)"/>
<mask id="path-10-inside-5_6_2448" fill="white">
<path fill-rule="evenodd" clip-rule="evenodd" d="M232.715 232.647C231.401 232.578 230.28 233.588 230.211 234.902L227.097 294.324C227.028 295.638 228.038 296.76 229.352 296.829C230.666 296.897 231.787 295.888 231.856 294.574L234.97 235.151C235.039 233.837 234.03 232.716 232.715 232.647Z"/>
</mask>
<path d="M222.822 234.515L219.708 293.937L234.486 294.712L237.601 235.289L222.822 234.515ZM239.245 294.961L242.359 235.539L227.581 234.764L224.467 294.186L239.245 294.961ZM242.359 235.539C242.642 230.143 238.498 225.541 233.103 225.258L232.328 240.036C229.561 239.891 227.436 237.531 227.581 234.764L242.359 235.539ZM228.965 304.218C234.36 304.501 238.963 300.356 239.245 294.961L224.467 294.186C224.612 291.42 226.972 289.294 229.739 289.439L228.965 304.218ZM219.708 293.937C219.425 299.332 223.569 303.935 228.965 304.218L229.739 289.439C232.506 289.584 234.631 291.945 234.486 294.712L219.708 293.937ZM237.601 235.289C237.456 238.056 235.095 240.181 232.328 240.036L233.103 225.258C227.708 224.975 223.105 229.12 222.822 234.515L237.601 235.289Z" fill="#1C1C1D" mask="url(#path-10-inside-5_6_2448)"/>
<mask id="path-12-inside-6_6_2448" fill="white">
<path fill-rule="evenodd" clip-rule="evenodd" d="M227.794 306.411C226.479 306.343 225.358 307.352 225.289 308.666L222.175 368.089C222.106 369.403 223.116 370.524 224.43 370.593C225.744 370.662 226.865 369.652 226.934 368.338L230.048 308.916C230.117 307.601 229.108 306.48 227.794 306.411Z"/>
</mask>
<path d="M217.9 308.279L214.786 367.701L229.564 368.476L232.679 309.053L217.9 308.279ZM234.323 368.725L237.438 309.303L222.659 308.528L219.545 367.951L234.323 368.725ZM237.438 309.303C237.72 303.908 233.576 299.305 228.181 299.022L227.406 313.801C224.639 313.656 222.514 311.295 222.659 308.528L237.438 309.303ZM224.043 377.982C229.438 378.265 234.041 374.12 234.323 368.725L219.545 367.951C219.69 365.184 222.05 363.058 224.817 363.203L224.043 377.982ZM214.786 367.701C214.503 373.096 218.648 377.699 224.043 377.982L224.817 363.203C227.584 363.348 229.709 365.709 229.564 368.476L214.786 367.701ZM232.679 309.053C232.534 311.82 230.173 313.946 227.406 313.801L228.181 299.022C222.786 298.739 218.183 302.884 217.9 308.279L232.679 309.053Z" fill="#1C1C1D" mask="url(#path-12-inside-6_6_2448)"/>
<path d="M235.102 195.959C235.025 191.701 235.319 187.309 235.768 183.242L235.102 195.959ZM234.253 205.754C234.254 205.754 234.259 205.755 234.271 205.757C234.259 205.755 234.253 205.754 234.253 205.754Z" stroke="#1C1C1D" stroke-width="7.39944"/>
<path fill-rule="evenodd" clip-rule="evenodd" d="M276.37 147.521C270.46 147.019 265.38 151.476 265 157.395L244.408 478.062L231.385 799.294C231.184 804.267 230.723 809.753 235.627 810.599C245.056 812.226 267.872 814.505 320.659 817.272C414.888 822.21 552.642 825.977 591.411 826.986C597.249 827.137 602.019 822.586 602.163 816.747C602.943 785.068 605.375 688.624 607.645 622.935C613.095 465.186 631.417 230.369 635.672 177.069C636.155 171.018 631.487 165.914 625.418 165.766C601.789 165.188 545.417 163.865 503.897 163.32C457.863 162.715 316.434 150.928 276.37 147.521Z" fill="white" stroke="#1C1C1D" stroke-width="3.17119"/>
<path fill-rule="evenodd" clip-rule="evenodd" d="M506.017 116.903C508.927 117.055 511.409 114.818 511.561 111.906C511.714 108.994 509.479 106.51 506.57 106.357C503.66 106.205 501.178 108.442 501.025 111.354C500.873 114.266 503.108 116.75 506.017 116.903Z" fill="white" stroke="#1C1C1D" stroke-width="2.11413"/>
<path fill-rule="evenodd" clip-rule="evenodd" d="M422.813 101.968C420.192 101.83 417.956 103.844 417.819 106.464C417.681 109.085 419.695 111.321 422.316 111.459L484.469 114.716C487.09 114.853 489.326 112.84 489.463 110.219C489.601 107.598 487.588 105.362 484.967 105.225L422.813 101.968Z" fill="white" stroke="#1C1C1D" stroke-width="2.11413"/>
<path fill-rule="evenodd" clip-rule="evenodd" d="M385.796 112.717C389.869 112.931 393.344 109.799 393.558 105.722C393.772 101.645 390.643 98.1668 386.57 97.9533C382.496 97.7398 379.021 100.872 378.807 104.949C378.594 109.026 381.723 112.504 385.796 112.717Z" fill="white" stroke="#1C1C1D" stroke-width="2.11413"/>
<g clip-path="url(#clip0_6_2448)">
<g filter="url(#filter1_d_6_2448)">
<path d="M263.415 715.993C263.723 710.116 268.707 705.618 274.58 705.988C308.972 708.155 419.854 715.072 500.578 719.303C522.117 720.432 552.175 721.221 568.098 721.59C574.071 721.729 578.742 726.771 578.429 732.738L576.78 764.204C576.479 769.953 571.698 774.404 565.945 774.198C532.884 773.015 427.269 768.952 353.719 762.893C327.371 760.722 290.088 759.134 271.953 758.437C266.041 758.209 261.465 753.194 261.775 747.285L263.415 715.993Z" fill="white"/>
<path d="M263.943 716.021C264.236 710.434 268.971 706.164 274.546 706.515C308.939 708.683 419.823 715.6 500.551 719.831C522.098 720.96 552.163 721.75 568.085 722.119C573.761 722.25 578.198 727.041 577.901 732.711L576.252 764.176C575.966 769.642 571.423 773.865 565.963 773.67C532.902 772.487 427.298 768.424 353.762 762.366C327.401 760.195 290.107 758.606 271.973 757.909C266.356 757.693 262.009 752.928 262.303 747.313L263.943 716.021Z" stroke="#1C1C1D" stroke-width="1.05706"/>
</g>
<path d="M381.036 745.141C380.079 745.091 379.197 744.892 378.391 744.545C377.596 744.198 376.915 743.734 376.347 743.151C375.78 742.556 375.347 741.873 375.049 741.101C374.762 740.33 374.642 739.499 374.688 738.609C374.736 737.709 374.942 736.895 375.307 736.169C375.685 735.433 376.186 734.804 376.812 734.283C377.438 733.752 378.165 733.355 378.991 733.094C379.829 732.833 380.727 732.727 381.684 732.777C382.652 732.828 383.534 733.027 384.328 733.373C385.123 733.72 385.804 734.19 386.372 734.784C386.939 735.367 387.367 736.045 387.654 736.816C387.953 737.577 388.079 738.408 388.031 739.309C387.985 740.198 387.773 741.011 387.395 741.748C387.029 742.485 386.533 743.12 385.907 743.652C385.281 744.172 384.555 744.563 383.728 744.825C382.902 745.086 382.004 745.192 381.036 745.141ZM381.205 741.915C381.577 741.934 381.923 741.885 382.246 741.766C382.579 741.648 382.871 741.471 383.12 741.236C383.382 740.99 383.589 740.691 383.743 740.337C383.898 739.973 383.987 739.56 384.012 739.098C384.036 738.636 383.99 738.222 383.873 737.855C383.758 737.476 383.583 737.156 383.348 736.895C383.125 736.624 382.854 736.412 382.534 736.26C382.226 736.108 381.886 736.023 381.515 736.003C381.143 735.984 380.791 736.033 380.457 736.151C380.135 736.27 379.843 736.452 379.581 736.698C379.332 736.933 379.13 737.233 378.975 737.598C378.821 737.951 378.732 738.358 378.708 738.82C378.684 739.282 378.73 739.702 378.845 740.081C378.962 740.448 379.131 740.767 379.354 741.039C379.589 741.299 379.86 741.506 380.168 741.657C380.488 741.81 380.833 741.895 381.205 741.915ZM391.607 745.424L391.978 738.347L392.763 739.201L389.115 739.01L389.271 736.037L398.712 736.532L398.556 739.505L394.908 739.314L395.778 738.546L395.407 745.623L391.607 745.424ZM399.801 745.853L400.285 736.615L405.47 736.886C406.709 736.951 407.66 737.216 408.325 737.679C408.99 738.132 409.302 738.741 409.262 739.507C409.223 740.25 408.877 740.83 408.223 741.248C407.569 741.654 406.707 741.829 405.638 741.773L405.966 741.011C407.103 741.07 407.953 741.324 408.517 741.771C409.092 742.219 409.358 742.843 409.317 743.642C409.273 744.464 408.912 745.106 408.233 745.567C407.566 746.017 406.574 746.208 405.256 746.139L399.801 745.853ZM403.269 743.664L405.043 743.757C405.324 743.772 405.536 743.721 405.677 743.604C405.819 743.487 405.895 743.322 405.906 743.108C405.918 742.883 405.859 742.716 405.729 742.607C405.6 742.488 405.395 742.42 405.113 742.406L403.34 742.313L403.269 743.664ZM403.438 740.438L404.941 740.517C405.234 740.532 405.445 740.487 405.575 740.381C405.716 740.275 405.792 740.115 405.804 739.901C405.815 739.676 405.756 739.515 405.626 739.418C405.507 739.31 405.301 739.248 405.009 739.233L403.505 739.154L403.438 740.438ZM415.872 746.865C414.746 746.806 413.772 746.546 412.949 746.085C412.137 745.625 411.52 745.022 411.096 744.277C410.673 743.521 410.485 742.687 410.533 741.775C410.582 740.841 410.85 740.025 411.338 739.328C411.838 738.631 412.492 738.101 413.302 737.737C414.122 737.374 415.028 737.218 416.019 737.27C416.931 737.318 417.76 737.542 418.507 737.942C419.265 738.343 419.857 738.91 420.281 739.644C420.717 740.378 420.907 741.269 420.852 742.316C420.845 742.451 420.832 742.603 420.812 742.771C420.792 742.928 420.773 743.074 420.755 743.208L413.644 742.836L413.741 740.995L418.824 741.261L417.363 741.676C417.382 741.316 417.33 741.008 417.208 740.753C417.098 740.488 416.934 740.282 416.716 740.135C416.498 739.976 416.232 739.889 415.916 739.873C415.601 739.856 415.322 739.915 415.077 740.049C414.845 740.172 414.66 740.36 414.523 740.612C414.386 740.854 414.308 741.154 414.289 741.515L414.259 742.089C414.238 742.483 414.3 742.825 414.442 743.115C414.585 743.405 414.799 743.63 415.084 743.792C415.37 743.942 415.721 744.029 416.138 744.05C416.566 744.073 416.918 744.035 417.194 743.936C417.481 743.839 417.783 743.685 418.099 743.476L419.986 745.59C419.511 746.051 418.934 746.393 418.256 746.617C417.59 746.831 416.795 746.913 415.872 746.865ZM424.321 747.138L424.692 740.061L425.477 740.916L421.829 740.724L421.985 737.752L431.426 738.247L431.271 741.219L427.622 741.028L428.492 740.261L428.122 747.337L424.321 747.138ZM432.515 747.568L432.999 738.329L436.8 738.528L436.581 742.7L439.992 738.695L443.505 738.88L443.021 748.118L439.22 747.919L439.44 743.73L436.045 747.753L432.515 747.568ZM447.406 748.348L447.777 741.271L448.562 742.125L444.914 741.934L445.07 738.962L454.511 739.456L454.356 742.429L450.707 742.238L451.577 741.47L451.207 748.547L447.406 748.348ZM461.782 742.632C463.021 742.697 463.958 743.017 464.594 743.592C465.23 744.168 465.522 744.951 465.47 745.941C465.416 746.977 464.985 747.773 464.176 748.329C463.379 748.886 462.311 749.129 460.971 749.059L455.6 748.778L456.084 739.539L459.885 739.738L459.738 742.525L461.782 742.632ZM460.717 746.471C460.976 746.485 461.182 746.428 461.336 746.301C461.489 746.173 461.574 745.963 461.589 745.67C461.604 745.378 461.542 745.165 461.402 745.034C461.262 744.902 461.063 744.83 460.804 744.816L459.622 744.754L459.535 746.409L460.717 746.471Z" fill="#1C1C1D"/>
</g>
<g filter="url(#filter2_d_6_2448)">
<rect x="288.541" y="397.826" width="144.541" height="132.001" rx="10.5706" transform="rotate(3 288.541 397.826)" fill="#FFBD12"/>
<rect x="289.541" y="398.937" width="142.427" height="129.887" rx="9.51356" transform="rotate(3 289.541 398.937)" stroke="#1C1C1D" stroke-width="2.11413"/>
</g>
<path d="M346.552 472.977L355.754 454.936L359.976 455.157L367.268 474.063L362.782 473.828L356.881 457.165L358.57 457.253L350.933 473.207L346.552 472.977ZM350.876 469.235L352.181 466.048L361.682 466.546L362.673 469.853L350.876 469.235Z" fill="#1C1C1D"/>
<g filter="url(#filter3_d_6_2448)">
<rect x="281.135" y="539.138" width="144.541" height="132.001" rx="10.5706" transform="rotate(3 281.135 539.138)" fill="#FA6648"/>
<rect x="282.135" y="540.249" width="142.427" height="129.887" rx="9.51356" transform="rotate(3 282.135 540.249)" stroke="#1C1C1D" stroke-width="2.11413"/>
</g>
<path d="M351.533 615.256C350.107 615.181 348.791 614.883 347.584 614.361C346.394 613.822 345.374 613.098 344.522 612.189C343.67 611.28 343.019 610.231 342.57 609.043C342.138 607.856 341.958 606.568 342.031 605.178C342.104 603.788 342.417 602.526 342.971 601.39C343.542 600.256 344.299 599.281 345.241 598.466C346.201 597.652 347.3 597.048 348.538 596.654C349.777 596.243 351.118 596.075 352.56 596.15C354.161 596.234 355.589 596.591 356.844 597.222C358.117 597.835 359.166 598.702 359.989 599.821L357.112 602.211C356.516 601.456 355.841 600.883 355.085 600.49C354.33 600.08 353.495 599.851 352.58 599.803C351.718 599.758 350.919 599.857 350.183 600.101C349.447 600.345 348.801 600.717 348.246 601.217C347.69 601.717 347.244 602.32 346.907 603.026C346.588 603.732 346.405 604.525 346.359 605.405C346.313 606.285 346.412 607.092 346.656 607.829C346.917 608.566 347.298 609.212 347.798 609.767C348.298 610.323 348.901 610.76 349.608 611.079C350.314 611.399 351.099 611.581 351.961 611.626C352.876 611.674 353.729 611.542 354.522 611.231C355.315 610.902 356.048 610.385 356.72 609.679L359.332 612.357C358.396 613.384 357.263 614.145 355.931 614.639C354.617 615.135 353.151 615.34 351.533 615.256Z" fill="white"/>
<g filter="url(#filter4_d_6_2448)">
<rect x="442.366" y="405.888" width="144.541" height="132.001" rx="10.5706" transform="rotate(3 442.366 405.888)" fill="#7711DD"/>
<rect x="443.367" y="406.999" width="142.427" height="129.887" rx="9.51356" transform="rotate(3 443.367 406.999)" stroke="#1C1C1D" stroke-width="2.11413"/>
</g>
<path d="M503.651 481.211L504.619 462.737L513.644 463.21C515.967 463.332 517.685 463.863 518.801 464.804C519.933 465.745 520.462 466.937 520.386 468.38C520.335 469.348 520.054 470.18 519.541 470.876C519.029 471.555 518.349 472.066 517.502 472.41C516.655 472.754 515.695 472.898 514.622 472.841L515.18 471.786C516.341 471.846 517.36 472.094 518.237 472.528C519.115 472.944 519.781 473.535 520.235 474.3C520.706 475.065 520.914 475.985 520.858 477.058C520.775 478.642 520.085 479.849 518.789 480.681C517.494 481.495 515.632 481.839 513.204 481.711L503.651 481.211ZM508.068 478.214L513.056 478.475C514.165 478.533 515.009 478.401 515.591 478.079C516.191 477.74 516.512 477.174 516.553 476.383C516.594 475.609 516.333 475.022 515.772 474.622C515.229 474.205 514.404 473.968 513.295 473.91L507.991 473.632L508.154 470.518L512.72 470.757C513.758 470.811 514.559 470.677 515.122 470.354C515.705 470.014 516.015 469.474 516.054 468.735C516.092 468.014 515.839 467.463 515.294 467.081C514.768 466.683 513.986 466.457 512.948 466.402L508.699 466.18L508.068 478.214Z" fill="white"/>
<g filter="url(#filter5_d_6_2448)">
<rect x="434.961" y="547.199" width="144.541" height="132.001" rx="10.5706" transform="rotate(3 434.961 547.199)" fill="#FFB0BC"/>
<rect x="435.961" y="548.31" width="142.427" height="129.887" rx="9.51356" transform="rotate(3 435.961 548.31)" stroke="#1C1C1D" stroke-width="2.11413"/>
</g>
<path d="M494.586 622.435L495.554 603.962L503.947 604.402C505.952 604.507 507.7 604.986 509.19 605.841C510.681 606.678 511.822 607.805 512.612 609.222C513.402 610.64 513.748 612.29 513.649 614.172C513.551 616.037 513.035 617.642 512.1 618.987C511.166 620.314 509.914 621.324 508.342 622.018C506.772 622.694 504.984 622.98 502.978 622.875L494.586 622.435ZM499.046 619.149L502.951 619.354C504.183 619.418 505.259 619.246 506.18 618.835C507.12 618.408 507.859 617.776 508.397 616.94C508.952 616.105 509.26 615.106 509.321 613.945C509.383 612.767 509.181 611.742 508.715 610.87C508.267 609.982 507.598 609.286 506.707 608.78C505.835 608.258 504.783 607.965 503.552 607.901L499.646 607.696L499.046 619.149Z" fill="#1C1C1D"/>
<g filter="url(#filter6_d_6_2448)">
<rect x="289.397" y="220.219" width="315.459" height="155.233" rx="21.1413" transform="rotate(3 289.397 220.219)" fill="white"/>
<rect x="289.397" y="220.219" width="315.459" height="155.233" rx="21.1413" transform="rotate(3 289.397 220.219)" stroke="#1C1C1D" stroke-width="3.17119"/>
</g>
<mask id="path-36-inside-7_6_2448" fill="white">
<path d="M495.619 341.368C497.665 342.915 498.083 345.842 496.388 347.768C489.741 355.32 481.351 361.173 471.919 364.8C461.037 368.984 449.202 370.04 437.752 367.847C426.302 365.654 415.694 360.3 407.128 352.392C398.562 344.483 392.381 334.335 389.284 323.096C386.186 311.857 386.296 299.975 389.6 288.795C392.905 277.615 399.272 267.583 407.982 259.833C416.692 252.084 427.397 246.927 438.886 244.946C448.845 243.229 459.049 243.958 468.626 247.038C471.068 247.824 472.209 250.551 471.244 252.928C470.279 255.305 467.574 256.429 465.122 255.676C457.161 253.229 448.715 252.68 440.465 254.102C430.685 255.789 421.573 260.179 414.158 266.775C406.744 273.371 401.323 281.911 398.51 291.428C395.697 300.946 395.604 311.06 398.241 320.627C400.878 330.195 406.139 338.833 413.431 345.565C420.722 352.298 429.752 356.855 439.499 358.722C449.246 360.588 459.321 359.69 468.584 356.128C476.398 353.123 483.37 348.325 488.953 342.145C490.673 340.241 493.572 339.821 495.619 341.368Z"/>
</mask>
<path d="M495.619 341.368C497.665 342.915 498.083 345.842 496.388 347.768C489.741 355.32 481.351 361.173 471.919 364.8C461.037 368.984 449.202 370.04 437.752 367.847C426.302 365.654 415.694 360.3 407.128 352.392C398.562 344.483 392.381 334.335 389.284 323.096C386.186 311.857 386.296 299.975 389.6 288.795C392.905 277.615 399.272 267.583 407.982 259.833C416.692 252.084 427.397 246.927 438.886 244.946C448.845 243.229 459.049 243.958 468.626 247.038C471.068 247.824 472.209 250.551 471.244 252.928C470.279 255.305 467.574 256.429 465.122 255.676C457.161 253.229 448.715 252.68 440.465 254.102C430.685 255.789 421.573 260.179 414.158 266.775C406.744 273.371 401.323 281.911 398.51 291.428C395.697 300.946 395.604 311.06 398.241 320.627C400.878 330.195 406.139 338.833 413.431 345.565C420.722 352.298 429.752 356.855 439.499 358.722C449.246 360.588 459.321 359.69 468.584 356.128C476.398 353.123 483.37 348.325 488.953 342.145C490.673 340.241 493.572 339.821 495.619 341.368Z" fill="#1BDBC4" stroke="#1C1C1D" stroke-width="4" mask="url(#path-36-inside-7_6_2448)"/>
<mask id="path-37-inside-8_6_2448" fill="white">
<path d="M483.934 332.534C486.004 334.099 486.43 337.066 484.669 338.973C479.702 344.352 473.553 348.536 466.681 351.178C458.342 354.385 449.271 355.194 440.497 353.513C431.722 351.833 423.592 347.73 417.028 341.669C410.464 335.609 405.727 327.832 403.353 319.218C400.979 310.605 401.063 301.499 403.595 292.932C406.128 284.364 411.008 276.675 417.683 270.737C424.358 264.798 432.562 260.846 441.366 259.328C448.622 258.077 456.046 258.52 463.067 260.595C465.557 261.331 466.711 264.096 465.735 266.501C464.758 268.907 462.021 270.035 459.514 269.359C454.137 267.909 448.489 267.639 442.963 268.592C435.888 269.812 429.296 272.988 423.931 277.76C418.567 282.533 414.646 288.711 412.611 295.596C410.576 302.481 410.508 309.799 412.416 316.721C414.323 323.642 418.13 329.892 423.405 334.762C428.68 339.633 435.213 342.93 442.265 344.28C449.316 345.631 456.605 344.981 463.307 342.404C468.54 340.391 473.252 337.266 477.128 333.266C478.934 331.402 481.863 330.968 483.934 332.534Z"/>
</mask>
<path d="M483.934 332.534C486.004 334.099 486.43 337.066 484.669 338.973C479.702 344.352 473.553 348.536 466.681 351.178C458.342 354.385 449.271 355.194 440.497 353.513C431.722 351.833 423.592 347.73 417.028 341.669C410.464 335.609 405.727 327.832 403.353 319.218C400.979 310.605 401.063 301.499 403.595 292.932C406.128 284.364 411.008 276.675 417.683 270.737C424.358 264.798 432.562 260.846 441.366 259.328C448.622 258.077 456.046 258.52 463.067 260.595C465.557 261.331 466.711 264.096 465.735 266.501C464.758 268.907 462.021 270.035 459.514 269.359C454.137 267.909 448.489 267.639 442.963 268.592C435.888 269.812 429.296 272.988 423.931 277.76C418.567 282.533 414.646 288.711 412.611 295.596C410.576 302.481 410.508 309.799 412.416 316.721C414.323 323.642 418.13 329.892 423.405 334.762C428.68 339.633 435.213 342.93 442.265 344.28C449.316 345.631 456.605 344.981 463.307 342.404C468.54 340.391 473.252 337.266 477.128 333.266C478.934 331.402 481.863 330.968 483.934 332.534Z" fill="#F95A2C" stroke="#1C1C1D" stroke-width="4" mask="url(#path-37-inside-8_6_2448)"/>
<mask id="path-38-inside-9_6_2448" fill="white">
<path d="M471.398 323.056C473.706 324.801 474.187 328.124 472.096 330.123C468.98 333.105 465.291 335.452 461.233 337.012C455.538 339.202 449.344 339.754 443.352 338.607C437.359 337.459 431.807 334.657 427.324 330.518C422.841 326.379 419.606 321.068 417.985 315.186C416.364 309.304 416.421 303.085 418.151 297.234C419.88 291.382 423.213 286.132 427.771 282.076C432.33 278.021 437.933 275.322 443.945 274.285C448.229 273.546 452.6 273.672 456.804 274.636C459.624 275.282 460.913 278.383 459.824 281.064C458.736 283.745 455.675 284.967 452.814 284.536C450.473 284.183 448.08 284.204 445.726 284.61C441.64 285.315 437.833 287.149 434.736 289.904C431.638 292.66 429.374 296.228 428.198 300.204C427.023 304.18 426.984 308.405 428.086 312.402C429.187 316.399 431.386 320.008 434.432 322.82C437.478 325.633 441.25 327.537 445.322 328.316C449.394 329.096 453.603 328.721 457.473 327.233C459.703 326.375 461.769 325.168 463.598 323.666C465.834 321.829 469.09 321.311 471.398 323.056Z"/>
</mask>
<path d="M471.398 323.056C473.706 324.801 474.187 328.124 472.096 330.123C468.98 333.105 465.291 335.452 461.233 337.012C455.538 339.202 449.344 339.754 443.352 338.607C437.359 337.459 431.807 334.657 427.324 330.518C422.841 326.379 419.606 321.068 417.985 315.186C416.364 309.304 416.421 303.085 418.151 297.234C419.88 291.382 423.213 286.132 427.771 282.076C432.33 278.021 437.933 275.322 443.945 274.285C448.229 273.546 452.6 273.672 456.804 274.636C459.624 275.282 460.913 278.383 459.824 281.064C458.736 283.745 455.675 284.967 452.814 284.536C450.473 284.183 448.08 284.204 445.726 284.61C441.64 285.315 437.833 287.149 434.736 289.904C431.638 292.66 429.374 296.228 428.198 300.204C427.023 304.18 426.984 308.405 428.086 312.402C429.187 316.399 431.386 320.008 434.432 322.82C437.478 325.633 441.25 327.537 445.322 328.316C449.394 329.096 453.603 328.721 457.473 327.233C459.703 326.375 461.769 325.168 463.598 323.666C465.834 321.829 469.09 321.311 471.398 323.056Z" fill="#FFBD12" stroke="#1C1C1D" stroke-width="4" mask="url(#path-38-inside-9_6_2448)"/>
</g>
<mask id="path-39-inside-10_6_2448" fill="white">
<path fill-rule="evenodd" clip-rule="evenodd" d="M951.946 708.309C975.645 719.729 992 743.978 992 772.046C992 798.251 977.745 821.127 956.566 833.342C954.81 870.832 923.859 900.688 885.935 900.688C882.109 900.688 878.353 900.384 874.692 899.799C861.761 913.956 843.151 922.838 822.467 922.838C808.656 922.838 795.771 918.879 784.883 912.034C772.183 930.885 750.639 943.284 726.199 943.284C697.136 943.284 672.169 925.751 661.297 900.686C611.926 900.373 572 860.254 572 810.809C572 761.171 612.24 720.931 661.878 720.931C662.754 720.931 663.627 720.943 664.497 720.968C672.84 691.211 700.166 669.389 732.588 669.389C756.01 669.389 776.772 680.777 789.639 698.317C795.617 696.676 801.911 695.799 808.41 695.799C814.134 695.799 819.7 696.479 825.031 697.764C837.339 676.955 860.007 663 885.935 663C916.034 663 941.741 681.806 951.946 708.309Z"/>
</mask>
<path fill-rule="evenodd" clip-rule="evenodd" d="M951.946 708.309C975.645 719.729 992 743.978 992 772.046C992 798.251 977.745 821.127 956.566 833.342C954.81 870.832 923.859 900.688 885.935 900.688C882.109 900.688 878.353 900.384 874.692 899.799C861.761 913.956 843.151 922.838 822.467 922.838C808.656 922.838 795.771 918.879 784.883 912.034C772.183 930.885 750.639 943.284 726.199 943.284C697.136 943.284 672.169 925.751 661.297 900.686C611.926 900.373 572 860.254 572 810.809C572 761.171 612.24 720.931 661.878 720.931C662.754 720.931 663.627 720.943 664.497 720.968C672.84 691.211 700.166 669.389 732.588 669.389C756.01 669.389 776.772 680.777 789.639 698.317C795.617 696.676 801.911 695.799 808.41 695.799C814.134 695.799 819.7 696.479 825.031 697.764C837.339 676.955 860.007 663 885.935 663C916.034 663 941.741 681.806 951.946 708.309Z" fill="#7711DD"/>
<path d="M951.946 708.309L949.146 709.387L949.573 710.496L950.643 711.012L951.946 708.309ZM956.566 833.342L955.068 830.743L953.646 831.563L953.57 833.202L956.566 833.342ZM874.692 899.799L875.165 896.836L873.567 896.581L872.476 897.776L874.692 899.799ZM784.883 912.034L786.48 909.494L784.019 907.947L782.395 910.358L784.883 912.034ZM661.297 900.686L664.05 899.492L663.272 897.698L661.316 897.686L661.297 900.686ZM664.497 720.968L664.411 723.967L666.753 724.034L667.385 721.778L664.497 720.968ZM789.639 698.317L787.221 700.092L788.442 701.757L790.434 701.21L789.639 698.317ZM825.031 697.764L824.328 700.68L826.484 701.199L827.613 699.291L825.031 697.764ZM995 772.046C995 742.782 977.946 717.507 953.248 705.607L950.643 711.012C973.345 721.95 989 745.173 989 772.046H995ZM958.065 835.941C980.135 823.212 995 799.367 995 772.046H989C989 797.136 975.355 819.042 955.068 830.743L958.065 835.941ZM885.935 903.688C925.469 903.688 957.733 872.565 959.563 833.482L953.57 833.202C951.888 869.099 922.25 897.688 885.935 897.688V903.688ZM874.218 902.761C878.036 903.371 881.95 903.688 885.935 903.688V897.688C882.268 897.688 878.671 897.396 875.165 896.836L874.218 902.761ZM822.467 925.838C844.029 925.838 863.432 916.576 876.907 901.822L872.476 897.776C860.091 911.337 842.273 919.838 822.467 919.838V925.838ZM783.287 914.574C794.639 921.711 808.075 925.838 822.467 925.838V919.838C809.238 919.838 796.903 916.047 786.48 909.494L783.287 914.574ZM726.199 946.284C751.679 946.284 774.137 933.354 787.371 913.71L782.395 910.358C770.229 928.417 749.599 940.284 726.199 940.284V946.284ZM658.545 901.879C669.875 928.002 695.899 946.284 726.199 946.284V940.284C698.374 940.284 674.463 923.5 664.05 899.492L658.545 901.879ZM569 810.809C569 861.904 610.259 903.363 661.278 903.686L661.316 897.686C613.594 897.384 575 858.603 575 810.809H569ZM661.878 717.931C610.583 717.931 569 759.514 569 810.809H575C575 762.828 613.897 723.931 661.878 723.931V717.931ZM664.583 717.97C663.684 717.944 662.783 717.931 661.878 717.931V723.931C662.725 723.931 663.57 723.943 664.411 723.967L664.583 717.97ZM732.588 666.389C698.786 666.389 670.305 689.14 661.608 720.158L667.385 721.778C675.375 693.282 701.546 672.389 732.588 672.389V666.389ZM792.058 696.543C778.65 678.265 757.006 666.389 732.588 666.389V672.389C755.014 672.389 774.894 683.289 787.221 700.092L792.058 696.543ZM808.41 692.799C801.64 692.799 795.079 693.712 788.845 695.424L790.434 701.21C796.155 699.639 802.182 698.799 808.41 698.799V692.799ZM825.733 694.847C820.175 693.508 814.373 692.799 808.41 692.799V698.799C813.896 698.799 819.226 699.451 824.328 700.68L825.733 694.847ZM827.613 699.291C839.403 679.357 861.111 666 885.935 666V660C858.904 660 835.274 674.553 822.449 696.236L827.613 699.291ZM885.935 666C914.752 666 939.372 684.004 949.146 709.387L954.745 707.231C944.109 679.609 917.316 660 885.935 660V666Z" fill="black" mask="url(#path-39-inside-10_6_2448)"/>
<mask id="path-41-inside-11_6_2448" fill="white">
<path fill-rule="evenodd" clip-rule="evenodd" d="M177.632 629.686C173.236 637.118 165.14 642.102 155.88 642.102C145.131 642.102 135.95 635.385 132.305 625.92C123.841 621.841 118 613.181 118 603.156C118 593.797 123.091 585.628 130.655 581.265C131.282 567.876 142.336 557.213 155.88 557.213C157.247 557.213 158.588 557.322 159.896 557.531C164.514 552.474 171.16 549.302 178.548 549.302C183.48 549.302 188.082 550.716 191.97 553.161C196.506 546.428 204.2 542 212.929 542C223.308 542 232.225 548.262 236.108 557.214C253.741 557.326 268 571.654 268 589.313C268 607.041 253.629 621.412 235.901 621.412C235.588 621.412 235.276 621.408 234.965 621.399C231.986 632.026 222.226 639.82 210.647 639.82C202.282 639.82 194.867 635.753 190.272 629.488C188.137 630.075 185.889 630.388 183.568 630.388C181.523 630.388 179.536 630.145 177.632 629.686Z"/>
</mask>
<path fill-rule="evenodd" clip-rule="evenodd" d="M177.632 629.686C173.236 637.118 165.14 642.102 155.88 642.102C145.131 642.102 135.95 635.385 132.305 625.92C123.841 621.841 118 613.181 118 603.156C118 593.797 123.091 585.628 130.655 581.265C131.282 567.876 142.336 557.213 155.88 557.213C157.247 557.213 158.588 557.322 159.896 557.531C164.514 552.474 171.16 549.302 178.548 549.302C183.48 549.302 188.082 550.716 191.97 553.161C196.506 546.428 204.2 542 212.929 542C223.308 542 232.225 548.262 236.108 557.214C253.741 557.326 268 571.654 268 589.313C268 607.041 253.629 621.412 235.901 621.412C235.588 621.412 235.276 621.408 234.965 621.399C231.986 632.026 222.226 639.82 210.647 639.82C202.282 639.82 194.867 635.753 190.272 629.488C188.137 630.075 185.889 630.388 183.568 630.388C181.523 630.388 179.536 630.145 177.632 629.686Z" fill="#1BDBC4"/>
<path d="M177.632 629.686L178.334 626.77L176.179 626.25L175.05 628.159L177.632 629.686ZM132.305 625.92L135.105 624.842L134.678 623.733L133.607 623.217L132.305 625.92ZM130.655 581.265L132.154 583.864L133.575 583.044L133.652 581.405L130.655 581.265ZM159.896 557.531L159.423 560.493L161.02 560.748L162.111 559.554L159.896 557.531ZM191.97 553.161L190.374 555.701L192.834 557.248L194.458 554.837L191.97 553.161ZM236.108 557.214L233.356 558.408L234.134 560.201L236.089 560.214L236.108 557.214ZM234.965 621.399L235.051 618.4L232.709 618.333L232.077 620.589L234.965 621.399ZM190.272 629.488L192.691 627.714L191.469 626.048L189.477 626.595L190.272 629.488ZM175.05 628.159C171.172 634.715 164.037 639.102 155.88 639.102L155.88 645.102C166.244 645.102 175.301 639.52 180.214 631.213L175.05 628.159ZM155.88 639.102C146.412 639.102 138.318 633.188 135.105 624.842L129.505 626.998C133.581 637.583 143.849 645.102 155.88 645.102L155.88 639.102ZM115 603.156C115 614.376 121.54 624.063 131.003 628.622L133.607 623.217C126.142 619.62 121 611.986 121 603.156L115 603.156ZM129.156 578.666C120.702 583.543 115 592.682 115 603.156L121 603.156C121 594.913 125.481 587.713 132.154 583.864L129.156 578.666ZM155.88 554.213C140.726 554.213 128.36 566.143 127.658 581.125L133.652 581.405C134.204 569.609 143.946 560.213 155.88 560.213L155.88 554.213ZM160.369 554.568C158.906 554.334 157.406 554.213 155.88 554.213L155.88 560.213C157.088 560.213 158.271 560.309 159.423 560.493L160.369 554.568ZM178.548 546.302C170.283 546.302 162.843 549.855 157.681 555.507L162.111 559.554C166.185 555.094 172.038 552.302 178.548 552.302L178.548 546.302ZM193.567 550.621C189.214 547.885 184.061 546.302 178.548 546.302L178.548 552.302C182.899 552.302 186.949 553.548 190.374 555.701L193.567 550.621ZM212.929 539C203.161 539 194.552 543.96 189.482 551.485L194.458 554.837C198.46 548.897 205.24 545 212.929 545L212.929 539ZM238.86 556.02C234.519 546.011 224.546 539 212.929 539L212.929 545C222.071 545 229.932 550.513 233.356 558.408L238.86 556.02ZM271 589.313C271 570.003 255.408 554.336 236.127 554.214L236.089 560.214C252.073 560.315 265 573.304 265 589.313L271 589.313ZM235.901 624.412C255.285 624.412 271 608.698 271 589.313L265 589.313C265 605.384 251.972 618.412 235.901 618.412L235.901 624.412ZM234.88 624.397C235.219 624.407 235.559 624.412 235.901 624.412L235.901 618.412C235.616 618.412 235.333 618.408 235.051 618.4L234.88 624.397ZM210.647 642.82C223.606 642.82 234.521 634.097 237.854 622.209L232.077 620.589C229.451 629.955 220.847 636.82 210.647 636.82L210.647 642.82ZM187.853 631.263C192.989 638.264 201.286 642.82 210.647 642.82L210.647 636.82C203.278 636.82 196.745 633.241 192.691 627.714L187.853 631.263ZM183.568 633.388C186.16 633.388 188.675 633.038 191.066 632.381L189.477 626.595C187.599 627.111 185.618 627.388 183.568 627.388L183.568 633.388ZM176.929 632.603C179.061 633.116 181.285 633.388 183.568 633.388L183.568 627.388C181.762 627.388 180.01 627.173 178.334 626.77L176.929 632.603Z" fill="black" mask="url(#path-41-inside-11_6_2448)"/>
<defs>
<filter id="filter0_d_6_2448" x="178" y="25" width="532.757" height="953.858" filterUnits="userSpaceOnUse" color-interpolation-filters="sRGB">
<feFlood flood-opacity="0" result="BackgroundImageFix"/>
<feColorMatrix in="SourceAlpha" type="matrix" values="0 0 0 0 0 0 0 0 0 0 0 0 0 0 0 0 0 0 127 0" result="hardAlpha"/>
<feOffset dx="26.0235" dy="26.0235"/>
<feColorMatrix type="matrix" values="0 0 0 0 0 0 0 0 0 0 0 0 0 0 0 0 0 0 0.13 0"/>
<feBlend mode="normal" in2="BackgroundImageFix" result="effect1_dropShadow_6_2448"/>
<feBlend mode="normal" in="SourceGraphic" in2="effect1_dropShadow_6_2448" result="shape"/>
</filter>
<filter id="filter1_d_6_2448" x="261.761" y="705.967" width="316.684" height="72.4663" filterUnits="userSpaceOnUse" color-interpolation-filters="sRGB">
<feFlood flood-opacity="0" result="BackgroundImageFix"/>
<feColorMatrix in="SourceAlpha" type="matrix" values="0 0 0 0 0 0 0 0 0 0 0 0 0 0 0 0 0 0 127 0" result="hardAlpha"/>
<feOffset dy="4.22825"/>
<feColorMatrix type="matrix" values="0 0 0 0 0.125 0 0 0 0 0.125 0 0 0 0 0.125 0 0 0 1 0"/>
<feBlend mode="normal" in2="BackgroundImageFix" result="effect1_dropShadow_6_2448"/>
<feBlend mode="normal" in="SourceGraphic" in2="effect1_dropShadow_6_2448" result="shape"/>
</filter>
<filter id="filter2_d_6_2448" x="282.171" y="398.365" width="150.175" height="140.422" filterUnits="userSpaceOnUse" color-interpolation-filters="sRGB">
<feFlood flood-opacity="0" result="BackgroundImageFix"/>
<feColorMatrix in="SourceAlpha" type="matrix" values="0 0 0 0 0 0 0 0 0 0 0 0 0 0 0 0 0 0 127 0" result="hardAlpha"/>
<feOffset dy="2.11413"/>
<feColorMatrix type="matrix" values="0 0 0 0 0.12549 0 0 0 0 0.12549 0 0 0 0 0.12549 0 0 0 1 0"/>
<feBlend mode="normal" in2="BackgroundImageFix" result="effect1_dropShadow_6_2448"/>
<feBlend mode="normal" in="SourceGraphic" in2="effect1_dropShadow_6_2448" result="shape"/>
</filter>
<filter id="filter3_d_6_2448" x="274.765" y="539.676" width="150.175" height="140.422" filterUnits="userSpaceOnUse" color-interpolation-filters="sRGB">
<feFlood flood-opacity="0" result="BackgroundImageFix"/>
<feColorMatrix in="SourceAlpha" type="matrix" values="0 0 0 0 0 0 0 0 0 0 0 0 0 0 0 0 0 0 127 0" result="hardAlpha"/>
<feOffset dy="2.11413"/>
<feColorMatrix type="matrix" values="0 0 0 0 0.12549 0 0 0 0 0.12549 0 0 0 0 0.12549 0 0 0 1 0"/>
<feBlend mode="normal" in2="BackgroundImageFix" result="effect1_dropShadow_6_2448"/>
<feBlend mode="normal" in="SourceGraphic" in2="effect1_dropShadow_6_2448" result="shape"/>
</filter>
<filter id="filter4_d_6_2448" x="435.996" y="406.427" width="150.175" height="140.422" filterUnits="userSpaceOnUse" color-interpolation-filters="sRGB">
<feFlood flood-opacity="0" result="BackgroundImageFix"/>
<feColorMatrix in="SourceAlpha" type="matrix" values="0 0 0 0 0 0 0 0 0 0 0 0 0 0 0 0 0 0 127 0" result="hardAlpha"/>
<feOffset dy="2.11413"/>
<feColorMatrix type="matrix" values="0 0 0 0 0.12549 0 0 0 0 0.12549 0 0 0 0 0.12549 0 0 0 1 0"/>
<feBlend mode="normal" in2="BackgroundImageFix" result="effect1_dropShadow_6_2448"/>
<feBlend mode="normal" in="SourceGraphic" in2="effect1_dropShadow_6_2448" result="shape"/>
</filter>
<filter id="filter5_d_6_2448" x="428.591" y="547.738" width="150.175" height="140.422" filterUnits="userSpaceOnUse" color-interpolation-filters="sRGB">
<feFlood flood-opacity="0" result="BackgroundImageFix"/>
<feColorMatrix in="SourceAlpha" type="matrix" values="0 0 0 0 0 0 0 0 0 0 0 0 0 0 0 0 0 0 127 0" result="hardAlpha"/>
<feOffset dy="2.11413"/>
<feColorMatrix type="matrix" values="0 0 0 0 0.12549 0 0 0 0 0.12549 0 0 0 0 0.12549 0 0 0 1 0"/>
<feBlend mode="normal" in2="BackgroundImageFix" result="effect1_dropShadow_6_2448"/>
<feBlend mode="normal" in="SourceGraphic" in2="effect1_dropShadow_6_2448" result="shape"/>
</filter>
<filter id="filter6_d_6_2448" x="280.765" y="219.71" width="324.168" height="176.776" filterUnits="userSpaceOnUse" color-interpolation-filters="sRGB">
<feFlood flood-opacity="0" result="BackgroundImageFix"/>
<feColorMatrix in="SourceAlpha" type="matrix" values="0 0 0 0 0 0 0 0 0 0 0 0 0 0 0 0 0 0 127 0" result="hardAlpha"/>
<feOffset dy="4.22825"/>
<feColorMatrix type="matrix" values="0 0 0 0 0.125 0 0 0 0 0.125 0 0 0 0 0.125 0 0 0 1 0"/>
<feBlend mode="normal" in2="BackgroundImageFix" result="effect1_dropShadow_6_2448"/>
<feBlend mode="normal" in="SourceGraphic" in2="effect1_dropShadow_6_2448" result="shape"/>
</filter>
<clipPath id="clip0_6_2448">
<rect x="263.975" y="705.317" width="315.459" height="59.1365" rx="10.5706" transform="rotate(3 263.975 705.317)" fill="white"/>
</clipPath>
</defs>
</svg>
